<?xml version="1.0" encoding="UTF-8" standalone="no"?>
<svg
   style="stroke-width: 0.3px; fill: none; width: 180.80113mm; height: 113.00112999999999mm;"
   width="160.001mm"
   height="100.001mm"
   viewBox="0 0 160.001 100.001"
   version="1.1"
   id="svg831"
   sodipodi:docname="art_seed12345678910000_2022-01-16T09.57.11.643Z.svg"
   inkscape:version="1.1 (c4e8f9e, 2021-05-24)"
   xmlns:inkscape="http://www.inkscape.org/namespaces/inkscape"
   xmlns:sodipodi="http://sodipodi.sourceforge.net/DTD/sodipodi-0.dtd"
   xmlns="http://www.w3.org/2000/svg"
   xmlns:svg="http://www.w3.org/2000/svg">
  <defs
     id="defs835" />
  <sodipodi:namedview
     id="namedview833"
     pagecolor="#ffffff"
     bordercolor="#666666"
     borderopacity="1.0"
     inkscape:pageshadow="2"
     inkscape:pageopacity="0.0"
     inkscape:pagecheckerboard="0"
     inkscape:document-units="mm"
     showgrid="false"
     inkscape:zoom="1.0162242"
     inkscape:cx="244.53266"
     inkscape:cy="247.97678"
     inkscape:window-width="1836"
     inkscape:window-height="1358"
     inkscape:window-x="0"
     inkscape:window-y="25"
     inkscape:window-maximized="0"
     inkscape:current-layer="layer1" />
  <g
     inkscape:groupmode="layer"
     inkscape:label="% Background"
     id="g826">
    <rect
       width="100%"
       height="100%"
       fill="white"
       id="rect824" />
  </g>
  <g
     class="black"
     inkscape:groupmode="layer"
     inkscape:label="1 black"
     id="layer1">
    <path
       d="M 150.67927299819848 93.94713736903559 L -43.51280884522856 16.59868717683056 L 159.89514952934488 63.990101564169976 L -66.54787261478445 67.29220911715616 L 159.80838650033016 12.634507751473148 L -39.74297337127984 95.02563932990682 L 148.7630449805949 -28.954852303473572 L 31.691781523815514 99.96254667719475 L 97.99312079891679 -41.464170846435934 L 111.7195725763569 99.81716260043648 L 15.21635132965068 -22.83068710428467 L 153.2585121786131 91.90663597005593 L -48.962112995560325 23.040250791033607 L 159.96878217906297 58.41641261282102 L -65.95497887477012 72.25521852140128 L 159.57161624807577 6.436017637636272 L -33.14243338128998 96.46223532303728 L 145.1721293746493 -32.13404019302076 L 42.06210211415282 99.99106563670385 L 88.81399404368193 -40.865386931310105 L 119.32759519114805 99.62120581459227 L 5.470608997484457 -18.491607559231145 L 155.29243198480398 89.45144205772 L -53.683810649589475 29.544335436973153 L 159.99459812249415 52.52971294602881 L -64.63136006798989 76.79508016865515 L 159.1670064202874 0.4663824311486089 L -25.86574940262434 97.57849213884256 L 140.8966871479288 -34.855923491528756 L 52.47675797764876 99.99907110295851 L 79.17884066148262 -39.80932645334929 L 126.23787836550125 99.30190184370015 L -3.8653327570677303 -13.740545426477954 L 156.84775736594506 86.5573013082655 L -57.67107075099557 36.0408222024464 L 159.99978188995374 46.38779178737204 L -62.57500463827901 80.88868434886187 L 158.53388302967954 -5.22157065316093 L -17.949553224629664 98.41736008452904 L 135.90464419431711 -37.117765378770436 L 62.82235584142802 99.9999970355223 L 69.18552947283233 -38.29457067835211 L 132.42234572405238 98.8194279794541 L -12.712556483737615 -8.603831268838356 L 157.99451383202165 83.20869899150561 L -60.9215532001097 42.4585784005411 L 159.99999936714354 40.05473510142955 L -59.78359497549795 84.5240647975157 L 157.60598984302771 -10.582150944281441 L -9.441686237282752 99.02299681857437 L 130.178887900489 -38.919127244539645 L 72.985475359953 99.99992946714235 L 58.9404893519417 -36.3197982772933 L 137.8707236199719 98.1311232668222 L -21.003899873757533 -3.1150359519848982 L 158.80331987803117 79.40000648158434 L -63.43581256445822 48.727478597198875 L 159.99899836568434 33.59898864452583 L -56.25550883235797 87.70025528467728 L 156.31364062116776 -15.577131436370815 L -0.40183191484672115 99.43911914322635 L 123.71884393589346 -40.26091700349248 L 82.85596917753203 99.99745236311036 L 48.55549208919178 -33.884504069552484 L 142.58996597760762 97.19291823041787 L -28.684183982294 2.684787152831794 L 159.34283978923338 75.13628923560881 L -65.21586983068731 54.780481962415394 L 159.98851404004125 27.09130047226354 L -51.99110352589606 90.4267230915155 L 154.5861308760625 -20.175714094583533 L 9.098360907369875 99.70747776266529 L 116.54146166162275 -41.144567314421934 L 92.33026663313751 99.9836833435487 L 38.144329487520146 -30.989875253604726 L 146.6030352829011 95.9609113259308 L -35.70988919070929 8.747200319075764 L 159.6774643250297 70.43371827003415 L -66.2640279041067 60.55565705056114 L 159.94847796586322 20.602652234409284 L -46.99421720902262 92.7224258257999 L 152.35435453469418 -24.354171088204442 L 18.97572779649654 99.86649071272679 L 108.68152992515334 -41.57138603468991 L 101.31450592027635 99.94249971795212 L 27.819559456812463 -27.639779018258892 L 149.94712909991074 94.3930515380367 L -42.04835259058487 15.016850731775842 L 159.86526634521172 65.31954661814169 L -66.58199032318036 65.99804593160606 L 159.84753343550346 14.202286393170827 L -41.2738057479729 94.6145554399453 L 149.55355014979224 -28.09521514559027 L 29.13664454310174 99.9500589116804 L 100.191280032411 -41.54211079019068 L 109.72732723551832 99.85095742524611 L 17.68948611223489 -23.841806113478746 L 152.67146468503148 92.45087359478599 L -47.67658138326165 21.432320525402215 L 159.95626006098874 59.831636198177854 L -66.17032561113427 71.06126835290156 L 159.64386229957154 7.955926688669866 L -34.84561994362933 96.13704473595504 L 146.1260811515123 -31.38716284153862 L 39.47868582778216 99.98657677282748 L 91.13927357306085 -41.0566887605951 L 117.50217947264684 99.67990658833455 L 7.8555176856168165 -19.608307206944854 L 154.8347475053379 90.10122039989218 L -52.579789929502596 27.92734344414628 L 159.9909776138553 54.01754717385045 L -65.02830232126945 75.70878261255535 L 159.28632917421783 1.92427284590879 L -27.733817137219155 97.32891677306267 L 142.0241373967845 -34.222960355675255 L 49.89284426421961 99.99814272539574 L 81.60861629392511 -40.114291889519 L 124.58902362949993 99.39480671885502 L -1.5899843284585125 -14.957353440657661 L 156.50245279196503 87.31787797890304 L -56.749773518537225 34.43234917874647 L 159.99936588318843 47.93322905329998 L -63.1541023839748 79.91474165320027 L 158.71594595525724 -3.838170667706564 L -19.972394959739034 98.23255677601423 L 137.21223331219107 -36.599142437677166 L 60.2662280623668 99.99996911178074 L 71.69458166879315 -38.71356681908714 L 130.95535453751893 98.9567415669668 L -10.565287966901668 -9.913550372487856 L 157.74404367111106 84.08304292941767 L -60.18323058512766 40.87627264677522 L 159.99999999350652 41.64137808193875 L -60.54540290590094 83.66440856434974 L 157.86765259728259 -9.283896060161608 L -11.60633445260471 98.89198024814525 L 131.66937339828652 -38.51479263044798 L 70.48511957278976 99.99998821642473 L 61.50176543298165 -36.85310793886569 L 136.5865053279143 98.32362787955948 L -19.000268173872396 -4.508636235112791 L 158.63023664886103 80.38854227257148 L -62.88013817907035 47.18854481420978 L 159.99960759607978 35.20954666498909 L -57.20029912726018 86.95412291155333 L 156.67239875451259 -14.372812810903973 L -2.69234616185239 99.35116127581806 L 125.39076042272268 -39.97056704316057 L 80.4382476109648 99.99865077506475 L 51.14092173663462 -34.53213105586615 L 141.48524242990422 97.45160390139702 L -26.83678042476647 1.2181982120145933 L 159.23040748141742 76.23673153567883 L -64.84227432460129 53.301166080345496 L 159.99289885038857 28.708105692228013 L -53.11852390095729 89.79083573150626 L 155.05949540816718 -19.072299992171732 L 6.7008731410610975 99.65247292131653 L 118.38893616214519 -40.96783597141203 L 90.02010662575103 99.98891460633612 L 40.725650085833045 -31.751314438414376 L 145.6706991948788 96.29657267565301 L -34.02846791747813 7.220319712292735 L 159.6102101140762 71.64100911679971 L -66.07196679923922 59.15075436633514 L 159.96270000513712 22.208168398311006 L -48.30290208251942 92.19125449081997 L 152.95918687316933 -23.35692352433933 L 16.49294355332135 99.835278613686 L 110.69426897408589 -41.5079881972015 L 99.13414759907351 99.95642322244073 L 30.369108319406482 -28.51376360333862 L 149.17673031697248 94.81586278593575 L -40.54006963727899 13.444027853799259 L 159.82946069903994 66.62590310725606 L -66.57113193181998 64.6804588753003 L 159.88039224194176 15.77958417845802 L -42.76096213446789 94.18065808150843 L 150.30537300453827 -27.20786816207829 L 26.59270620003869 99.93470090085833 L 102.35473563714248 -41.591932486858326"
       stroke-linecap="round"
       stroke-linejoin="round"
       style="stroke: black;"
       id="path828" />
  </g>
  <plotdata
     layer="-2"
     node="0"
     last_path="0"
     node_after_path="0"
     last_known_x="0"
     last_known_y="0"
     paused_x="0"
     paused_y="0"
     randseed="0"
     row="0"
     id="1642327656"
     application="axidraw" />
</svg>
