<?xml version="1.0" standalone="no"?>
<svg width="1600px" height="1000px" style="stroke: black; stroke-width: 1.5px; fill: none;" xmlns="http://www.w3.org/2000/svg" version="1.1" viewBox="0 0 1599 999">
<g>
<path d="" />
<path d="" />
<path d="" />
<path d="" />
<path d="" />
<path d="" />
<path d="" />
<path d="M16.90,27.01L0.00,65.95" />
<path d="M1550.55,25.20L1535.57,0.00" />
<path d="M1563.37,62.07L1536.92,26.96" />
<path d="M1599.00,158.83L1588.41,141.52M24.64,84.54L10.28,129.30" />
<path d="M64.75,0.00L58.60,15.35" />
<path d="M1564.09,140.85L1543.19,99.08M1501.16,37.70L1482.47,0.00M2.19,176.79L0.00,184.27" />
<path d="M1491.24,39.21L1469.16,1.34" />
<path d="M1565.58,182.24L1539.11,145.78L1516.37,100.22M1497.54,71.01L1478.28,41.13M55.78,106.66L43.95,149.07" />
<path d="M1577.67,205.60L1554.56,182.75M1525.69,145.24L1504.29,100.18M87.26,38.50L82.44,74.91" />
<path d="M1597.79,269.86L1589.16,242.16M1566.90,206.12L1544.12,181.38M115.81,0.00L112.41,6.74M96.66,43.53L88.64,81.35M62.85,157.25L36.26,196.77" />
<path d="M96.50,88.28L81.82,117.63M30.12,279.84L12.75,316.63" />
<path d="M1571.66,270.09L1565.07,242.25M79.63,167.05L56.90,205.77" />
<path d="M47.13,285.83L31.79,325.54" />
<path d="M1550.88,264.87L1541.54,241.21L1518.42,208.76M1498.34,185.83L1468.16,149.46M1426.97,88.91L1411.22,59.25M143.36,29.78L128.71,66.97M22.95,363.68L8.94,408.96" />
<path d="M1487.60,188.64L1456.97,153.34M165.17,0.30L149.68,36.49M136.75,71.16L128.13,106.52" />
<path d="M1409.10,94.33L1393.56,67.67M113.49,179.94L90.81,216.55" />
<path d="M1436.42,160.30L1413.31,119.44" />
<path d="M1589.08,371.51L1574.86,330.94M1474.30,209.82L1455.83,195.70M1427.17,161.51L1403.47,121.89M189.56,0.00L187.44,13.43M109.94,256.72L95.69,297.39" />
<path d="M61.27,445.90L37.01,483.49" />
<path d="M1382.17,127.12L1364.64,106.98M125.59,227.64L124.69,261.53" />
<path d="M1303.49,39.95L1281.30,8.57" />
<path d="M1599.00,422.31L1596.61,417.55M1564.38,379.12L1542.64,365.92M1271.29,14.83L1262.81,0.00M224.17,2.89L218.88,35.08" />
<path d="M206.38,74.55L196.14,106.32M191.49,134.71L185.55,160.64" />
<path d="M1542.05,374.02L1521.13,362.09M1488.99,308.66L1471.79,284.82M1391.66,212.41L1369.79,182.59M1293.84,79.35L1272.69,57.67M159.62,270.64L151.69,311.07" />
<path d="M210.20,143.25L202.67,169.48M124.28,421.25L121.18,449.55" />
<path d="M1481.94,321.00L1464.01,305.52M1390.02,229.05L1373.48,218.81M83.82,600.68L78.20,627.71M10.86,870.30L0.00,892.30" />
<path d="M1437.91,285.21L1411.04,271.05M1362.49,220.09L1343.04,190.28M1284.53,113.75L1270.42,95.07" />
<path d="M1478.27,357.09L1458.36,319.56M1443.90,305.25L1426.28,287.08M163.03,372.33L155.76,420.35M47.41,817.00L42.89,839.14M15.65,936.47L5.50,970.08L0.00,977.27" />
<path d="M1267.94,125.67L1253.87,105.00M207.09,254.44L206.87,276.49M29.05,932.15L17.90,965.71" />
<path d="M1560.92,450.57L1543.98,434.59M1382.49,275.37L1375.39,262.59M1354.73,241.58L1331.72,229.88M171.93,448.12L147.84,488.18" />
<path d="M1322.47,232.03L1308.84,203.64M1164.52,19.41L1156.60,0.00M304.23,26.02L293.11,45.74M249.09,182.93L236.55,216.31" />
<path d="M1197.29,78.67L1179.63,49.28M162.23,555.54L150.09,588.51" />
<path d="M1406.75,319.44L1390.24,309.32M99.02,837.20L80.26,882.70" />
<path d="M1126.82,6.36L1125.34,0.00M204.85,444.52L186.93,483.81M48.95,988.72L47.59,999.00" />
<path d="M280.17,187.86L269.91,224.06M244.49,348.14L231.66,375.46" />
<path d="M1599.00,552.68L1579.86,542.40M1554.11,501.24L1538.90,484.74M1324.96,273.89L1302.93,258.27M330.16,68.56L325.06,96.12M192.87,579.63L185.60,604.39" />
<path d="M1269.99,250.15L1259.00,229.70M1237.82,191.88L1214.20,182.77L1203.83,165.96M1109.21,30.79L1103.96,0.00M99.80,938.15L85.55,966.73" />
<path d="M1554.87,531.07L1549.44,518.66M346.77,75.46L339.81,101.65M223.20,542.50L210.54,576.79M126.58,911.78L112.13,932.13M96.01,984.69L85.90,999.00" />
<path d="M1583.88,551.50L1543.13,527.53M1478.29,435.54L1462.37,423.00M1384.21,357.28L1367.70,346.26M145.56,853.14L141.47,882.62" />
<path d="M1529.28,522.36L1526.60,508.72L1505.76,482.55M1179.49,180.09L1171.59,161.62M340.82,129.89L339.23,157.84" />
<path d="M1365.59,355.92L1348.94,345.57L1330.95,329.70M1286.41,291.49L1281.84,284.86M345.98,159.10L339.41,178.51M165.32,869.76L160.16,891.68M113.06,997.33L112.70,999.00" />
<path d="M1231.63,270.52L1222.96,244.76M327.17,226.22L320.64,265.90M245.24,624.13L226.00,659.83" />
<path d="M1437.13,424.43L1417.09,414.56M1290.36,306.29L1268.64,297.20M154.97,949.60L140.71,962.41" />
<path d="M1282.18,309.17L1262.29,298.99" />
<path d="M1598.57,678.28L1575.62,654.21M1415.07,420.15L1396.56,411.59M1063.42,88.89L1056.74,48.31M1037.30,43.30L1022.45,16.93M345.46,282.08L333.40,313.96" />
<path d="M1599.00,708.41L1592.90,702.10M436.91,31.66L438.75,36.19M275.42,585.88L276.95,611.33M202.11,878.64L182.08,899.53M162.33,968.02L149.03,987.28" />
<path d="M1599.00,722.32L1596.17,714.75M1111.96,186.44L1098.43,170.53M284.10,582.61L286.60,607.41" />
<path d="M1504.33,559.57L1460.32,520.25M1001.75,3.38L999.78,0.00M314.91,457.09L321.76,484.38" />
<path d="M1202.68,300.74L1181.39,293.68M1138.79,238.35L1116.97,233.25M459.75,51.25L450.83,64.15" />
<path d="M1555.95,695.89L1539.09,682.94M1243.77,328.71L1234.37,324.36" />
<path d="M992.77,24.09L980.65,8.57M428.32,155.73L419.33,170.94" />
<path d="M195.15,957.23L187.04,973.94" />
<path d="M503.19,26.94L494.00,35.12M377.08,418.42L354.41,449.36M274.92,799.78L277.74,821.63M233.06,907.57L215.85,921.73" />
<path d="" />
<path d="M1437.03,562.62L1430.78,549.70" />
<path d="M1244.87,386.74L1234.44,365.56M1082.62,247.62L1065.33,235.39M978.83,100.48L977.16,60.80M465.08,147.96L460.53,167.01" />
<path d="M196.54,985.67L195.15,975.59" />
<path d="M313.52,769.37L315.01,790.50M204.03,963.41L203.67,987.82" />
<path d="M1503.83,769.79L1482.67,769.03M405.21,458.46L397.66,489.64" />
<path d="M1331.98,483.52L1341.49,480.09M535.02,93.27L528.59,95.56" />
<path d="M1386.52,584.38L1383.14,560.49M1284.07,428.34L1281.16,411.03M968.42,96.85L954.01,78.19M447.06,306.92L446.54,328.71" />
<path d="M1312.45,476.74L1321.43,475.11" />
<path d="M958.39,150.67L964.99,110.59M950.80,91.05L945.67,62.66M450.77,382.17L445.50,400.87" />
<path d="M386.23,676.69L370.95,682.02" />
<path d="M1323.53,503.22L1285.69,471.41M236.41,932.71L243.10,954.71" />
<path d="M1509.12,969.50L1507.45,951.32M1330.84,530.46L1314.44,516.46M1282.31,468.31L1263.43,452.50M238.37,991.12L234.06,999.00" />
<path d="M353.99,789.25L342.47,796.25" />
<path d="M1123.88,367.16L1118.26,370.84" />
<path d="M1030.43,323.40L1024.01,316.23" />
<path d="" />
<path d="M1301.10,949.72L1298.14,945.07" />
<path d="M1470.68,971.69L1467.77,970.93M1022.13,335.82L1010.74,330.89M448.38,619.90L443.15,636.82" />
<path d="" />
<path d="" />
<path d="M378.28,757.22L380.20,766.07" />
<path d="" />
<path d="M1232.44,542.98L1227.91,526.90" />
<path d="" />
<path d="M1082.34,976.09L1082.43,970.98M459.90,682.51L443.94,688.47" />
<path d="M676.53,157.92L673.99,160.48" />
<path d="" />
<path d="M1315.90,860.22L1322.38,875.63M370.67,771.20L367.87,777.66" />
<path d="M400.17,700.82L390.67,701.72M354.49,812.50L351.13,837.91" />
<path d="M1236.06,799.61L1240.02,826.09M1133.55,436.43L1133.82,421.91" />
<path d="M704.29,837.51L727.78,830.46" />
<path d="" />
<path d="" />
<path d="" />
<path d="M737.67,179.81L732.31,196.37" />
<path d="" />
<path d="M904.64,946.74L918.77,943.45M447.68,631.49L440.53,631.23" />
<path d="" />
<path d="" />
<path d="" />
<path d="" />
<path d="" />
<path d="" />
<path d="" />
<path d="" />
<path d="" />
<path d="" />
<path d="" />
<path d="" />
<path d="" />
<path d="" />
<path d="" />
<path d="" />
<path d="" />
<path d="" />
<path d="" />
<path d="" />
<path d="" />
<path d="" />
<path d="" />
<path d="" />
<path d="" />
<path d="" />
<path d="" />
<path d="" />
<path d="" />
<path d="" />
<path d="" />
<path d="" />
<path d="" />
<path d="" />
<path d="" />
<path d="" />
<path d="" />
<path d="" />
<path d="" />
<path d="" />
<path d="" />
<path d="" />
<path d="" />
</g>
<metadata>https://doersino.github.io/uji/#s3r2200ro-0.4e0.988ex0.988t1.5se300sk0.8i140w1600h1000f110tra-1.8wa100wav50wavi0.3wavin2j4sa30saw110exp8expa8rotatio-0.02</metadata>
</svg>