<?xml version="1.0" standalone="no"?>
<svg width="1200px" height="400px" style="stroke: black; stroke-width: 1px; fill: none;" xmlns="http://www.w3.org/2000/svg" version="1.1" viewBox="0 0 1199 399">
<g>
<path d="" />
<path d="" />
<path d="" />
<path d="" />
<path d="" />
<path d="" />
<path d="" />
<path d="M1079.92,0.00L1080.80,0.93L1085.34,0.21L1085.85,0.00M1133.55,0.00L1130.94,10.71L1126.02,21.22L1120.41,29.09L1115.68,34.51L1113.39,37.77L1114.47,39.08L1118.93,38.43L1125.82,35.61L1133.60,30.35L1140.69,22.46L1146.03,12.05L1149.33,0.00M1167.25,0.00L1167.22,6.17L1167.15,22.38L1165.83,37.48L1162.58,50.57L1157.57,61.14L1151.87,69.08L1147.07,74.57L1144.69,77.89L1145.69,79.26L1150.07,78.68L1156.87,75.93L1164.57,70.73L1171.57,62.90L1176.83,52.56L1180.14,40.20L1182.22,26.73L1184.29,13.27L1187.60,0.92L1188.06,0.00M1199.00,12.83L1198.11,16.33L1196.72,31.48L1196.56,47.75L1196.39,64.03L1194.99,79.18L1191.65,92.33L1186.55,102.96L1180.77,110.96L1175.87,116.51L1173.41,119.90L1174.32,121.33L1178.61,120.80L1185.33,118.12L1192.93,112.98L1199.00,106.16" />
<path d="M992.73,0.00L988.81,7.37L982.15,15.61L976.63,21.11L973.98,24.28L975.26,25.39L980.48,24.44L988.56,21.16L997.78,15.15L1006.35,6.10L1009.76,0.00M1038.76,0.00L1036.74,15.97L1032.53,30.26L1026.46,41.60L1019.73,49.92L1014.13,55.50L1011.41,58.75L1012.62,59.94L1017.76,59.07L1025.78,55.87L1034.93,49.93L1043.42,40.96L1050.05,29.05L1054.58,14.76L1057.58,0.00M1076.13,0.00L1075.33,17.54L1074.50,35.61L1072.32,52.35L1068.03,66.72L1061.88,78.13L1055.08,86.53L1049.40,92.18L1046.60,95.50L1047.74,96.76L1052.80,95.97L1060.74,92.84L1069.81,86.97L1078.23,78.08L1084.78,66.24L1089.23,52.02L1092.32,36.48L1095.42,20.93L1099.86,6.72L1103.58,0.00M1119.79,0.00L1116.23,6.57L1111.88,21.00L1109.62,37.80L1108.72,55.94L1107.81,74.08L1105.54,90.89L1101.17,105.33L1094.94,116.82L1088.06,125.28L1082.30,131.00L1079.42,134.39L1080.47,135.72L1085.46,135.00L1093.31,131.93L1102.30,126.13L1110.63,117.31L1117.10,105.54L1121.47,91.39L1124.49,75.91L1127.50,60.43L1131.86,46.29L1138.31,34.53L1146.63,25.72L1155.59,19.94L1163.41,16.90L1168.36,16.21L1169.37,17.57L1166.44,20.99L1160.63,26.76L1153.69,35.27L1147.39,46.80L1142.96,61.29L1140.61,78.16L1139.62,96.36L1138.63,114.57L1136.28,131.45L1131.82,145.95L1125.51,157.50L1118.54,166.02L1112.70,171.81L1109.73,175.26L1110.70,176.66L1115.60,175.99L1123.37,173.00L1132.27,167.26L1140.52,158.50L1146.90,146.79L1151.18,132.70L1154.11,117.28L1157.03,101.87L1161.30,87.79L1167.67,76.09L1175.90,67.34L1184.78,61.62L1192.51,58.65L1197.37,58.01L1198.29,59.43L1195.28,62.92L1189.38,68.74L1182.35,77.31L1175.97,88.91L1171.44,103.46L1169.01,120.39L1167.93,138.65L1166.85,156.91L1164.41,173.85L1159.86,188.41L1153.46,200.02L1146.40,208.60L1140.47,214.45L1137.42,217.96L1138.29,219.41L1143.10,218.81L1150.78,215.87L1159.59,210.19L1167.75,201.48L1174.04,189.83L1178.24,175.80L1181.07,160.44L1183.91,145.08L1188.09,131.06L1194.37,119.41L1199.00,114.46M1199.00,141.70L1197.22,147.33L1194.70,164.31L1193.53,182.63L1192.35,200.95L1189.82,217.94L1185.18,232.55L1178.69,244.21L1171.53,252.85L1165.51,258.74L1162.37,262.31L1163.15,263.81L1167.86,263.26L1175.45,260.37L1184.17,254.74L1192.23,246.09L1198.43,234.49L1199.00,232.56M1199.00,292.40L1193.84,298.58L1187.73,304.53L1184.48,308.14L1185.17,309.69L1189.79,309.18L1197.28,306.34L1199.00,305.22" />
<path d="M4.93,0.00L0.00,4.28M0.00,4.87L5.63,1.59L7.65,0.00M834.25,0.00L830.64,5.96L822.86,14.43L816.49,19.89L813.43,22.88L814.88,23.77L820.82,22.55L830.09,18.86L840.76,12.17L850.85,2.06L852.10,0.00M887.01,0.00L885.94,6.26L880.63,21.62L873.37,33.59L865.54,42.14L859.10,47.70L855.99,50.78L857.38,51.75L863.27,50.62L872.48,47.02L883.09,40.41L893.12,30.40L901.21,16.99L907.07,0.83L907.27,0.00M931.69,0.00L930.13,18.14L926.98,36.34L921.60,51.78L914.29,63.84L906.39,72.48L899.89,78.12L896.72,81.29L898.04,82.35L903.86,81.30L913.01,77.79L923.56,71.26L933.52,61.33L941.55,48.01L947.34,31.93L951.68,14.30L955.20,0.00M974.72,0.00L972.79,10.99L971.03,30.83L969.27,50.66L966.05,68.94L960.61,84.47L953.22,96.60L945.26,105.33L938.69,111.05L935.45,114.29L936.70,115.44L942.45,114.47L951.53,111.04L962.01,104.59L971.90,94.74L979.86,81.50L985.58,65.50L989.85,47.95L994.12,30.40L999.84,14.41L1007.78,1.18L1008.97,0.00M1025.95,0.00L1018.75,11.81L1013.24,27.40L1009.96,45.75L1008.13,65.66L1006.29,85.57L1003.00,103.93L997.48,119.53L990.02,131.75L981.98,140.55L975.34,146.34L972.03,149.67L973.21,150.89L978.88,150.00L987.89,146.64L998.29,140.27L1008.11,130.50L1015.99,117.33L1021.64,101.41L1025.83,83.93L1030.03,66.46L1035.67,50.54L1043.54,37.39L1053.34,27.63L1063.72,21.29L1072.69,17.95L1078.34,17.10L1079.48,18.35L1076.12,21.72L1069.43,27.56L1061.33,36.41L1053.81,48.68L1048.23,64.35L1044.87,82.77L1042.96,102.75L1041.05,122.74L1037.68,141.17L1032.08,156.84L1024.55,169.13L1016.43,178.00L1009.71,183.87L1006.31,187.27L1007.41,188.56L1013.01,187.74L1021.93,184.45L1032.26,178.16L1042.00,168.45L1049.80,155.36L1055.37,139.51L1059.49,122.10L1063.60,104.70L1069.16,88.85L1076.95,75.77L1086.67,66.08L1096.97,59.81L1105.86,56.54L1111.42,55.76L1112.48,57.08L1109.04,60.52L1102.27,66.43L1094.09,75.35L1086.49,87.69L1080.83,103.42L1077.39,121.91L1075.40,141.96L1073.40,162.01L1069.95,180.51L1064.27,196.25L1056.65,208.61L1048.45,217.55L1041.65,223.48L1038.17,226.95L1039.19,228.30L1044.70,227.55L1053.54,224.33L1063.78,218.10L1073.44,208.46L1081.15,195.44L1086.64,179.65L1090.67,162.31L1094.70,144.97L1100.18,129.19L1107.88,116.17L1117.52,106.55L1127.73,100.34L1136.54,97.14L1142.02,96.42L1142.99,97.80L1139.47,101.30L1132.61,107.28L1124.35,116.26L1116.66,128.66L1110.91,144.46L1107.39,163.01L1105.30,183.13L1103.22,203.24L1099.69,221.80L1093.92,237.61L1086.22,250.02L1077.93,259.03L1071.04,265.02L1067.47,268.55L1068.40,269.97L1073.83,269.28L1082.58,266.12L1092.74,259.95L1102.30,250.37L1109.93,237.40L1115.33,221.67L1119.28,204.40L1123.22,187.12L1128.61,171.40L1136.22,158.44L1145.77,148.87L1155.89,142.72L1164.61,139.58L1170.00,138.92L1170.89,140.36L1167.27,143.92L1160.32,149.95L1151.97,159.00L1144.20,171.46L1138.36,187.31L1134.74,205.92L1132.57,226.09L1130.40,246.26L1126.77,264.88L1120.92,280.74L1113.12,293.22L1104.74,302.27L1097.76,308.33L1094.10,311.91L1094.94,313.38L1100.28,312.75L1108.94,309.64L1119.00,303.53L1128.48,294.01L1136.02,281.09L1141.32,265.42L1145.18,248.19L1149.03,230.97L1154.33,215.30L1161.85,202.40L1171.30,192.89L1181.34,186.79L1189.96,183.70L1195.26,183.09L1196.05,184.59L1192.34,188.20L1185.30,194.29L1176.86,203.38L1168.99,215.89L1163.06,231.80L1159.35,250.46L1157.08,270.68L1154.82,290.91L1151.10,309.58L1145.15,325.49L1137.26,338.01L1128.79,347.12L1121.71,353.22L1117.96,356.85L1118.71,358.38L1123.95,357.79L1132.52,354.74L1142.48,348.67L1151.87,339.20L1159.31,326.33L1164.52,310.71L1168.28,293.53L1172.04,276.36L1177.24,260.74L1184.66,247.88L1194.02,238.42L1199.00,235.39M1199.00,249.14L1198.91,249.24L1190.95,261.80L1184.92,277.75L1181.11,296.46L1178.75,316.73L1176.39,336.99L1172.57,355.71L1166.53,371.66L1158.54,384.23L1149.97,393.39L1143.42,399.00M1156.86,399.00L1163.08,395.20L1172.37,385.77L1179.71,372.95L1184.83,357.37L1188.49,340.23L1192.15,323.10L1197.25,307.52L1199.00,304.46M1199.00,351.51L1197.48,364.04L1195.02,384.35L1191.96,399.00" />
<path d="M0.00,20.89L5.24,6.85L7.09,0.00M29.63,0.00L26.81,11.97L20.24,26.80L11.70,37.80L2.69,45.02L0.00,46.47M0.00,46.85L10.40,41.47L22.49,32.84L34.11,20.42L43.76,4.17L45.33,0.00M69.79,0.00L66.93,6.56L58.43,17.66L49.46,24.97L42.19,29.03L38.70,30.53L40.28,29.92L46.93,27.20L57.38,21.92L69.51,13.39L81.17,1.06L81.81,0.00M106.70,0.00L106.33,0.49L97.40,7.90L90.16,12.06L86.71,13.66L88.33,13.15L95.01,10.53L105.49,5.35L113.21,0.00M542.52,0.00L541.97,0.39L538.55,2.93L540.19,3.37L546.89,1.70L551.10,0.00M607.76,0.00L606.94,1.19L598.00,9.65L590.76,14.86L587.30,17.50L588.91,18.04L595.58,16.47L606.05,12.34L618.20,4.96L623.38,0.00M665.76,0.00L663.29,6.14L654.79,18.49L645.82,27.05L638.54,32.36L635.05,35.11L636.62,35.75L643.25,34.28L653.68,30.24L665.80,22.96L677.43,11.89L685.14,0.00M718.75,0.00L716.57,10.04L710.00,26.32L701.46,38.77L692.45,47.42L685.13,52.83L681.59,55.67L683.12,56.41L689.71,55.04L700.09,51.10L712.17,43.92L723.76,32.94L733.38,18.13L740.67,0.17L740.72,0.00M768.00,0.00L766.25,13.49L761.97,33.01L755.36,49.39L746.77,61.93L737.71,70.68L730.33,76.19L726.75,79.12L728.23,79.95L734.77,78.68L745.10,74.84L757.13,67.74L768.67,56.86L778.24,42.15L785.48,24.28L791.20,4.64L792.55,0.00M815.33,0.00L812.99,17.78L810.18,39.18L805.84,58.79L799.18,75.26L790.53,87.90L781.42,96.74L773.99,102.33L770.35,105.36L771.77,106.28L778.26,105.10L788.54,101.35L800.51,94.35L811.99,83.55L821.51,68.93L828.69,51.16L834.36,31.60L840.01,12.05L844.88,0.00M864.53,0.00L862.54,4.91L858.15,24.60L855.28,46.09L852.40,67.57L848.01,87.28L841.28,103.83L832.58,116.56L823.40,125.49L815.91,131.17L812.21,134.29L813.58,135.30L820.01,134.20L830.22,130.53L842.13,123.62L853.55,112.91L863.01,98.38L870.13,80.69L875.73,61.22L881.33,41.76L888.44,24.08L897.89,9.56L908.09,0.00M925.01,0.00L918.62,6.23L909.87,19.02L903.09,35.65L898.63,55.43L895.70,76.99L892.76,98.57L888.30,118.35L881.51,134.99L872.74,147.80L863.50,156.82L855.95,162.58L852.18,165.78L853.48,166.87L859.84,165.86L869.99,162.28L881.83,155.45L893.19,144.83L902.58,130.37L909.63,112.77L915.16,93.38L920.69,74.00L927.74,56.41L937.12,41.97L948.46,31.36L960.28,24.56L970.40,21.01L976.73,20.03L978.00,21.16L974.19,24.40L966.59,30.22L957.30,39.29L948.48,52.16L941.63,68.87L937.11,88.73L934.10,110.38L931.10,132.03L926.56,151.90L919.70,168.62L910.87,181.51L901.55,190.60L893.93,196.45L890.09,199.73L891.32,200.90L897.61,199.96L907.69,196.46L919.45,189.71L930.74,179.17L940.06,164.79L947.04,147.27L952.50,127.96L957.96,108.65L964.93,91.14L974.24,76.77L985.51,66.25L997.25,59.52L1007.30,56.05L1013.56,55.14L1014.75,56.35L1010.87,59.68L1003.20,65.57L993.83,74.72L984.94,87.66L978.01,104.45L973.41,124.38L970.34,146.11L967.25,167.84L962.65,187.78L955.71,204.57L946.80,217.54L937.41,226.71L929.71,232.63L925.79,235.98L926.95,237.23L933.16,236.37L943.16,232.94L954.85,226.26L966.06,215.79L975.30,201.49L982.21,184.04L987.59,164.81L992.97,145.58L999.87,128.13L1009.09,113.84L1020.29,103.39L1031.96,96.73L1041.93,93.33L1048.11,92.50L1049.22,93.79L1045.26,97.18L1037.51,103.15L1028.06,112.37L1019.09,125.38L1012.09,142.24L1007.41,162.25L1004.25,184.04L1001.09,205.84L996.40,225.86L989.39,242.72L980.40,255.75L970.93,264.99L963.15,270.98L959.15,274.41L960.22,275.73L966.36,274.93L976.28,271.58L987.89,264.97L999.02,254.57L1008.17,240.34L1015.00,222.95L1020.30,203.79L1025.60,184.63L1032.42,167.25L1041.56,153.03L1052.67,142.64L1064.25,136.06L1074.14,132.72L1080.24,131.96L1081.27,133.31L1077.23,136.77L1069.39,142.80L1059.87,152.09L1050.81,165.17L1043.72,182.09L1038.96,202.17L1035.72,224.03L1032.48,245.89L1027.70,265.98L1020.60,282.91L1011.53,296.00L1001.97,305.31L994.11,311.37L990.03,314.85L991.02,316.24L997.06,315.51L1006.90,312.22L1018.42,305.67L1029.47,295.34L1038.54,281.17L1045.28,263.85L1050.50,244.75L1055.71,225.65L1062.44,208.33L1071.50,194.18L1082.52,183.85L1094.02,177.33L1103.82,174.06L1109.83,173.36L1110.78,174.77L1106.65,178.29L1098.73,184.38L1089.11,193.73L1079.97,206.88L1072.79,223.86L1067.94,243.99L1064.61,265.92L1061.28,287.84L1056.42,307.98L1049.24,324.97L1040.07,338.13L1030.43,347.50L1022.48,353.61L1018.31,357.16L1019.20,358.60L1025.16,357.93L1034.91,354.70L1046.35,348.21L1057.30,337.93L1066.28,323.82L1072.94,306.56L1078.06,287.52L1083.18,268.48L1089.83,251.22L1098.79,237.12L1109.73,226.85L1121.14,220.39L1130.85,217.17L1136.77,216.53L1137.62,218.00L1133.40,221.57L1125.39,227.72L1115.68,237.13L1106.45,250.33L1099.18,267.36L1094.24,287.56L1090.82,309.53L1087.40,331.51L1082.45,351.71L1075.17,368.75L1065.91,381.97L1056.18,391.39L1048.13,397.55L1046.42,399.00M1059.76,399.00L1060.20,398.85L1071.54,392.42L1082.41,382.20L1091.30,368.14L1097.85,350.93L1102.89,331.94L1107.92,312.95L1114.46,295.74L1123.34,281.69L1134.18,271.48L1145.49,265.06L1155.11,261.90L1160.94,261.31L1161.70,262.82L1157.38,266.45L1149.28,272.65L1139.48,282.11L1130.15,295.36L1122.79,312.44L1117.76,332.68L1114.24,354.71L1110.72,376.74L1105.68,396.98L1104.81,399.00M1119.10,399.00L1119.94,396.77L1124.87,377.83L1129.81,358.88L1136.26,341.73L1145.04,327.72L1155.78,317.55L1167.00,311.18L1176.52,308.06L1182.25,307.51L1182.91,309.08L1178.50,312.75L1170.30,318.99L1160.40,328.49L1150.98,341.79L1143.52,358.92L1138.39,379.20L1135.15,399.00M1151.41,399.00L1155.12,388.98L1163.80,375.02L1174.45,364.89L1185.57,358.56L1194.99,355.48L1199.00,355.11M1199.00,358.36L1196.67,360.28L1188.37,366.56L1178.37,376.10L1168.85,389.43L1164.63,399.00" />
<path d="M0.32,0.00L0.00,1.10M0.00,63.99L1.95,60.97L10.71,40.17L17.89,17.35L23.36,0.00M43.07,0.00L41.57,8.03L37.54,29.60L31.94,49.16L23.95,65.17L13.99,76.90L3.69,84.48L0.00,86.30M0.00,86.93L0.18,86.87L11.67,81.62L25.17,72.90L38.32,60.02L49.51,42.87L58.30,22.17L65.35,0.00M88.20,0.00L85.75,13.30L80.18,32.96L72.22,49.07L62.29,60.91L52.03,68.58L43.77,72.79L39.76,74.38L41.39,73.91L48.66,71.38L60.18,66.23L73.70,57.62L86.89,44.84L98.11,27.79L106.94,7.19L109.24,0.00M134.89,0.00L134.88,0.07L129.34,19.83L121.41,36.04L111.51,47.98L101.27,55.76L93.03,60.07L89.06,61.76L90.72,61.39L98.00,58.96L109.55,53.92L123.10,45.41L136.31,32.74L147.56,15.79L154.38,0.00M181.95,0.00L179.23,9.80L171.32,26.12L161.44,38.17L151.22,46.05L143.01,50.46L139.05,52.26L140.73,52.00L148.03,49.67L159.60,44.73L173.17,36.33L186.40,23.76L197.66,6.92L200.67,0.00M230.46,0.00L229.65,2.93L221.75,19.36L211.89,31.51L201.68,39.49L193.48,44.01L189.54,45.92L191.23,45.76L198.55,43.54L210.13,38.71L223.71,30.41L236.95,17.95L248.23,1.21L248.76,0.00M280.04,0.00L272.51,15.77L262.65,28.03L252.45,36.12L244.26,40.75L240.33,42.76L242.02,42.71L249.35,40.60L260.93,35.87L274.52,27.68L287.77,15.32L298.16,0.00M330.69,0.00L323.39,15.38L313.54,27.74L303.34,35.94L295.15,40.68L291.21,42.79L292.91,42.85L300.23,40.85L311.82,36.22L325.41,28.14L338.65,15.89L349.50,0.00M382.49,0.00L382.09,1.44L374.20,18.19L364.34,30.65L354.14,38.96L345.94,43.80L341.99,46.02L343.68,46.18L351.00,44.29L362.58,39.77L376.16,31.79L389.40,19.65L400.67,3.23L402.11,0.00M434.62,0.00L432.64,7.33L424.73,24.18L414.86,36.75L404.64,45.16L396.43,50.11L392.47,52.43L394.15,52.70L401.45,50.91L413.02,46.50L426.58,38.63L439.81,26.59L451.06,10.28L455.65,0.00M487.13,0.00L482.71,16.37L474.79,33.33L464.89,46.01L454.66,54.52L446.43,59.57L442.45,62.00L444.11,62.38L451.39,60.69L462.93,56.39L476.48,48.62L489.68,36.68L500.92,20.48L509.76,0.72L510.00,0.00M539.08,0.00L537.68,7.94L532.12,28.55L524.17,45.60L514.25,58.39L503.99,67.01L495.73,72.16L491.73,74.69L493.36,75.17L500.62,73.59L512.13,69.39L525.65,61.72L538.83,49.89L550.03,33.78L558.85,14.13L563.57,0.00M590.34,0.00L590.27,0.36L586.26,23.09L580.67,43.80L572.69,60.96L562.73,73.84L552.44,82.56L544.15,87.82L540.11,90.45L541.71,91.03L548.93,89.55L560.41,85.45L573.90,77.88L587.04,66.15L598.21,50.15L607.00,30.60L614.20,9.02L617.21,0.00M641.11,0.00L637.84,18.43L633.79,41.26L628.16,62.07L620.14,79.32L610.15,92.31L599.82,101.13L591.49,106.48L587.41,109.22L588.97,109.89L596.15,108.51L607.59,104.51L621.04,97.04L634.14,85.41L645.27,69.51L654.01,50.05L661.18,28.58L668.34,7.11L671.53,0.00M692.76,0.00L688.27,16.53L684.18,39.45L680.09,62.38L674.41,83.28L666.35,100.64L656.31,113.72L645.93,122.63L637.56,128.08L633.44,130.91L634.95,131.69L642.09,130.40L653.48,126.50L666.88,119.12L679.94,107.59L691.02,91.78L699.72,72.42L706.83,51.05L713.95,29.67L722.64,10.32L729.87,0.00M748.54,0.00L747.08,1.91L738.97,19.34L733.25,40.33L729.11,63.34L724.97,86.36L719.24,107.36L711.13,124.81L701.04,137.98L690.61,146.99L682.18,152.54L678.01,155.46L679.47,156.33L686.56,155.13L697.90,151.32L711.25,144.04L724.25,132.60L735.29,116.88L743.93,97.62L750.99,76.33L758.05,55.05L766.69,35.80L777.71,20.09L790.70,8.67L804.03,1.42L808.29,0.00M820.18,0.00L819.65,0.38L811.18,5.98L800.72,15.05L790.59,28.30L782.42,45.82L776.65,66.90L772.45,90.01L768.25,113.11L762.47,134.20L754.30,151.74L744.15,165.01L733.67,174.11L725.19,179.74L720.96,182.76L722.36,183.71L729.39,182.61L740.68,178.89L753.96,171.70L766.91,160.35L777.89,144.72L786.47,125.54L793.47,104.35L800.47,83.15L809.05,63.99L820.01,48.37L832.95,37.04L846.22,29.88L857.48,26.19L864.48,25.12L865.85,26.12L861.59,29.19L853.07,34.88L842.54,44.04L832.35,57.37L824.13,74.98L818.29,96.15L814.03,119.34L809.77,142.53L803.93,163.71L795.69,181.33L785.49,194.68L774.94,203.87L766.39,209.59L762.10,212.69L763.44,213.74L770.41,212.72L781.63,209.08L794.86,201.98L807.74,190.71L818.65,175.17L827.17,156.08L834.11,134.97L841.05,113.86L849.56,94.78L860.46,79.25L873.33,68.00L886.53,60.93L897.73,57.32L904.67,56.34L905.97,57.42L901.65,60.57L893.06,66.34L882.46,75.59L872.21,89.00L863.92,106.70L858.02,127.95L853.69,151.22L849.36,174.50L843.45,195.76L835.15,213.47L824.88,226.90L814.26,236.17L805.65,241.97L801.29,245.16L802.56,246.28L809.46,245.35L820.61,241.79L833.77,234.77L846.59,223.58L857.43,208.12L865.88,189.11L872.75,168.08L879.61,147.06L888.06,128.06L898.89,112.61L911.68,101.44L924.82,94.44L935.95,90.92L942.81,90.02L944.05,91.18L939.65,94.41L930.99,100.26L920.33,109.59L910.00,123.08L901.64,140.85L895.66,162.18L891.27,185.54L886.86,208.89L880.88,230.23L872.51,248.02L862.16,261.53L851.48,270.87L842.79,276.76L838.36,280.02L839.56,281.22L846.38,280.36L857.46,276.88L870.55,269.94L883.29,258.83L894.06,243.45L902.43,224.51L909.23,203.56L916.02,182.61L924.39,163.68L935.14,148.31L947.87,137.22L960.92,130.30L971.98,126.85L978.77,126.02L979.93,127.26L975.46,130.56L966.72,136.49L955.98,145.89L945.57,159.46L937.14,177.31L931.09,198.71L926.61,222.14L922.14,245.57L916.08,266.98L907.63,284.84L897.20,298.43L886.44,307.85L877.68,313.80L873.17,317.14L874.29,318.41L881.03,317.62L892.04,314.22L905.04,307.35L917.70,296.31L928.39,281.00L936.69,262.14L943.41,241.26L950.12,220.38L958.41,201.52L969.09,186.22L981.73,175.20L994.71,168.35L1005.68,164.97L1012.40,164.22L1013.47,165.52L1008.92,168.90L1000.10,174.90L989.28,184.37L978.80,198.00L970.28,215.92L964.15,237.39L959.59,260.89L955.03,284.39L948.89,305.87L940.36,323.80L929.86,337.45L919.01,346.94L910.17,352.96L905.58,356.37L906.61,357.71L913.28,356.99L924.20,353.65L937.12,346.85L949.70,335.88L960.31,320.63L968.52,301.84L975.15,281.02L981.78,260.21L989.99,241.42L1000.58,226.19L1013.14,215.23L1026.04,208.45L1036.93,205.13L1043.56,204.44L1044.55,205.82L1039.91,209.26L1031.01,215.32L1020.10,224.85L1009.53,238.56L1000.93,256.54L994.72,278.08L990.07,301.64L985.43,325.20L979.21,346.74L970.59,364.73L960.00,378.45L949.07,388.00L940.13,394.09L935.46,397.55L936.41,398.96L942.99,398.30L953.82,395.03L966.66,388.28L979.15,377.38L989.67,362.19L997.79,343.46L1004.34,322.71L1010.88,301.96L1019.00,283.23L1029.51,268.05L1041.98,257.16L1054.79,250.43L1065.59,247.18L1072.13,246.55L1073.03,247.98L1068.31,251.48L1059.32,257.60L1048.32,267.20L1037.66,280.96L1028.97,299.00L1022.67,320.60L1017.94,344.22L1013.20,367.84L1006.89,389.44L1002.28,399.00M1019.16,399.00L1024.40,386.84L1030.85,366.14L1037.30,345.44L1045.33,326.77L1055.74,311.65L1068.12,300.81L1080.84,294.14L1091.55,290.94L1098.00,290.37L1098.81,291.86L1094.00,295.41L1084.91,301.58L1073.83,311.23L1063.08,325.05L1054.29,343.14L1047.90,364.79L1043.07,388.46L1040.92,399.00M1058.33,399.00L1060.94,390.51L1068.87,371.88L1079.19,356.81L1091.48,346.02L1104.10,339.40L1114.72,336.25L1121.07,335.72L1121.79,337.26L1116.88,340.86L1107.70,347.08L1096.52,356.78L1085.67,370.64L1076.79,388.78L1073.73,399.00M1104.70,399.00L1111.95,392.61L1124.47,386.03L1134.99,382.92L1141.25,382.44L1141.87,384.02L1136.86,387.66L1127.58,393.92L1121.70,399.00" />
<path d="M0.00,9.97L5.71,1.86L7.74,0.00M18.13,0.00L10.49,13.55L3.36,34.44L0.00,48.54M0.00,99.92L2.91,95.81L13.26,73.84L22.00,49.61L30.74,25.39L41.09,3.43L43.53,0.00M58.35,0.00L51.89,19.12L46.40,42.39L40.91,65.65L33.81,86.66L24.30,103.72L12.85,116.05L1.24,123.87L0.00,124.43M0.00,125.50L9.44,121.72L24.34,113.04L39.06,99.84L51.86,81.92L62.24,60.06L71.01,35.93L79.78,11.81L85.39,0.00M103.58,0.00L101.28,6.88L95.81,30.25L90.35,53.62L83.28,74.73L73.79,91.89L62.37,104.33L50.78,112.25L41.52,116.52L37.00,118.15L38.66,117.83L46.52,115.54L59.10,110.62L74.02,102.04L88.77,88.95L101.59,71.14L111.99,49.37L120.78,25.35L129.58,1.33L130.21,0.00M150.82,0.00L145.89,21.24L140.45,44.71L133.40,65.93L123.92,83.19L112.52,95.74L100.95,103.77L91.72,108.14L87.21,109.88L88.89,109.66L96.76,107.47L109.36,102.66L124.30,94.19L139.06,81.20L151.90,63.49L162.31,41.83L171.12,17.92L177.72,0.00M199.99,0.00L196.44,15.39L191.01,38.97L183.97,60.29L174.51,77.66L163.12,90.31L151.56,98.45L142.33,102.93L137.84,104.77L139.53,104.66L147.41,102.58L160.02,97.87L174.97,89.51L189.74,76.62L202.59,59.02L213.01,37.47L221.83,13.66L226.89,0.00M250.17,0.00L247.26,12.73L241.83,36.41L234.79,57.84L225.34,75.32L213.96,88.08L202.40,96.32L193.18,100.90L188.69,102.85L190.38,102.84L198.27,100.87L210.88,96.27L225.83,88.01L240.61,75.24L253.45,57.74L263.88,36.30L272.70,12.59L277.39,0.00M301.17,0.00L298.14,13.26L292.71,37.05L285.67,58.59L276.22,76.17L264.83,89.04L253.28,97.38L244.05,102.07L239.55,104.13L241.25,104.23L249.13,102.37L261.74,97.87L276.69,89.72L291.46,77.05L304.30,59.66L314.73,38.32L323.54,14.72L329.04,0.00M352.75,0.00L348.89,16.99L343.45,40.88L336.41,62.53L326.94,80.22L315.55,93.19L303.98,101.64L294.75,106.44L290.24,108.60L291.93,108.81L299.80,107.05L312.40,102.66L327.34,94.61L342.10,82.05L354.93,64.77L365.35,43.53L374.15,20.04L381.66,0.00M404.73,0.00L399.30,23.89L393.85,47.90L386.79,69.64L377.31,87.44L365.90,100.52L354.32,109.07L345.07,113.98L340.55,116.25L342.22,116.56L350.08,114.90L362.66,110.62L377.58,102.68L392.32,90.22L405.14,73.04L415.54,51.92L424.32,28.53L433.11,5.15L435.64,0.00M457.85,0.00L454.66,9.84L449.19,33.95L443.71,58.06L436.63,79.91L427.13,97.81L415.70,110.99L404.10,119.65L394.82,124.66L390.28,127.03L391.93,127.45L399.76,125.90L412.32,121.72L427.22,113.88L441.94,101.53L454.73,84.46L465.10,63.43L473.86,40.15L482.63,16.87L490.95,0.00M511.45,0.00L510.94,0.97L503.84,22.91L498.34,47.12L492.84,71.33L485.73,93.29L476.20,111.29L464.74,124.57L453.11,133.34L443.81,138.45L439.23,140.92L440.85,141.44L448.65,139.99L461.19,135.92L476.05,128.18L490.74,115.93L503.50,98.96L513.85,78.04L522.58,54.86L531.31,31.68L541.65,10.77L549.75,0.00M568.22,0.00L559.24,16.99L552.10,39.04L546.56,63.35L541.03,87.66L533.89,109.72L524.32,127.82L512.83,141.21L501.16,150.07L491.82,155.28L487.22,157.86L488.80,158.48L496.57,157.13L509.06,153.15L523.89,145.52L538.55,133.37L551.27,116.50L561.58,95.67L570.27,72.59L578.97,49.52L589.27,28.70L601.99,11.85L616.29,0.00M633.28,0.00L627.55,4.38L616.03,17.84L606.43,36.02L599.25,58.17L593.68,82.58L588.10,106.99L580.92,129.14L571.31,147.34L559.78,160.83L548.07,169.79L538.69,175.10L534.04,177.77L535.58,178.49L543.31,177.24L555.76,173.36L570.55,165.83L585.16,153.77L597.84,137.00L608.11,116.27L616.76,93.29L625.41,70.31L635.67,49.59L648.34,32.84L662.94,20.80L677.71,13.30L690.15,9.45L697.86,8.25L699.37,9.01L694.70,11.74L685.29,17.11L673.55,26.14L661.98,39.70L652.34,57.98L645.11,80.22L639.49,104.72L633.87,129.23L626.64,151.48L616.99,169.78L605.40,183.36L593.65,192.42L584.22,197.82L579.53,200.59L581.02,201.40L588.70,200.25L601.10,196.46L615.84,189.02L630.40,177.06L643.04,160.38L653.25,139.75L661.85,116.86L670.45,93.98L680.66,73.36L693.29,56.69L707.84,44.76L722.56,37.34L734.95,33.59L742.60,32.48L744.07,33.34L739.34,36.16L729.88,41.62L718.09,50.75L706.47,64.40L696.77,82.77L689.49,105.11L683.82,129.70L678.15,154.30L670.87,176.65L661.16,195.04L649.53,208.71L637.72,217.86L628.24,223.35L623.49,226.22L624.93,227.12L632.55,226.06L644.90,222.37L659.59,215.02L674.10,203.15L686.67,186.56L696.83,166.02L705.38,143.22L713.92,120.43L724.08,99.90L736.65,83.33L751.14,71.48L765.81,64.16L778.14,60.50L785.74,59.48L787.15,60.42L782.36,63.34L772.85,68.89L761.00,78.10L749.32,91.84L739.57,110.31L732.23,132.73L726.50,157.42L720.77,182.11L713.43,204.54L703.66,223.02L691.97,236.78L680.10,246.02L670.56,251.60L665.75,254.55L667.13,255.54L674.70,254.57L686.99,250.97L701.61,243.71L716.06,231.93L728.58,215.43L738.68,194.98L747.16,172.27L755.65,149.56L765.74,129.12L778.25,112.63L792.68,100.87L807.28,93.63L819.55,90.06L827.09,89.13L828.44,90.16L823.59,93.16L814.01,98.80L802.10,108.10L790.36,121.93L780.54,140.48L773.14,162.98L767.35,187.76L761.56,212.53L754.15,235.05L744.32,253.61L732.56,267.46L720.63,276.78L711.03,282.45L706.16,285.49L707.47,286.56L714.97,285.68L727.20,282.16L741.75,274.98L756.14,263.28L768.59,246.87L778.62,226.50L787.04,203.87L795.46,181.25L805.49,160.89L817.93,144.49L832.29,132.81L846.83,125.66L859.03,122.17L866.50,121.32L867.78,122.43L862.87,125.51L853.22,131.23L841.24,140.62L829.43,154.52L819.55,173.16L812.08,195.75L806.22,220.60L800.35,245.46L792.88,268.06L782.98,286.70L771.15,300.63L759.15,310.03L749.48,315.78L744.54,318.90L745.78,320.06L753.21,319.25L765.37,315.81L779.85,308.71L794.17,297.09L806.55,280.76L816.51,260.47L824.86,237.92L833.20,215.38L843.16,195.10L855.53,178.77L869.82,167.17L884.29,160.10L896.42,156.69L903.81,155.92L905.02,157.11L900.03,160.27L890.32,166.07L878.26,175.53L866.38,189.51L856.42,208.22L848.88,230.89L842.94,255.82L837.01,280.75L829.46,303.43L819.49,322.15L807.58,336.15L795.51,345.64L785.76,351.46L780.74,354.65L781.91,355.89L789.27,355.15L801.35,351.79L815.76,344.77L830.00,333.23L842.30,316.97L852.19,296.75L860.46,274.28L868.73,251.81L878.61,231.60L890.90,215.35L905.12,203.83L919.51,196.83L931.56,193.49L938.88,192.79L940.01,194.06L934.95,197.29L925.15,203.16L913.02,212.69L901.06,226.75L891.02,245.53L883.40,268.27L877.39,293.28L871.37,318.28L863.74,341.03L853.69,359.82L841.71,373.90L829.56,383.45L819.73,389.35L814.63,392.61L815.72,393.91L823.00,393.25L835.00,389.96L849.33,383.01L863.49,371.54L875.71,355.35L885.52,335.20L893.71,312.80L901.90,290.40L911.70,270.26L923.91,254.08L938.05,242.63L952.35,235.69L964.32,232.42L971.56,231.79L972.61,233.13L967.46,236.43L957.59,242.37L945.37,251.97L933.33,266.10L923.21,284.95L915.51,307.75L909.41,332.82L903.31,357.90L895.60,380.71L885.77,399.00M904.20,399.00L906.65,395.75L916.37,375.67L924.47,353.33L932.58,330.99L942.29,310.92L954.42,294.81L968.47,283.41L982.69,276.55L994.58,273.34L1001.73,272.77L1002.69,274.17L997.46,277.53L987.49,283.54L975.20,293.20L963.06,307.39L952.86,326.30L945.07,349.17L938.89,374.30L932.81,399.00M951.45,399.00L952.63,395.71L960.65,373.44L970.27,353.42L982.31,337.37L996.27,326.03L1010.40,319.22L1022.20,316.07L1029.26,315.56L1030.14,317.02L1024.81,320.44L1014.76,326.50L1002.37,336.22L990.15,350.47L979.86,369.43L971.97,392.36L970.32,399.00M994.86,399.00L995.53,397.60L1007.48,381.59L1021.35,370.31L1035.38,363.55L1047.09,360.46L1054.06,360.00L1054.84,361.51L1049.42,364.98L1039.27,371.09L1026.79,380.86L1014.48,395.16L1012.38,399.00" />
<path d="M0.00,18.01L8.23,14.98L16.57,12.62L18.18,12.07L13.05,13.35L2.72,17.24L0.00,18.86M0.00,41.16L10.77,27.18L27.05,13.61L43.30,4.91L56.87,0.04L57.01,0.00M58.46,0.00L51.49,2.70L38.51,10.52L25.51,23.20L14.36,41.04L5.63,63.25L0.00,82.79M0.00,131.67L0.82,130.61L12.86,107.61L23.27,82.11L33.69,56.62L45.73,33.63L60.18,15.01L76.48,1.54L79.40,0.00M87.28,0.00L75.14,11.96L64.02,29.91L55.30,52.22L48.21,77.04L41.12,101.86L32.41,124.18L21.28,142.15L8.31,154.96L0.00,160.06M0.00,162.77L3.73,161.48L20.02,152.95L36.33,139.57L50.80,121.04L62.86,98.14L73.29,72.75L83.73,47.36L95.79,24.48L110.26,5.96L117.54,0.00M129.26,0.00L125.38,3.86L114.27,21.91L105.57,44.33L98.50,69.25L91.42,94.18L82.72,116.61L71.62,134.68L58.66,147.59L45.73,155.65L35.48,159.89L30.43,161.52L32.12,161.34L40.54,159.35L54.17,154.75L70.47,146.33L86.80,133.05L101.28,114.62L113.35,91.84L123.80,66.55L134.25,41.27L146.32,18.49L160.80,0.08L160.89,0.00M175.37,0.00L164.93,17.09L156.24,39.61L149.17,64.64L142.11,89.67L133.42,112.21L122.32,130.38L109.37,143.40L96.46,151.57L86.21,155.91L81.17,157.65L82.86,157.58L91.30,155.69L104.93,151.20L121.24,142.89L137.57,129.72L152.06,111.39L164.14,88.71L174.59,63.53L185.05,38.35L197.13,15.68L209.54,0.00M225.17,0.00L215.79,15.46L207.10,38.08L200.04,63.22L192.98,88.36L184.29,111.00L173.20,129.28L160.25,142.41L147.33,150.68L137.09,155.13L132.05,156.98L133.75,157.01L142.18,155.23L155.81,150.84L172.12,142.64L188.46,129.58L202.95,111.36L215.02,88.78L225.48,63.71L235.93,38.64L248.01,16.07L260.80,0.00M276.93,0.00L266.65,17.02L257.96,39.75L250.89,65.00L243.83,90.24L235.14,112.99L224.04,131.38L211.09,144.61L198.17,152.99L187.92,157.55L182.87,159.50L184.56,159.64L192.99,157.96L206.62,153.68L222.92,145.59L239.25,132.63L253.73,114.52L265.81,92.05L276.25,67.08L286.70,42.12L298.77,19.66L313.25,1.57L315.22,0.00M331.62,0.00L328.42,3.29L317.31,21.77L308.61,44.61L301.53,69.96L294.46,95.31L285.76,118.17L274.65,136.66L261.69,150.00L248.75,158.48L238.49,163.15L233.44,165.21L235.12,165.45L243.53,163.88L257.15,159.71L273.44,151.72L289.76,138.87L304.22,120.86L316.28,98.50L326.71,73.63L337.15,48.78L349.20,26.42L363.67,8.44L374.40,0.00M389.44,0.00L378.70,11.11L367.57,29.70L358.86,52.64L351.77,78.10L344.67,103.55L335.95,126.51L324.83,145.11L311.85,158.56L298.90,167.14L288.62,171.91L283.54,174.08L285.20,174.43L293.60,172.96L307.20,168.89L323.47,161.01L339.77,148.26L354.21,130.36L366.25,108.10L376.66,83.34L387.08,58.59L399.11,36.34L413.56,18.46L429.85,5.74L441.73,0.00M454.19,0.00L441.39,8.55L428.39,22.07L417.24,40.76L408.50,63.81L401.39,89.37L394.27,114.93L385.53,137.99L374.38,156.70L361.37,170.25L348.40,178.94L338.09,183.81L332.99,186.08L334.63,186.53L343.00,185.17L356.57,181.20L372.82,173.42L389.09,160.78L403.51,142.98L415.52,120.83L425.91,96.17L436.29,71.52L448.30,49.38L462.72,31.59L478.98,18.98L495.22,11.22L508.78,7.30L517.14,5.98L518.76,6.48L513.64,8.81L503.32,13.75L490.32,22.51L477.29,36.14L466.12,54.92L457.35,78.08L450.20,103.74L443.05,129.40L434.28,152.56L423.10,171.37L410.06,185.02L397.06,193.81L386.73,198.79L381.59,201.16L383.20,201.71L391.53,200.45L405.07,196.59L421.29,188.91L437.53,176.37L451.92,158.67L463.89,136.62L474.25,112.06L484.60,87.51L496.57,65.47L510.96,47.79L527.19,35.27L543.39,27.62L556.92,23.79L565.24,22.58L566.82,23.18L561.67,25.61L551.31,30.65L538.28,39.51L525.22,53.24L514.01,72.13L505.20,95.38L498.02,121.14L490.83,146.90L482.03,170.17L470.81,189.07L457.73,202.83L444.69,211.72L434.32,216.79L429.15,219.26L430.71,219.92L439.01,218.76L452.52,214.99L468.69,207.41L484.89,194.97L499.24,177.37L511.18,155.42L521.49,130.96L531.81,106.51L543.74,84.57L558.08,66.99L574.27,54.57L590.44,47.01L603.92,43.28L612.20,42.17L613.75,42.87L608.55,45.39L598.15,50.53L585.08,59.49L571.98,73.32L560.72,92.30L551.87,115.66L544.65,141.51L537.42,167.37L528.57,190.74L517.31,209.74L504.19,223.59L491.10,232.58L480.69,237.75L475.48,240.32L477.00,241.07L485.25,240.00L498.71,236.33L514.84,228.85L530.99,216.50L545.30,199.00L557.19,177.15L567.46,152.79L577.73,128.43L589.61,106.58L603.91,89.10L620.06,76.78L636.17,69.32L649.61,65.69L657.84,64.66L659.34,65.46L654.10,68.08L643.65,73.32L630.53,82.37L617.38,96.29L606.08,115.37L597.18,138.82L589.91,164.77L582.63,190.73L573.73,214.18L562.42,233.28L549.25,247.23L536.12,256.31L525.65,261.57L520.39,264.24L521.86,265.08L530.06,264.11L543.47,260.54L559.55,253.15L575.65,240.89L589.91,223.49L601.75,201.72L611.97,177.46L622.18,153.20L634.02,131.44L648.26,114.05L664.35,101.82L680.42,94.46L693.80,90.91L701.98,89.98L703.43,90.87L698.13,93.59L687.63,98.91L674.46,108.06L661.25,122.07L649.89,141.25L640.94,164.78L633.61,190.83L626.28,216.88L617.33,240.42L605.96,259.61L592.74,273.65L579.55,282.82L569.03,288.18L563.71,290.93L565.12,291.87L573.27,290.99L586.62,287.50L602.64,280.20L618.69,268.04L632.89,250.72L644.67,229.05L654.83,204.87L664.99,180.70L676.77,159.04L690.96,141.73L706.99,129.59L722.99,122.32L736.32,118.87L744.44,118.02L745.83,119.00L740.48,121.81L729.92,127.22L716.68,136.45L703.42,150.56L692.00,169.82L682.99,193.45L675.60,219.58L668.21,245.71L659.19,269.35L647.77,288.62L634.49,302.75L621.23,312.01L610.65,317.45L605.27,320.29L606.62,321.31L614.71,320.52L628.00,317.12L643.96,309.91L659.94,297.83L674.08,280.60L685.80,259.02L695.90,234.93L705.99,210.84L717.71,189.26L731.83,172.04L747.80,159.99L763.74,152.80L777.00,149.43L785.06,148.68L786.38,149.74L780.96,152.63L770.34,158.13L757.04,167.45L743.71,181.63L732.23,200.98L723.15,224.69L715.70,250.91L708.24,277.12L699.16,300.84L687.67,320.20L674.32,334.41L661.00,343.75L650.35,349.28L644.90,352.20L646.19,353.31L654.21,352.60L667.43,349.28L683.32,342.15L699.24,330.16L713.31,313.01L724.96,291.51L734.99,267.50L745.02,243.49L756.66,222.00L770.72,204.86L786.62,192.89L802.49,185.78L815.69,182.49L823.67,181.82L824.93,182.96L819.44,185.93L808.74,191.51L795.38,200.91L781.97,215.18L770.42,234.60L761.28,258.39L753.75,284.69L746.22,310.99L737.07,334.79L725.51,354.23L712.09,368.51L698.70,377.93L687.98,383.54L682.46,386.54L683.67,387.73L691.62,387.10L704.77,383.86L720.59,376.80L736.43,364.89L750.43,347.82L762.01,326.39L771.96,302.46L781.92,278.53L793.49,257.11L807.47,240.06L823.30,228.16L839.10,221.13L852.22,217.92L860.13,217.32L861.31,218.54L855.74,221.59L844.98,227.24L831.53,236.72L818.06,251.06L806.43,270.56L797.21,294.43L789.61,320.80L782.00,347.17L772.78,371.04L761.13,390.56L753.20,399.00M773.73,399.00L785.29,384.89L796.79,363.53L806.67,339.68L816.54,315.82L828.04,294.47L841.94,277.49L857.69,265.66L873.41,258.70L886.45,255.57L894.28,255.04L895.38,256.33L889.74,259.45L878.89,265.17L865.37,274.72L851.81,289.13L840.11,308.71L830.81,332.64L823.12,359.08L815.44,385.53L810.20,399.00M830.73,399.00L838.97,379.00L848.76,355.21L860.17,333.93L873.99,317.01L889.66,305.25L905.29,298.36L918.25,295.29L926.00,294.83L927.02,296.19L921.29,299.37L910.36,305.16L896.75,314.77L883.11,329.25L871.32,348.89L861.94,372.89L854.29,399.00M877.43,399.00L878.44,396.54L889.76,375.33L903.50,358.47L919.08,346.77L934.62,339.94L947.50,336.93L955.16,336.53L956.09,337.95L950.27,341.20L939.26,347.05L925.56,356.72L911.83,371.26L899.95,390.96L896.79,399.00M933.93,399.00L945.83,390.06L961.29,383.28L974.07,380.33L981.64,379.98L982.48,381.46L976.57,384.76L965.46,390.66L953.65,399.00" />
<path d="M0.00,41.38L13.99,36.99L22.91,34.96L24.56,34.56L18.94,35.78L7.65,39.55L0.00,43.68M0.00,69.02L13.61,52.84L31.51,39.23L49.14,30.81L63.75,26.34L72.69,24.41L74.36,24.12L68.76,25.45L57.49,29.32L43.20,37.15L28.64,50.17L15.82,68.77L5.37,92.15L0.00,108.03M0.00,157.67L9.52,141.21L21.71,114.60L33.91,87.98L47.72,64.12L63.89,45.02L81.80,31.52L99.46,23.20L114.08,18.84L123.03,17.01L124.72,16.82L119.14,18.26L107.88,22.24L93.60,30.17L79.06,43.30L66.26,62.01L55.82,85.49L47.00,111.72L38.17,137.95L27.74,161.44L14.93,180.17L0.40,193.31L0.00,193.53M0.00,198.05L12.23,192.34L30.15,178.92L46.33,159.91L60.15,136.14L72.36,109.63L84.56,83.12L98.38,59.37L114.57,40.38L132.49,26.98L150.15,18.77L164.78,14.51L173.74,12.79L175.44,12.71L169.86,14.25L158.62,18.34L144.35,26.38L129.81,39.60L117.02,58.42L106.59,82.01L97.77,108.34L88.95,134.68L78.52,158.28L65.73,177.11L51.20,190.37L36.92,198.44L25.68,202.56L20.11,204.15L21.80,204.12L30.77,202.47L45.40,198.27L63.07,190.14L80.99,176.82L97.18,157.92L111.00,134.26L123.21,107.85L135.42,81.45L149.24,57.80L165.43,38.92L183.35,25.63L201.02,17.52L215.65,13.37L224.62,11.76L226.32,11.78L220.74,13.43L209.50,17.63L195.23,25.77L180.70,39.11L167.90,58.03L157.47,81.72L148.66,108.17L139.84,134.61L129.41,158.31L116.61,177.26L102.08,190.61L87.81,198.79L76.56,203.02L70.99,204.72L72.69,204.80L81.65,203.25L96.28,199.16L113.94,191.13L131.87,177.92L148.05,159.13L161.87,135.57L174.08,109.27L186.28,82.98L200.10,59.44L216.29,40.66L234.21,27.47L251.87,19.48L266.50,15.43L275.46,13.93L277.15,14.06L271.57,15.81L260.32,20.11L246.05,28.36L231.51,41.81L218.71,60.84L208.27,84.64L199.45,111.18L190.63,137.73L180.19,161.54L167.39,180.59L152.85,194.06L138.57,202.34L127.32,206.68L121.74,208.48L123.42,208.66L132.38,207.22L147.00,203.24L164.66,195.32L182.57,182.21L198.75,163.53L212.56,140.08L224.75,113.89L236.95,87.70L250.76,64.26L266.93,45.59L284.84,32.51L302.49,24.62L317.11,20.68L326.06,19.28L327.74,19.52L322.15,21.38L310.89,25.78L296.60,34.14L282.06,47.69L269.24,66.83L258.79,90.73L249.96,117.38L241.12,144.04L230.67,167.96L217.85,187.11L203.30,200.68L189.01,209.07L177.74,213.52L172.15,215.42L173.82,215.71L182.76,214.37L197.37,210.50L215.01,202.68L232.90,189.68L249.07,171.10L262.86,147.76L275.04,121.67L287.22,95.59L301.01,72.26L317.17,53.69L335.06,40.72L352.69,32.93L367.30,29.10L376.23,27.80L377.89,28.14L372.28,30.11L361.01,34.62L346.70,43.08L332.13,56.73L319.30,75.98L308.83,99.99L299.97,126.74L291.12,153.51L280.65,177.53L267.81,196.79L253.24,210.46L238.92,218.96L227.64,223.50L222.02,225.52L223.67,225.91L232.59,224.68L247.18,220.91L264.80,213.19L282.67,200.30L298.81,181.82L312.58,158.58L324.74,132.60L336.89,106.62L350.66,83.39L366.80,64.93L384.67,52.06L402.27,44.38L416.85,40.65L425.76,39.46L427.40,39.90L421.77,41.97L410.46,46.59L396.13,55.15L381.54,68.91L368.68,88.25L358.19,112.37L349.30,139.23L340.42,166.09L329.93,190.21L317.06,209.58L302.46,223.36L288.12,231.95L276.81,236.61L271.16,238.72L272.79,239.22L281.68,238.09L296.24,234.42L313.83,226.81L331.67,214.02L347.78,195.64L361.52,172.50L373.65,146.62L385.78,120.75L399.52,97.62L415.62,79.26L433.46,66.49L451.04,58.91L465.59,55.29L474.46,54.20L476.07,54.74L470.41,56.92L459.07,61.63L444.71,70.30L430.08,84.16L417.19,103.61L406.67,127.82L397.75,154.78L388.84,181.75L378.31,205.97L365.41,225.44L350.78,239.32L336.41,248.02L325.06,252.77L319.38,254.99L320.97,255.58L329.83,254.55L344.35,250.99L361.90,243.48L379.71,230.78L395.79,212.51L409.50,189.47L421.59,163.69L433.68,137.92L447.38,114.89L463.45,96.63L481.25,83.96L498.79,76.48L513.31,72.96L522.15,71.97L523.72,72.61L518.01,74.89L506.64,79.70L492.24,88.47L477.58,102.43L464.65,121.97L454.08,146.29L445.13,173.35L436.18,200.41L425.61,224.74L412.67,244.30L398.00,258.28L383.59,267.08L372.20,271.93L366.48,274.25L368.03,274.94L376.84,274.01L391.33,270.54L408.84,263.13L426.61,250.54L442.64,232.36L456.31,209.42L468.36,183.74L480.41,158.06L494.07,135.14L510.10,116.97L527.85,104.40L545.35,97.02L559.82,93.59L568.62,92.70L570.14,93.44L564.40,95.81L552.98,100.72L538.54,109.59L523.83,123.64L510.86,143.29L500.25,167.70L491.25,194.85L482.25,222.02L471.64,246.44L458.65,266.10L443.94,280.17L429.48,289.06L418.04,294.01L412.28,296.42L413.78,297.21L422.55,296.38L436.99,293.01L454.45,285.69L472.17,273.19L488.16,255.11L501.78,232.27L513.78,206.68L525.78,181.10L539.39,158.27L555.37,140.20L573.08,127.72L590.53,120.44L604.95,117.10L613.70,116.31L615.17,117.14L609.38,119.61L597.91,124.61L583.42,133.57L568.66,147.72L555.63,167.46L544.97,191.96L535.93,219.21L526.88,246.47L516.21,270.98L503.18,290.73L488.41,304.90L473.89,313.89L462.41,318.93L456.59,321.44L458.04,322.32L466.76,321.57L481.14,318.30L498.55,311.07L516.22,298.67L532.16,280.68L545.72,257.93L557.67,232.43L569.61,206.94L583.17,184.20L599.10,166.23L616.75,153.84L634.15,146.64L648.51,143.40L657.20,142.70L658.62,143.62L652.77,146.18L641.25,151.28L626.70,160.33L611.89,174.56L598.81,194.39L588.09,218.99L578.98,246.33L569.88,273.67L559.16,298.28L546.07,318.12L531.24,332.38L516.67,341.45L505.12,346.59L499.25,349.18L500.64,350.15L509.30,349.50L523.62,346.31L540.98,339.17L558.59,326.86L574.46,308.95L587.97,286.29L599.85,260.89L611.74,235.49L625.24,212.83L641.10,194.95L658.70,182.65L676.03,175.54L690.34,172.38L698.97,171.77L700.33,172.78L694.42,175.42L682.83,180.61L668.22,189.74L653.34,204.07L640.20,223.99L629.42,248.67L620.26,276.09L611.09,303.53L600.30,328.22L587.15,348.14L572.26,362.49L557.62,371.65L546.02,376.87L540.08,379.55L541.41,380.60L550.00,380.04L564.26,376.93L581.55,369.88L599.10,357.65L614.91,339.83L628.35,317.25L640.17,291.94L651.99,266.62L665.43,244.05L681.22,226.25L698.75,214.03L716.02,207.01L730.26,203.93L738.82,203.40L740.12,204.50L734.14,207.23L722.49,212.49L707.81,221.71L692.87,236.12L679.66,256.12L668.81,280.88L659.58,308.39L650.34,335.91L639.49,360.68L626.27,380.69L611.31,395.12L605.13,399.00M625.98,399.00L637.59,390.93L653.33,373.19L666.70,350.69L678.46,325.45L690.21,300.22L703.57,277.73L719.30,260.00L736.76,247.87L753.96,240.92L768.12,237.93L776.62,237.48L777.84,238.65L771.79,241.46L760.07,246.81L745.31,256.10L730.30,270.59L717.02,290.67L706.10,315.51L696.79,343.10L687.48,370.69L676.56,395.54L674.27,399.00M695.46,399.00L702.89,386.47L714.56,361.31L726.24,336.15L739.53,313.73L755.18,296.08L772.56,284.03L789.68,277.16L803.77,274.24L812.19,273.86L813.34,275.11L807.21,277.99L795.42,283.41L780.59,292.78L765.49,307.34L752.13,327.49L741.14,352.41L731.76,380.07L725.33,399.00M748.51,399.00L759.94,374.27L773.15,351.93L788.72,334.35L806.03,322.36L823.07,315.56L837.08,312.71L845.42,312.40L846.48,313.72L840.27,316.67L828.40,322.16L813.48,331.60L798.31,346.23L784.87,366.45L773.79,391.43L771.21,399.00M800.28,399.00L804.31,392.16L819.80,374.64L837.02,362.72L853.98,355.98L867.90,353.20L876.15,352.95L877.13,354.34L870.84,357.35L858.88,362.91L843.88,372.41L828.62,387.10L820.69,399.00M880.43,399.00L882.28,398.27L896.12,395.54L904.28,395.36L905.17,396.80L900.61,399.00" />
<path d="M0.00,64.45L2.23,63.50L17.81,59.41L27.27,57.77L28.95,57.51L22.84,58.64L10.61,62.21L0.00,67.38M0.00,94.13L14.20,78.66L33.71,65.14L52.71,57.12L68.31,53.14L77.78,51.60L79.47,51.45L73.38,52.69L61.16,56.36L45.54,64.09L29.41,77.30L14.86,96.52L2.60,120.91L0.00,127.58M0.00,179.53L3.27,174.39L17.33,146.82L31.39,119.25L47.04,94.67L64.98,75.25L84.49,61.84L103.50,53.92L119.10,50.05L128.58,48.62L130.28,48.57L124.19,49.92L111.97,53.70L96.36,61.53L80.24,74.85L65.69,94.18L53.44,118.67L42.77,146.15L32.09,173.64L19.84,198.14L5.29,217.49L0.00,221.87M0.00,231.33L1.04,230.90L20.56,217.57L38.50,198.24L54.15,173.76L68.21,146.29L82.27,118.82L97.92,94.35L115.86,75.04L135.38,61.74L154.38,53.92L169.99,50.16L179.47,48.83L181.16,48.89L175.07,50.35L162.86,54.23L147.24,62.17L131.12,75.60L116.57,95.03L104.31,119.63L93.64,147.22L82.97,174.81L70.71,199.42L56.16,218.88L40.03,232.33L24.42,240.30L12.20,244.22L6.11,245.72L7.80,245.84L17.28,244.57L32.88,240.87L51.88,233.13L71.39,219.91L89.33,200.69L104.97,176.31L119.03,148.95L133.08,121.59L148.73,97.23L166.66,78.02L186.17,64.82L205.17,57.12L220.77,53.46L230.24,52.24L231.93,52.41L225.83,53.97L213.61,57.96L197.99,66.00L181.85,79.54L167.30,99.08L155.03,123.78L144.35,151.48L133.66,179.18L121.40,203.89L106.84,223.45L90.70,237.01L75.08,245.08L62.85,249.12L56.75,250.72L58.43,250.94L67.89,249.78L83.49,246.19L102.48,238.56L121.98,225.44L139.90,206.33L155.53,182.05L169.57,154.80L183.62,127.55L199.25,103.29L217.17,84.19L236.67,71.10L255.65,63.50L271.24,59.94L280.69,58.83L282.37,59.10L276.26,60.77L264.02,64.87L248.39,73.02L232.24,86.65L217.67,106.30L205.38,131.11L194.69,158.91L183.99,186.72L171.70,211.54L157.13,231.20L140.98,244.86L125.34,253.05L113.09,257.18L106.97,258.89L108.64,259.22L118.08,258.16L133.66,254.68L152.63,247.15L172.11,234.14L190.02,215.13L205.63,190.96L219.66,163.81L233.68,136.66L249.29,112.51L267.19,93.51L286.67,80.53L305.63,73.03L321.20,69.58L330.64,68.57L332.29,68.95L326.16,70.72L313.90,74.92L298.25,83.18L282.08,96.92L267.48,116.67L255.18,141.59L244.46,169.49L233.74,197.40L221.43,222.32L206.84,242.09L190.66,255.86L175.00,264.15L162.73,268.39L156.59,270.20L158.23,270.63L167.65,269.68L183.20,266.30L202.15,258.87L221.60,245.97L239.48,227.06L255.07,203.00L269.07,175.95L283.07,148.91L298.66,124.85L316.53,105.96L335.98,93.08L354.92,85.69L370.46,82.34L379.87,81.43L381.50,81.91L375.34,83.79L363.05,88.09L347.37,96.45L331.17,110.30L316.55,130.15L304.22,155.17L293.47,183.18L282.72,211.19L270.39,236.21L255.76,256.09L239.55,269.96L223.86,278.34L211.56,282.69L205.39,284.60L207.00,285.14L216.39,284.28L231.91,281.01L250.83,273.68L270.26,260.88L288.10,242.07L303.66,218.11L317.63,191.17L331.60,164.22L347.15,140.27L364.99,121.48L384.41,108.70L403.32,101.41L418.82,98.17L428.20,97.36L429.79,97.94L423.60,99.92L411.28,104.32L395.56,112.78L379.33,126.73L364.68,146.68L352.31,171.80L341.53,199.91L330.74,228.02L318.37,253.15L303.71,273.12L287.47,287.09L271.74,295.58L259.40,300.02L253.20,302.04L254.77,302.67L264.13,301.92L279.61,298.74L298.49,291.52L317.88,278.82L335.68,260.11L351.20,236.25L365.14,209.40L379.07,182.56L394.58,158.71L412.38,140.02L431.76,127.33L450.63,120.14L466.10,117.00L475.43,116.29L476.99,116.97L470.76,119.04L458.39,123.55L442.64,132.11L426.36,146.15L411.67,166.21L399.26,191.42L388.44,219.63L377.61,247.84L365.20,273.06L350.49,293.13L334.21,307.20L318.44,315.79L306.06,320.33L299.81,322.44L301.34,323.18L310.65,322.52L326.09,319.44L344.93,312.32L364.27,299.71L382.04,281.10L397.51,257.33L411.40,230.58L425.29,203.84L440.76,180.08L458.52,161.49L477.85,148.90L496.67,141.81L512.09,138.76L521.39,138.15L522.89,138.93L516.62,141.10L504.21,145.70L488.40,154.35L472.08,168.49L457.34,188.64L444.89,213.95L434.01,242.25L423.14,270.56L410.68,295.88L395.93,316.05L379.60,330.21L363.78,338.89L351.35,343.53L345.05,345.74L346.54,346.56L355.80,346.00L371.19,343.01L389.97,335.98L409.27,323.47L426.99,304.96L442.41,281.28L456.25,254.63L470.08,227.98L485.50,204.32L503.21,185.82L522.49,173.32L541.26,166.32L556.63,163.37L565.87,162.85L567.33,163.72L561.00,165.98L548.54,170.68L532.68,179.42L516.31,193.66L501.51,213.90L489.01,239.30L478.08,267.70L467.16,296.09L454.64,321.51L439.84,341.77L423.45,356.02L407.58,364.79L395.10,369.52L388.74,371.82L390.17,372.74L399.38,372.27L414.72,369.37L433.44,362.44L452.69,350.01L470.34,331.59L485.71,308.01L499.49,281.44L513.27,254.88L528.64,231.31L546.29,212.90L565.51,200.50L584.23,193.59L599.54,190.72L608.72,190.29L610.12,191.26L603.73,193.61L591.22,198.39L575.30,207.23L558.87,221.55L544.02,241.88L531.45,267.37L520.47,295.86L509.48,324.34L496.91,349.84L482.04,370.19L465.60,384.53L449.66,393.39L437.12,398.21L435.00,399.00M453.32,399.00L456.50,398.42L475.17,391.56L494.35,379.23L511.95,360.89L527.25,337.40L540.97,310.92L554.69,284.45L569.99,260.96L587.58,242.64L606.74,230.32L625.39,223.50L640.64,220.72L649.76,220.38L651.10,221.42L644.65,223.86L632.07,228.73L616.09,237.65L599.59,252.06L584.68,272.48L572.05,298.05L561.00,326.62L549.95,355.19L537.31,380.78L524.00,399.00M545.62,399.00L551.63,392.75L566.87,369.34L580.52,342.94L594.17,316.55L609.40,293.15L626.92,274.91L646.02,262.68L664.60,255.93L679.78,253.24L688.84,252.98L690.10,254.10L683.58,256.62L670.93,261.58L654.89,270.58L638.32,285.07L623.33,305.56L610.63,331.22L599.52,359.87L588.40,388.52L583.21,399.00M606.82,399.00L617.97,377.39L631.55,351.07L646.71,327.75L664.16,309.59L683.19,297.43L701.69,290.77L716.80,288.15L725.78,287.96L726.98,289.17L720.38,291.77L707.66,296.80L691.54,305.87L674.90,320.44L659.84,341.01L647.07,366.75L635.87,395.47L634.50,399.00M660.97,399.00L666.70,387.88L681.78,364.62L699.15,346.53L718.10,334.45L736.53,327.86L751.56,325.32L760.46,325.20L761.58,326.48L754.91,329.15L742.10,334.25L725.90,343.40L709.19,358.04L694.05,378.69L683.93,399.00M718.90,399.00L731.75,385.61L750.61,373.59L768.96,367.07L783.91,364.59L792.73,364.55L793.77,365.89L787.01,368.63L774.13,373.80L757.84,383.01L741.04,397.72L740.10,399.00" />
<path d="M0.00,86.76L3.12,85.59L19.67,82.09L29.63,80.87L31.33,80.76L24.75,81.76L11.59,85.04L0.00,90.11M0.00,116.95L12.54,104.43L33.65,91.15L53.97,83.64L70.52,80.24L80.49,79.13L82.19,79.12L75.61,80.23L62.45,83.62L45.53,91.13L27.81,104.40L11.48,124.09L0.00,144.57M0.00,196.53L10.15,178.54L26.16,150.18L43.70,125.04L63.42,105.46L84.53,92.29L104.84,84.88L121.39,81.59L131.35,80.58L133.05,80.69L126.47,81.90L113.31,85.40L96.38,93.01L78.66,106.39L62.33,126.18L48.17,151.53L35.55,180.09L22.93,208.67L8.77,234.02L0.00,244.66M0.00,259.98L7.64,255.24L27.35,235.75L44.89,210.70L60.89,182.45L76.89,154.19L94.42,129.16L114.13,109.68L135.23,96.61L155.53,89.31L172.07,86.13L182.03,85.23L183.71,85.44L177.12,86.76L163.95,90.36L147.01,98.08L129.28,111.57L112.94,131.47L98.77,156.92L86.14,185.59L73.50,214.27L59.34,239.73L42.99,259.64L25.25,273.16L8.31,280.91L0.00,283.20M0.00,285.35L0.16,285.34L16.69,282.22L36.99,274.99L58.07,262.01L77.77,242.62L95.29,217.68L111.28,189.53L127.26,161.38L144.78,136.45L164.47,117.08L185.56,104.12L205.85,96.92L222.37,93.84L232.31,93.05L233.97,93.37L227.37,94.79L214.18,98.50L197.23,106.32L179.48,119.91L163.12,139.92L148.93,165.47L136.28,194.25L123.63,223.04L109.44,248.60L93.08,268.62L75.32,282.24L58.36,290.09L45.17,293.84L38.55,295.31L40.21,295.68L50.14,294.94L66.64,291.93L86.92,284.81L107.98,271.92L127.66,252.64L145.16,227.81L161.12,199.76L177.09,171.71L194.58,146.89L214.25,127.62L235.32,114.77L255.58,107.68L272.08,104.70L282.00,104.01L283.64,104.43L277.01,105.96L263.80,109.77L246.82,117.70L229.05,131.40L212.66,151.50L198.46,177.16L185.78,206.04L173.10,234.93L158.89,260.60L142.50,280.72L124.72,294.44L107.73,302.40L94.52,306.25L87.87,307.83L89.50,308.30L99.40,307.66L115.88,304.75L136.13,297.74L157.17,284.96L176.82,265.77L194.29,241.05L210.23,213.10L226.16,185.16L243.63,160.44L263.27,141.27L284.31,128.52L304.54,121.53L321.01,118.66L330.90,118.07L332.52,118.59L325.86,120.22L312.62,124.14L295.61,132.17L277.80,145.97L261.39,166.18L247.15,191.94L234.44,220.92L221.73,249.91L207.49,275.68L191.07,295.91L173.26,309.73L156.24,317.79L142.99,321.74L136.31,323.41L137.91,323.99L147.78,323.46L164.22,320.65L184.44,313.73L205.44,301.05L225.06,281.97L242.50,257.34L258.40,229.50L274.30,201.66L291.73,177.04L311.34,157.98L332.34,145.32L352.54,138.43L368.97,135.66L378.83,135.18L380.41,135.80L373.71,137.53L360.43,141.54L343.39,149.67L325.55,163.57L309.09,183.88L294.82,209.74L282.07,238.83L269.33,267.91L255.05,293.78L238.59,314.11L220.74,328.03L203.68,336.19L190.39,340.24L183.67,342.01L185.23,342.69L195.06,342.25L211.47,339.54L231.64,332.73L252.61,320.15L272.19,301.17L289.58,276.64L305.44,248.89L321.30,221.15L338.70,196.63L358.26,177.66L379.22,165.11L399.38,158.32L415.77,155.64L425.58,155.25L427.12,155.97L420.38,157.80L407.06,161.91L389.97,170.14L372.09,184.14L355.59,204.54L341.27,230.50L328.49,259.68L315.70,288.87L301.37,314.84L284.87,335.26L266.97,349.28L249.87,357.53L236.54,361.68L229.78,363.55L231.29,364.32L241.08,363.98L257.44,361.37L277.56,354.65L298.49,342.17L318.01,323.28L335.37,298.85L351.18,271.20L366.99,243.55L384.34,219.13L403.86,200.25L424.77,187.79L444.88,181.10L461.22,178.52L470.99,178.23L472.48,179.04L465.69,180.97L452.32,185.17L435.18,193.50L417.25,207.59L400.71,228.09L386.34,254.14L373.50,283.42L360.66,312.70L346.29,338.76L329.73,359.27L311.79,373.39L294.63,381.74L281.25,385.98L274.44,387.94L275.90,388.80L285.63,388.56L301.94,386.04L322.02,379.41L342.89,367.02L362.36,348.23L379.66,323.89L395.42,296.33L411.18,268.78L428.48,244.45L447.95,225.67L468.80,213.30L488.86,206.70L505.15,204.21L514.86,204.01L516.29,204.92L509.45,206.93L496.03,211.23L478.84,219.64L460.85,233.83L444.25,254.42L429.83,280.56L416.93,309.93L404.04,339.30L389.61,365.45L373.00,386.06L356.59,399.00M378.23,399.00L385.64,394.62L405.06,375.91L422.30,351.66L438.00,324.19L453.70,296.73L470.94,272.49L490.35,253.80L511.14,241.52L531.14,235.00L547.37,232.61L557.03,232.49L558.40,233.49L551.50,235.59L538.02,239.98L520.76,248.48L502.72,262.75L486.05,283.43L471.57,309.66L458.62,339.12L445.66,368.57L431.17,394.81L427.79,399.00M451.07,399.00L463.11,382.06L478.75,354.68L494.39,327.29L511.56,303.14L530.90,284.53L551.63,272.34L571.57,265.91L587.73,263.60L597.32,263.57L598.63,264.65L591.66,266.84L578.11,271.31L560.80,279.89L542.68,294.25L525.96,315.01L511.40,341.32L498.38,370.86L485.98,399.00M511.03,399.00L517.50,387.66L533.07,360.36L550.17,336.28L569.44,317.76L590.11,305.64L609.97,299.29L626.07,297.06L635.58,297.11L636.82,298.27L629.78,300.54L616.17,305.09L598.78,313.76L580.59,328.19L563.79,349.03L549.17,375.42L538.75,399.00M567.77,399.00L569.60,395.78L586.62,371.78L605.83,353.33L626.41,341.30L646.20,335.02L662.22,332.87L671.66,332.99L672.83,334.23L665.72,336.57L652.02,341.20L634.56,349.94L616.30,364.45L599.42,385.36L591.85,399.00M631.71,399.00L639.90,391.13L660.41,379.16L680.12,372.96L696.06,370.87L705.42,371.07L706.51,372.37L699.31,374.79L685.54,379.48L668.00,388.30L654.53,399.00" />
<path d="M0.00,108.35L2.09,107.68L19.54,104.83L29.97,104.09L31.67,104.13L24.62,104.95L10.57,107.87L0.00,111.98M0.00,137.87L8.64,129.95L31.33,117.05L52.91,110.16L70.36,107.43L80.78,106.79L82.48,106.93L75.43,107.86L61.37,110.89L43.16,118.06L23.86,131.26L5.72,151.25L0.00,160.45M0.00,209.89L0.24,209.52L18.25,180.53L37.73,155.01L59.24,135.41L81.91,122.62L103.48,115.84L120.91,113.20L131.33,112.67L133.01,112.92L125.95,113.96L111.87,117.09L93.65,124.37L74.34,137.67L56.18,157.77L40.06,183.79L25.40,213.28L10.74,242.76L0.00,260.11M0.00,283.91L12.98,272.14L32.44,246.71L50.44,217.83L68.43,188.95L87.89,163.53L109.38,144.04L132.04,131.35L153.60,124.67L171.01,122.14L181.40,121.72L183.06,122.07L175.98,123.21L161.89,126.45L143.65,133.84L124.31,147.24L106.14,167.44L90.00,193.57L75.32,223.16L60.64,252.75L44.49,278.89L26.32,299.11L6.97,312.54L0.00,315.37M0.00,321.06L18.50,315.39L41.14,302.78L62.61,283.37L82.05,258.05L100.02,229.27L117.99,200.50L137.43,175.19L158.89,155.80L181.52,143.21L203.05,136.64L220.44,134.21L230.81,133.89L232.45,134.35L225.34,135.59L211.22,138.93L192.96,146.42L173.59,159.93L155.39,180.23L139.22,206.47L124.52,236.16L109.81,265.85L93.64,292.10L75.43,312.42L56.06,325.95L37.79,333.47L23.66,336.85L16.54,338.14L18.15,338.65L28.51,338.38L45.87,336.02L67.38,329.52L89.99,317.01L111.43,297.71L130.84,272.48L148.78,243.81L166.73,215.14L186.13,189.93L207.57,170.64L230.16,158.15L251.66,151.68L269.02,149.36L279.36,149.14L280.96,149.70L273.82,151.04L259.67,154.49L241.37,162.08L221.98,175.69L203.74,196.09L187.54,222.43L172.80,252.22L158.06,282.02L141.85,308.36L123.61,328.78L104.21,342.42L85.90,350.04L71.73,353.52L64.58,354.91L66.16,355.52L76.48,355.35L93.81,353.09L115.29,346.69L137.86,334.28L159.26,315.08L178.63,289.95L196.54,261.38L214.44,232.81L233.81,207.70L255.21,188.51L277.77,176.12L299.23,169.75L316.55,167.53L326.85,167.41L328.41,168.07L321.24,169.51L307.05,173.05L288.71,180.74L269.27,194.45L251.00,214.96L234.76,241.39L219.98,271.28L205.20,301.18L188.95,327.62L170.67,348.14L151.23,361.87L132.88,369.59L118.67,373.17L111.47,374.66L113.02,375.37L123.29,375.30L140.58,373.14L162.01,366.83L184.54,354.52L205.90,335.42L225.23,310.39L243.10,281.92L260.96,253.44L280.28,228.43L301.64,209.34L324.16,197.05L345.57,190.77L362.84,188.65L373.10,188.62L374.62,189.38L367.40,190.92L353.16,194.56L334.78,202.35L315.30,216.15L296.98,236.75L280.70,263.28L265.87,293.27L251.04,323.26L234.75,349.80L216.42,370.42L196.93,384.24L178.53,392.06L164.28,395.73L157.04,397.31L158.53,398.12L168.76,398.14L186.00,396.08L207.39,389.87L229.87,377.65L251.18,358.65L270.46,333.71L288.27,305.33L306.09,276.95L325.36,252.03L346.67,233.04L369.13,220.84L390.50,214.66L407.72,212.63L417.93,212.70L419.40,213.55L412.13,215.19L397.84,218.92L379.41,226.80L359.88,240.70L341.51,261.39L325.17,288.01L310.29,318.09L295.41,348.18L279.06,374.81L260.69,395.52L255.80,399.00M278.80,399.00L294.91,384.67L314.13,359.83L331.89,331.54L349.65,303.25L368.87,278.42L390.12,259.52L412.53,247.42L433.84,241.33L451.01,239.39L461.16,239.54L462.57,240.49L455.24,242.21L440.90,246.03L422.41,254.00L402.82,267.99L384.39,288.78L368.00,315.49L353.06,345.66L338.12,375.83L323.90,399.00M348.05,399.00L356.08,388.64L373.78,360.44L391.47,332.24L410.63,307.49L431.82,288.68L454.17,276.66L475.42,270.66L492.53,268.81L502.62,269.05L503.97,270.08L496.58,271.89L482.17,275.80L463.62,283.86L443.97,297.93L425.48,318.80L409.02,345.60L394.02,375.86L382.54,399.00M409.32,399.00L413.77,391.90L431.40,363.79L450.49,339.13L471.61,320.40L493.90,308.46L515.08,302.54L532.12,300.77L542.14,301.10L543.42,302.21L535.96,304.11L521.49,308.10L502.87,316.24L483.15,330.39L464.59,351.35L448.07,378.23L437.75,399.00M468.50,399.00L469.26,397.78L488.28,373.20L509.33,354.55L531.54,342.70L552.66,336.86L569.62,335.17L579.57,335.57L580.78,336.76L573.25,338.73L558.71,342.80L540.01,351.02L520.22,365.25L501.59,386.28L493.76,399.00M535.81,399.00L544.83,391.01L566.97,379.23L588.01,373.46L604.89,371.84L614.77,372.32L615.90,373.58L608.29,375.63L593.67,379.77L574.90,388.06L559.71,399.00" />
<path d="M0.00,129.49L17.42,127.48L28.28,127.25L29.97,127.43L22.48,128.04L7.57,130.52L0.00,133.10M0.00,157.17L2.53,155.04L26.75,142.65L49.55,136.50L67.82,134.49L78.67,134.36L80.34,134.66L72.84,135.37L57.91,137.96L38.45,144.69L17.57,157.67L0.00,175.39M0.00,221.41L7.73,210.08L29.16,184.34L52.46,164.89L76.66,152.60L99.43,146.56L117.68,144.66L128.51,144.63L130.16,145.03L122.63,145.84L107.68,148.54L88.20,155.37L67.30,168.46L47.31,188.70L29.17,215.23L12.40,245.45L0.00,267.80M0.00,301.73L16.90,281.49L36.95,252.16L56.99,222.84L78.40,197.20L101.66,177.86L125.84,165.67L148.58,159.73L166.81,157.93L177.60,158.01L179.23,158.51L171.67,159.43L156.69,162.22L137.19,169.16L116.26,182.35L96.23,202.69L78.06,229.33L61.27,259.64L44.47,289.97L26.29,316.61L6.27,336.97L0.00,340.93M0.00,352.30L20.71,341.92L43.95,322.66L65.33,297.11L85.34,267.89L105.35,238.67L126.73,213.13L149.96,193.89L174.10,181.80L196.81,175.96L215.00,174.26L225.76,174.44L227.35,175.04L219.76,176.06L204.75,178.95L185.21,186.00L164.24,199.28L144.18,219.73L125.98,246.46L109.14,276.88L92.31,307.30L74.10,334.05L54.03,354.51L33.06,367.82L13.51,374.89L0.00,377.52M0.00,379.70L3.18,379.77L21.34,378.14L44.03,372.36L68.14,360.35L91.34,341.19L112.68,315.74L132.65,286.62L152.62,257.50L173.96,232.06L197.15,212.91L221.25,200.93L243.93,195.18L262.07,193.59L272.80,193.86L274.34,194.56L266.71,195.68L251.66,198.67L232.07,205.81L211.07,219.20L190.97,239.74L172.72,266.57L155.84,297.09L138.97,327.61L120.71,354.45L100.61,375.01L79.59,388.42L59.99,395.59L44.92,398.62L42.39,399.00M68.89,399.00L90.25,393.64L114.32,381.73L137.47,362.66L158.77,337.31L178.69,308.28L198.62,279.26L219.91,253.92L243.06,234.87L267.11,222.98L289.74,217.33L307.84,215.83L318.52,216.20L320.01,217.00L312.34,218.21L297.23,221.30L277.61,228.53L256.55,242.01L236.40,262.65L218.11,289.58L201.18,320.19L184.26,350.81L165.96,377.74L145.80,398.40L144.86,399.00M167.54,399.00L182.17,386.99L203.41,361.73L223.29,332.80L243.16,303.87L264.40,278.62L287.49,259.66L311.49,247.86L334.07,242.31L352.12,240.90L362.74,241.37L364.19,242.25L356.46,243.56L341.30,246.74L321.62,254.07L300.51,267.64L280.31,288.37L261.96,315.39L244.98,346.09L228.00,376.80L212.93,399.00M237.94,399.00L246.43,388.91L266.25,360.06L286.06,331.22L307.25,306.07L330.29,287.20L354.23,275.49L376.75,270.02L394.74,268.71L405.30,269.26L406.69,270.23L398.90,271.63L383.69,274.90L363.94,282.32L342.78,295.98L322.52,316.80L304.11,343.91L287.07,374.70L273.62,399.00M301.22,399.00L307.42,389.97L327.17,361.22L348.29,336.15L371.26,317.37L395.14,305.74L417.60,300.36L435.53,299.13L446.03,299.77L447.35,300.83L439.50,302.31L424.22,305.67L404.41,313.17L383.18,326.91L362.85,347.81L344.38,375.01L331.09,399.00M362.70,399.00L366.31,393.74L387.36,368.75L410.27,350.05L434.08,338.51L456.46,333.21L474.32,332.06L484.75,332.78L486.01,333.92L478.09,335.48L462.74,338.92L442.86,346.50L421.56,360.32L401.16,381.31L389.13,399.00M430.12,399.00L447.14,385.11L470.88,373.65L493.19,368.43L510.98,367.35L521.33,368.15L522.51,369.37L514.52,371.01L499.09,374.52L479.14,382.18L457.77,396.08L454.93,399.00" />
<path d="M0.00,150.77L13.35,149.86L24.58,150.17L26.25,150.50L18.34,150.86L2.60,152.83L0.00,153.59M0.00,176.88L19.97,167.75L43.91,162.44L62.94,161.24L74.16,161.65L75.80,162.09L67.86,162.55L52.10,164.62L31.44,170.81L9.02,183.43L0.00,191.75M0.00,232.73L18.08,212.82L43.14,193.67L68.81,182.02L92.72,176.80L111.73,175.71L122.91,176.23L124.52,176.76L116.55,177.32L100.76,179.50L80.07,185.78L57.61,198.51L35.78,218.74L15.58,245.60L0.00,270.91M0.00,312.63L20.51,285.19L42.63,255.61L66.00,229.92L91.02,210.87L116.66,199.32L140.54,194.21L159.51,193.21L170.66,193.83L172.23,194.47L164.22,195.13L148.40,197.40L127.67,203.79L105.17,216.62L83.29,236.94L63.06,263.90L44.09,294.76L25.11,325.63L4.88,352.60L0.00,357.14M0.00,376.81L21.94,360.16L45.28,334.56L67.35,305.07L89.43,275.59L112.76,250.00L137.74,231.05L163.34,219.59L187.17,214.58L206.09,213.68L217.20,214.40L218.73,215.13L210.68,215.89L194.81,218.26L174.04,224.74L151.50,237.67L129.58,258.09L109.30,285.15L90.28,316.11L71.26,347.07L50.98,374.14L29.05,394.58L21.35,399.00M46.07,399.00L67.53,382.76L90.82,357.25L112.85,327.86L134.88,298.47L158.16,272.97L183.09,254.12L208.64,242.76L232.43,237.84L251.30,237.04L262.36,237.85L263.84,238.68L255.74,239.53L239.82,241.99L219.00,248.57L196.41,261.59L174.44,282.11L154.11,309.26L135.04,340.31L115.97,371.37L95.64,398.53L95.13,399.00M120.00,399.00L134.86,382.76L156.83,353.45L178.80,324.16L202.04,298.75L226.91,279.99L252.41,268.72L276.13,263.90L294.96,263.18L305.96,264.08L307.38,265.00L299.23,265.95L283.26,268.50L262.38,275.17L239.73,288.28L217.70,308.89L197.32,336.13L178.20,367.28L159.07,398.42L158.64,399.00M186.18,399.00L199.12,381.76L221.03,352.55L244.20,327.24L269.02,308.56L294.45,297.38L318.12,292.64L336.88,292.02L347.82,293.01L349.19,294.02L340.97,295.05L324.94,297.69L304.00,304.45L281.29,317.64L259.20,338.34L238.76,365.67L219.57,396.90L218.28,399.00M249.79,399.00L261.39,383.54L284.50,358.31L309.25,339.72L334.62,328.63L358.22,323.97L376.92,323.43L387.79,324.50L389.09,325.60L380.81,326.71L364.71,329.44L343.70,336.28L320.93,349.56L298.77,370.33L278.26,397.75L277.49,399.00M316.22,399.00L322.76,391.86L347.44,373.35L372.74,362.33L396.27,357.76L414.90,357.30L425.70,358.45L426.93,359.62L418.58,360.81L402.40,363.62L381.32,370.54L358.48,383.89L342.38,399.00M407.20,399.00L408.67,398.36L432.13,393.86L450.68,393.48L461.41,394.70L462.56,395.95L454.13,397.22L444.07,399.00" />
<path d="M0.00,171.96L7.33,171.80L18.90,172.69L20.53,173.16L12.22,173.23L0.00,174.25M0.00,196.63L11.02,192.17L36.02,187.79L55.75,187.46L67.29,188.45L68.88,189.02L60.53,189.19L44.00,190.68L22.18,196.21L0.00,207.46M0.00,244.82L4.55,240.22L31.34,221.52L58.43,210.64L83.40,206.35L103.09,206.12L114.58,207.21L116.14,207.89L107.75,208.15L91.18,209.74L69.32,215.37L45.34,227.61L21.67,247.66L0.00,273.94M0.00,318.21L1.26,316.66L25.47,287.00L50.81,261.43L77.55,242.83L104.60,232.04L129.52,227.86L149.16,227.73L160.61,228.91L162.12,229.68L153.69,230.04L137.07,231.72L115.17,237.45L91.14,249.79L67.42,269.93L45.10,297.04L23.91,328.25L2.73,359.47L0.00,362.78M0.00,392.32L22.03,370.13L46.19,340.55L70.35,310.98L95.63,285.51L122.33,267.00L149.32,256.31L174.19,252.22L193.79,252.18L205.19,253.45L206.64,254.32L198.16,254.78L181.49,256.55L159.53,262.37L135.46,274.80L111.68,295.04L89.31,322.24L68.07,353.54L46.83,384.85L35.20,399.00M63.14,399.00L65.43,396.70L89.53,367.22L113.63,337.73L138.86,312.35L165.50,293.94L192.44,283.33L217.25,279.33L236.79,279.38L248.13,280.75L249.53,281.71L240.99,282.25L224.26,284.11L202.25,290.03L178.11,302.54L154.28,322.87L131.85,350.16L110.55,381.55L98.72,399.00M129.11,399.00L131.11,396.55L155.15,367.15L180.32,341.86L206.89,323.53L233.77,313.01L258.52,309.10L278.00,309.24L289.28,310.69L290.62,311.73L282.01,312.36L265.22,314.31L243.14,320.31L218.94,332.91L195.04,353.32L172.55,380.70L160.13,399.00M194.86,399.00L219.84,373.91L246.35,355.66L273.16,345.23L297.84,341.40L317.25,341.62L328.46,343.15L329.73,344.28L321.06,344.99L304.20,347.02L282.05,353.10L257.79,365.78L233.82,386.28L223.36,399.00M270.92,399.00L283.71,390.21L310.45,379.86L335.06,376.10L354.39,376.40L365.53,378.01L366.73,379.21L357.98,380.00L341.05,382.11L318.83,388.27L298.36,399.00" />
</g>
<metadata>https://doersino.github.io/uji/#r810ro5rot-0.2se3000i20w1200h400v-0.2l255tr-10tra10wa10wav30wavin10j0hu90</metadata>
</svg>