<svg viewBox="0,0,400,400" width="400" height="400" style="display: inline-block; background-color: rgb(250, 250, 250);" xmlns="http://www.w3.org/2000/svg" xmlns:xlink="http://www.w3.org/1999/xlink"><rect x="0" width="400" y="0" height="400" fill="#f9f9f9" stroke="none"/><g class="poly" fill="#f6f6f6" stroke="black" stroke-width="1" stroke-dasharray="3 3"/><g class="line" fill="none" stroke="black" stroke-width="1" stroke-linejoin="round" stroke-linecap="round"><path d="M253.3335176864969,377.18267418528245L256.0560737128938,372.8256737689906L258.62491411005925,368.3763116845646L261.0369091416689,363.84000879433256L263.28912016331594,359.2222918846024L265.3788032027971,354.5287869321237L267.3034123032198,349.7652122497022L269.0606026248584,344.93737151931595L270.64823330198044,340.05114672122306L272.0643700511616,335.1124909676747L273.30728752791214,330.12742124996515L274.3754714287434,325.1020111076542L275.26762033611334,320.0423832288951L275.98264730400336,314.9547019908824L276.5196811821945,309.8451659495072L276.87806767763,304.7200002873723L277.05737015157024,299.5854492293658L273.0088224370387,296.42237709177573L268.8523513627512,293.4025240898817L264.59302094845646,290.52956944939393L260.2360205321646,287.80701342299693L255.7866584477386,285.23817302583143L251.25035555750657,282.8261779942219L246.63263864777633,280.57396697257474L241.93913369529767,278.4842839330936L237.48977161087163,281.05312433025904L233.13277119457982,283.775680356656L228.87344078028505,286.64863499714374L224.71696970599749,289.66848799903784L224.71696970599749,294.8061687933688L224.89627217993777,299.9407198513753L229.15560259423256,302.8136744918632"/><path d="M229.15560259423256,302.8136744918632L234.28076825636748,302.4552879964277"/><path d="M234.28076825636748,302.4552879964277L237.97650653316526,306.02422096495616"/><path d="M224.89627217993777,299.9407198513753L221.59383462281733,303.87641167439165"/><path d="M221.59383462281733,303.87641167439165L221.41453214887704,309.01096273239824"/><path d="M221.41453214887704,309.01096273239824L217.47884032586072,312.31340028951865"/><path d="M224.89627217993777,299.9407198513753L228.1987097370582,303.87641167439165L231.63648920224713,307.69445257165336L235.2054221707756,311.3901908484511"/><path d="M235.2054221707756,311.3901908484511L240.29310340878834,312.1052178163411"/><path d="M240.29310340878834,312.1052178163411L243.1660580492762,316.36454823063593"/><path d="M231.63648920224713,307.69445257165336L231.099455324056,312.80398861302854L230.74106882862054,317.92915427516346L228.01851280222363,322.28615469145524"/><path d="M228.01851280222363,322.28615469145524L228.55554668041475,327.3956907328305"/><path d="M228.55554668041475,327.3956907328305L225.11776721522583,331.2137316300921"/><path d="M224.71696970599749,289.66848799903784L219.60743366462236,289.1314541208466L214.48226800248744,288.77306762541116L211.17983044536695,292.7087594484276"/><path d="M211.17983044536695,292.7087594484276L211.00052797142666,297.8433105064341"/><path d="M211.00052797142666,297.8433105064341L207.06483614841036,301.14574806355455"/><path d="M214.48226800248744,288.77306762541116L210.913335033959,285.0773293486135"/><path d="M210.913335033959,285.0773293486135L205.82565379594618,284.3623023807234"/><path d="M205.82565379594618,284.3623023807234L202.95269915545833,280.10297196642864"/><path d="M214.48226800248744,288.77306762541116L210.22293758819265,291.6460222658991L206.06646651390506,294.66587526779307L202.01791879937355,297.8289474053832"/><path d="M202.01791879937355,297.8289474053832L200.77500132262296,302.81401712309275"/><path d="M200.77500132262296,302.81401712309275L196.2386984323909,305.2260121547024"/><path d="M206.06646651390506,294.66587526779307L201.0410563715941,293.5976913669618L195.98142849283505,292.70554245959187L191.93288077830348,289.5424703220017"/><path d="M191.93288077830348,289.5424703220017L186.7951999839725,289.5424703220017"/><path d="M186.7951999839725,289.5424703220017L183.35742051878358,285.72442942474004"/><path d="M224.71696970599749,289.66848799903784L223.30083295681638,294.6071437525861L222.05791548006582,299.5922134702958L220.9897315792345,304.6176236126067L220.09758267186453,309.6772514913658L219.38255570397453,314.7649327293786L218.84552182578335,319.87446877075377L222.66356272304506,323.3122482359427"/><path d="M222.66356272304506,323.3122482359427L227.78872838517998,323.6706347313782"/><path d="M227.78872838517998,323.6706347313782L230.95180052277007,327.71918244590967"/><path d="M218.84552182578335,319.87446877075377L215.02748092852175,323.3122482359427"/><path d="M215.02748092852175,323.3122482359427L214.13533202115175,328.37187611470176"/><path d="M214.13533202115175,328.37187611470176L209.77833160485997,331.0944321410987"/><path d="M218.84552182578335,319.87446877075377L221.56807785218035,324.23146918704555L224.44103249266814,328.49079960134037L227.46088549456212,332.6472706756279"/><path d="M227.46088549456212,332.6472706756279L232.3995412481105,334.0634074248091"/><path d="M232.3995412481105,334.0634074248091L234.65175226975754,338.68112433453933"/><path d="M224.44103249266814,328.49079960134037L223.19811501591758,333.47586931905L222.1299311150863,338.501279461361L218.8274935579658,342.4369712843773"/><path d="M218.8274935579658,342.4369712843773L218.64819108402557,347.57152234238384"/><path d="M218.64819108402557,347.57152234238384L214.71249926100924,350.8739598995043"/><path d="M220.09758267186453,309.6772514913658L215.74058225557275,312.3998075177627L211.48125184127795,315.27276215825054L207.32478076699041,318.2926151601446L203.27623305245888,321.4556872977347L198.2166051736998,322.3478362051046L193.19119503138882,323.4160201059359L191.1015119919076,328.1095250584146"/><path d="M191.1015119919076,328.1095250584146L192.34442946865815,333.0945947761242"/><path d="M192.34442946865815,333.0945947761242L189.47147482817033,337.35392519041903"/><path d="M193.19119503138882,323.4160201059359L188.74183294696277,320.84717970877045"/><path d="M188.74183294696277,320.84717970877045L183.65415170894997,321.5622066766604"/><path d="M183.65415170894997,321.5622066766604L179.71845988593364,318.25976911954"/><path d="M193.19119503138882,323.4160201059359L189.8887574742684,327.3517119289522L186.72568533667825,331.40025964348376L183.70583233478422,335.5567307177713"/><path d="M183.70583233478422,335.5567307177713L183.88513480872447,340.6912817757779"/><path d="M183.88513480872447,340.6912817757779L180.18939653192672,344.2602147443063"/><path d="M186.72568533667825,331.40025964348376L181.60051967454334,331.75864613891923L176.49098363316807,332.2956800171104L171.72740895074654,330.3710709166877"/><path d="M171.72740895074654,330.3710709166877L166.7887531971982,331.7872076658689"/><path d="M166.7887531971982,331.7872076658689L162.43175278090638,329.06465163947195"/><path d="M241.93913369529767,278.4842839330936L239.8494506558165,273.79077898061496L237.5972396341694,269.1730620708846L235.1852446025598,264.63675918065263L232.6164042053943,260.18739709622656L227.5068681640191,259.6503632180354L222.38170250188423,259.2919767226L219.0792649447638,263.2276685456163"/><path d="M219.0792649447638,263.2276685456163L218.89996247082345,268.36221960362286"/><path d="M218.89996247082345,268.36221960362286L214.96427064780713,271.6646571607434"/><path d="M222.38170250188423,259.2919767226L218.81276953335578,255.59623844580221"/><path d="M218.81276953335578,255.59623844580221L213.72508829534297,254.88121147791222"/><path d="M213.72508829534297,254.88121147791222L210.85213365485515,250.6218810636174"/><path d="M222.38170250188423,259.2919767226L218.12237208758938,262.16493136308776L213.96590101330187,265.18478436498185L209.91735329877034,268.3478565025719"/><path d="M209.91735329877034,268.3478565025719L208.67443582201977,273.33292622028154"/><path d="M208.67443582201977,273.33292622028154L204.1381329317877,275.7449212518912"/><path d="M213.96590101330187,265.18478436498185L208.9404908709909,264.11660046415057L203.8808629922318,263.2244515567806L199.83231527770027,260.06137941919053"/><path d="M199.83231527770027,260.06137941919053L194.69463448336927,260.06137941919053"/><path d="M194.69463448336927,260.06137941919053L191.25685501818037,256.2433385219288"/><path d="M232.6164042053943,260.18739709622656L233.68458810622556,255.16198695391557L234.57673701359553,250.10235907515656L231.00780404506708,246.40662079835877"/><path d="M231.00780404506708,246.40662079835877L225.9201228070543,245.69159383046875"/><path d="M225.9201228070543,245.69159383046875L223.04716816656648,241.43226341617395"/><path d="M234.57673701359553,250.10235907515656L238.62528472812704,246.9392869375664"/><path d="M238.62528472812704,246.9392869375664L239.8682022048776,241.95421721985684"/><path d="M239.8682022048776,241.95421721985684L244.4045050951097,239.54222218824725"/><path d="M234.57673701359553,250.10235907515656L232.16474198198594,245.5660561849245L229.59590158482044,241.11669410049848L226.8733455584235,236.75969368420667"/><path d="M226.8733455584235,236.75969368420667L222.04550482803722,235.002503362568"/><path d="M222.04550482803722,235.002503362568L220.1208957276145,230.23892868014644"/><path d="M229.59590158482044,241.11669410049848L231.18353226194256,236.23046930240548L232.59966901112367,231.29181354885722L236.1686019796521,227.59607527205947"/><path d="M236.1686019796521,227.59607527205947L236.70563585784328,222.48653923068423"/><path d="M236.70563585784328,222.48653923068423L240.8621069321308,219.4666862287902"/><path d="M232.6164042053943,260.18739709622656L227.85282952297274,258.2627879958039L223.02498879258647,256.5055976741653L218.13876399449356,254.9179669970433L213.20010824094524,253.50183024786205L208.21503852323565,252.25891277111154L203.18962838092466,251.1907288702802L199.371587483663,254.62850833546915"/><path d="M199.371587483663,254.62850833546915L198.47943857629306,259.6881362142282"/><path d="M198.47943857629306,259.6881362142282L194.12243816000122,262.41069224062517"/><path d="M203.18962838092466,251.1907288702802L200.16977537903063,247.03425779599272"/><path d="M200.16977537903063,247.03425779599272L195.23111962548234,245.61812104681152"/><path d="M195.23111962548234,245.61812104681152L192.97890860383524,241.0004041370813"/><path d="M203.18962838092466,251.1907288702802L198.5719114711944,253.4429398919273L194.03560858096233,255.85493492353694L189.58624649653632,258.4237753207024"/><path d="M189.58624649653632,258.4237753207024L187.66163739611363,263.187350003124"/><path d="M187.66163739611363,263.187350003124L182.83379666572733,264.9445403247626"/><path d="M194.03560858096233,255.85493492353694L189.20776785057606,254.09774460189834L184.32154305248312,252.51011392477625L180.75261008395472,248.8143756479785"/><path d="M180.75261008395472,248.8143756479785L175.6649288459419,248.0993486800885"/><path d="M175.6649288459419,248.0993486800885L172.79197420545407,243.84001826579365"/><path d="M213.20010824094524,253.50183024786205L210.94789721929817,248.88411333813184L208.53590218768852,244.34781044789975L205.96706179052305,239.8984483634737L203.24450576412613,235.5414479471819L202.88611926869063,230.41628228504703L202.34908539049954,225.3067462436718L197.8997233060735,222.7379058465063"/><path d="M197.8997233060735,222.7379058465063L192.8120420680607,223.45293281439635"/><path d="M192.8120420680607,223.45293281439635L188.87635024504436,220.15049525727588"/><path d="M202.34908539049954,225.3067462436718L205.36893839239357,221.15027516938426"/><path d="M205.36893839239357,221.15027516938426L205.1896359184533,216.0157241113777"/><path d="M205.1896359184533,216.0157241113777L208.88537419525105,212.44679114284926"/><path d="M202.34908539049954,225.3067462436718L198.7801524219711,221.611007966874L195.08441414517333,218.04207499834558L191.26637324791167,214.60429553315666"/><path d="M191.26637324791167,214.60429553315666L186.14120758577675,214.2459090377212"/><path d="M186.14120758577675,214.2459090377212L182.9781354481866,210.19736132318968"/><path d="M195.08441414517333,218.04207499834558L195.26371661911358,212.90752394033905L195.26371661911358,207.76984314600807L197.67571165072317,203.23354025577598"/><path d="M197.67571165072317,203.23354025577598L196.78356274335326,198.1739123770169"/><path d="M196.78356274335326,198.1739123770169L199.94663488094338,194.12536466248537"/><path d="M241.93913369529767,278.4842839330936L236.95406397758805,279.7272014098441L232.01540822403976,281.1433381590253L227.12918342594682,282.7309688361474L222.30134269556055,284.48815915778596L217.53776801313904,286.4127682582086L212.84426306066035,288.5024512976898L208.2265461509301,290.7546623193369L203.69024326069808,293.1666573509465L199.240881176272,295.7354977481119L194.88388075998023,298.45805377450887L190.62455034568546,301.3310084149967L186.46807927139787,304.3508614168907L186.46807927139787,309.4885422112216L186.64738174533815,314.6230932692282L190.90671215963292,317.496047909716"/><path d="M190.90671215963292,317.496047909716L196.0318778217679,317.1376614142806"/><path d="M196.0318778217679,317.1376614142806L199.72761609856565,320.7065943828091"/><path d="M186.64738174533815,314.6230932692282L183.34494418821774,318.55878509224453"/><path d="M183.34494418821774,318.55878509224453L183.16564171427748,323.69333615025107"/><path d="M183.16564171427748,323.69333615025107L179.2299498912611,326.99577370737154"/><path d="M186.64738174533815,314.6230932692282L189.9498193024586,318.55878509224453L193.38759876764752,322.3768259895062L196.95653173617598,326.07256426630397"/><path d="M196.95653173617598,326.07256426630397L202.04421297418875,326.78759123419394"/><path d="M202.04421297418875,326.78759123419394L204.9171676146766,331.0469216484888"/><path d="M193.38759876764752,322.3768259895062L192.8505648894564,327.4863620308814L192.49217839402093,332.61152769301634L189.76962236762398,336.9685281093081"/><path d="M189.76962236762398,336.9685281093081L190.30665624581516,342.07806415068336"/><path d="M190.30665624581516,342.07806415068336L186.8688767806262,345.896105047945"/><path d="M186.46807927139787,304.3508614168907L181.3585432300227,303.81382753869957L176.23337756788783,303.4554410432641L172.93094001076736,307.39113286628043"/><path d="M172.93094001076736,307.39113286628043L172.75163753682713,312.525683924287"/><path d="M172.75163753682713,312.525683924287L168.81594571381075,315.82812148140744"/><path d="M176.23337756788783,303.4554410432641L172.66444459935937,299.7597027664663"/><path d="M172.66444459935937,299.7597027664663L167.5767633613466,299.0446757985764"/><path d="M167.5767633613466,299.0446757985764L164.70380872085877,294.7853453842815"/><path d="M176.23337756788783,303.4554410432641L171.97404715359303,306.3283956837519L167.8175760793055,309.3482486856459L163.76902836477396,312.511320823236"/><path d="M163.76902836477396,312.511320823236L162.5261108880234,317.4963905409457"/><path d="M162.5261108880234,317.4963905409457L157.98980799779136,319.9083855725553"/><path d="M167.8175760793055,309.3482486856459L162.7921659369945,308.2800647848146L157.73253805823543,307.3879158774447L153.68399034370393,304.2248437398546"/><path d="M153.68399034370393,304.2248437398546L148.54630954937295,304.2248437398546"/><path d="M148.54630954937295,304.2248437398546L145.108530084184,300.40680284259287"/><path d="M186.46807927139787,304.3508614168907L185.05194252221676,309.289517170439L183.8090250454662,314.27458688814863L182.74084114463489,319.2999970304596L181.84869223726497,324.35962490921867L181.13366526937492,329.4473061472314L180.59663139118382,334.55684218860665L184.41467228844544,337.9946216537956"/><path d="M184.41467228844544,337.9946216537956L189.53983795058036,338.353008149231"/><path d="M189.53983795058036,338.353008149231L192.70291008817048,342.40155586376255"/><path d="M180.59663139118382,334.55684218860665L176.77859049392214,337.9946216537956"/><path d="M176.77859049392214,337.9946216537956L175.88644158655217,343.0542495325547"/><path d="M175.88644158655217,343.0542495325547L171.52944117026036,345.77680555895154"/><path d="M180.59663139118382,334.55684218860665L183.3191874175807,338.91384260489843L186.19214205806853,343.1731730191932L189.21199505996256,347.32964409348074"/><path d="M189.21199505996256,347.32964409348074L194.15065081351088,348.745780842662"/><path d="M194.15065081351088,348.745780842662L196.40286183515798,353.3634977523923"/><path d="M186.19214205806853,343.1731730191932L184.949224581318,348.1582427369028L183.8810406804867,353.1836528792138L180.57860312336624,357.11934470223014"/><path d="M180.57860312336624,357.11934470223014L180.39930064942598,362.25389576023673"/><path d="M180.39930064942598,362.25389576023673L176.46360882640963,365.55633331735726"/><path d="M181.84869223726497,324.35962490921867L177.49169182097316,327.0821809356156L173.23236140667834,329.9551355761034L169.0758903323908,332.9749885779974L165.02734261785923,336.13806071558747L159.96771473910022,337.03020962295744L154.94230459678923,338.09839352378873L152.85262155730803,342.79189847626736"/><path d="M152.85262155730803,342.79189847626736L154.0955390340586,347.77696819397704"/><path d="M154.0955390340586,347.77696819397704L151.22258439357074,352.03629860827186"/><path d="M154.94230459678923,338.09839352378873L150.49294251236321,335.5295531266233"/><path d="M150.49294251236321,335.5295531266233L145.40526127435038,336.2445800945133"/><path d="M145.40526127435038,336.2445800945133L141.46956945133405,332.94214253739284"/><path d="M154.94230459678923,338.09839352378873L151.6398670396688,342.03408534680517L148.47679490207867,346.08263306133665L145.45694190018466,350.2391041356242"/><path d="M145.45694190018466,350.2391041356242L145.63624437412494,355.3736551936307"/><path d="M145.63624437412494,355.3736551936307L141.94050609732713,358.9425881621592"/><path d="M148.47679490207867,346.08263306133665L143.35162923994375,346.44101955677206L138.24209319856854,346.9780534349633L133.47851851614698,345.05344433454053"/><path d="M133.47851851614698,345.05344433454053L128.53986276259863,346.4695810837218"/><path d="M128.53986276259863,346.4695810837218L124.18286234630679,343.7470250573248"/><path d="M203.69024326069808,293.1666573509465L198.86240253031175,291.4094670293079L193.97617773221887,289.8218363521858L189.03752197867053,288.4056996030047L184.05245226096096,287.1627821262541L179.02704211864997,286.0945982254229L173.96741423989093,285.20244931805286L168.87973300187812,284.4874223501629L163.77019696050294,283.9503884719717L159.51086654620812,281.0774338314838L155.15386612991628,278.35487780508697L150.7045040454903,275.7860374079214L146.1682011552582,273.3740423763118L141.55048424552794,275.6262533979589L137.0141813552959,278.03824842956857L136.29915438740588,283.1259296675813"/><path d="M136.29915438740588,283.1259296675813L138.86799478457135,287.5752917520074"/><path d="M138.86799478457135,287.5752917520074L137.28036410744932,292.4615165501003"/><path d="M137.0141813552959,278.03824842956857L132.02911163758628,276.795330952818"/><path d="M132.02911163758628,276.795330952818L127.33560668510758,278.8850139922992"/><path d="M127.33560668510758,278.8850139922992L122.64210173262889,276.795330952818"/><path d="M137.0141813552959,278.03824842956857L134.9244983158147,282.7317533820472L132.99988921539202,287.4953280644688L131.2426988937534,292.323168794855"/><path d="M131.2426988937534,292.323168794855L132.83032957087545,297.20939359294806"/><path d="M132.83032957087545,297.20939359294806L130.26148917370995,301.6587556773741"/><path d="M132.99988921539202,287.4953280644688L128.17204848500572,289.25251838610745L123.40847380258415,291.1771274865301L118.29893776120893,290.64009360833893"/><path d="M118.29893776120893,290.64009360833893L113.9419373449171,293.3626496347358"/><path d="M113.9419373449171,293.3626496347358L109.00328159136876,291.94651288555474"/><path d="M146.1682011552582,273.3740423763118L144.4110108336196,268.5462016459255L142.48640173319694,263.782626963504L137.50133201548732,262.53970948675345"/><path d="M137.50133201548732,262.53970948675345L132.80782706300863,264.6293925262346"/><path d="M132.80782706300863,264.6293925262346L128.11432211052994,262.53970948675345"/><path d="M142.48640173319694,263.782626963504L144.24359205483552,258.95478623311766"/><path d="M144.24359205483552,258.95478623311766L142.65596137771348,254.06856143502475"/><path d="M142.65596137771348,254.06856143502475L145.22480177487896,249.61919935059868"/><path d="M142.48640173319694,263.782626963504L138.0370396487709,261.2137865663385L133.5007367585388,258.8017915347289L128.88301984880857,256.5495805130818"/><path d="M128.88301984880857,256.5495805130818L123.85760970649756,257.61776441391305"/><path d="M123.85760970649756,257.61776441391305L119.70113863221002,254.59791141201904"/><path d="M133.5007367585388,258.8017915347289L132.25781928178824,253.81672181701927L130.84168253260708,248.87806606347095L131.9098664334384,243.8526559211599"/><path d="M131.9098664334384,243.8526559211599L129.6576554117913,239.23493901142962"/><path d="M129.6576554117913,239.23493901142962L131.582264512214,234.47136432900808"/><path d="M146.1682011552582,273.3740423763118L141.10857327649916,274.2661912836818L136.08316313418814,275.3343751845131L131.09809341647858,276.57729266126364L126.15943766293024,277.9934294104448L121.27321286483729,279.58106008756687L116.445372134451,281.3382504092054L115.02923538526981,286.2769061627538"/><path d="M115.02923538526981,286.2769061627538L116.95384448569251,291.0404808451753"/><path d="M116.95384448569251,291.0404808451753L114.7016334640454,295.6581977549056"/><path d="M116.445372134451,281.3382504092054L111.68179745202946,279.41364130878276"/><path d="M111.68179745202946,279.41364130878276L106.74314169848114,280.82977805796395"/><path d="M106.74314169848114,280.82977805796395L102.38614128218931,278.10722203156695"/><path d="M116.445372134451,281.3382504092054L113.72281610805408,285.6952508254972L111.15397571088857,290.1446129099233L108.74198067927895,294.68091580015533"/><path d="M108.74198067927895,294.68091580015533L109.6341295866489,299.74054367891443"/><path d="M109.6341295866489,299.74054367891443L106.4710574490588,303.78909139344603"/><path d="M111.15397571088857,290.1446129099233L106.12856556857757,291.21279681075464L101.14349585086796,292.45571428750515L96.15842613315833,291.21279681075464"/><path d="M96.15842613315833,291.21279681075464L91.46492118067961,293.3024798502358"/><path d="M91.46492118067961,293.3024798502358L86.77141622820089,291.2127968107546"/><path d="M126.15943766293024,277.9934294104448L121.80243724663842,275.27087338404783L117.3530751622124,272.7020329868824L112.81677227198033,270.2900379552727L108.19905536225008,268.03782693362564L105.17920236035606,263.8813558593381L102.01613022276595,259.83280814480656L96.88157916475939,260.0121106187469"/><path d="M96.88157916475939,260.0121106187469L92.94588734174305,263.3145481758673"/><path d="M92.94588734174305,263.3145481758673L87.85820610373021,262.59952120797726"/><path d="M102.01613022276595,259.83280814480656L102.37451671820139,254.70764248267162"/><path d="M102.37451671820139,254.70764248267162L99.50156207771356,250.44831206837682"/><path d="M99.50156207771356,250.44831206837682L100.74447955446412,245.4632423506672"/><path d="M102.01613022276595,259.83280814480656L97.03106050505633,258.589890668056L92.00565036274533,257.5217067672247L86.94602248398627,256.62955785985474"/><path d="M86.94602248398627,256.62955785985474L82.4097195937542,259.0415528914644"/><path d="M82.4097195937542,259.0415528914644L77.58187886336788,257.2843625698257"/><path d="M92.00565036274533,257.5217067672247L89.43680996557981,253.0723446827987L86.71425393918288,248.71534426650683L86.35586744374741,243.5901786043719"/><path d="M86.35586744374741,243.5901786043719L82.91808797855845,239.7721377071102"/><path d="M82.91808797855845,239.7721377071102L83.4551218567496,234.662601665735"/><path d="M277.05737015157024,299.5854492293658L280.6263031200986,295.889710952568L284.06408258528757,292.0716700553064L287.36652014240804,288.1359782322901L290.52959227999816,284.08743051775855L293.54944528189213,279.93095944347107L296.42239992237995,275.6716290291763L299.14495594877684,271.31462861288446L301.71379634594234,266.86526652845845L299.62411330646114,262.17176157597976L297.3719022848141,257.5540446662496L294.9599072532044,253.01774177601752L292.391066856039,248.5683796915915L287.28153081466377,248.03134581340035L282.15636515252885,247.67295931796488L278.8539275954084,251.6086511409812"/><path d="M278.8539275954084,251.6086511409812L278.6746251214682,256.7432021989878"/><path d="M278.6746251214682,256.7432021989878L274.73893329845185,260.0456397561082"/><path d="M282.15636515252885,247.67295931796488L278.5874321840004,243.97722104116716"/><path d="M278.5874321840004,243.97722104116716L273.4997509459876,243.2621940732771"/><path d="M273.4997509459876,243.2621940732771L270.6267963054998,239.00286365898228"/><path d="M282.15636515252885,247.67295931796488L277.8970347382341,250.54591395845276L273.74056366394655,253.56576696034676L269.69201594941495,256.7288390979369"/><path d="M269.69201594941495,256.7288390979369L268.44909847266445,261.71390881564645"/><path d="M268.44909847266445,261.71390881564645L263.91279558243235,264.12590384725604"/><path d="M273.74056366394655,253.56576696034676L268.71515352163556,252.49758305951545L263.65552564287646,251.6054341521455L259.6069779283449,248.44236201455544"/><path d="M259.6069779283449,248.44236201455544L254.46929713401397,248.44236201455544"/><path d="M254.46929713401397,248.44236201455544L251.03151766882502,244.62432111729376"/><path d="M292.391066856039,248.5683796915915L293.4592507568703,243.54296954928049L294.3513996642402,238.48334167052147L290.78246669571183,234.78760339372369"/><path d="M290.78246669571183,234.78760339372369L285.69478545769897,234.07257642583366"/><path d="M285.69478545769897,234.07257642583366L282.82183081721115,229.8132460115389"/><path d="M294.3513996642402,238.48334167052147L298.39994737877174,235.32026953293138"/><path d="M298.39994737877174,235.32026953293138L299.6428648555223,230.33519981522176"/><path d="M299.6428648555223,230.33519981522176L304.1791677457544,227.9232047836121"/><path d="M294.3513996642402,238.48334167052147L291.9394046326306,233.9470387802894L289.3705642354651,229.49767669586333L286.64800820906817,225.14067627957155"/><path d="M286.64800820906817,225.14067627957155L281.82016747868187,223.38348595793292"/><path d="M281.82016747868187,223.38348595793292L279.8955583782592,218.61991127551138"/><path d="M289.3705642354651,229.49767669586333L290.95819491258715,224.61145189777042L292.37433166176834,219.6727961442221L295.94326463029677,215.97705786742438"/><path d="M295.94326463029677,215.97705786742438L296.4802985084879,210.86752182604917"/><path d="M296.4802985084879,210.86752182604917L300.6367695827755,207.84766882415514"/><path d="M292.391066856039,248.5683796915915L287.62749217361744,246.64377059116882L282.7996514432312,244.8865802695302L277.9134266451382,243.29894959240815L272.97477089158997,241.88281284322696L267.98970117388035,240.6398953664764L262.9642910315693,239.5717114656452L259.14625013430765,243.0094909308341"/><path d="M259.14625013430765,243.0094909308341L258.25410122693773,248.06911880959316"/><path d="M258.25410122693773,248.06911880959316L253.8971008106459,250.79167483599008"/><path d="M262.9642910315693,239.5717114656452L259.9444380296753,235.41524039135766"/><path d="M259.9444380296753,235.41524039135766L255.005782276127,233.99910364217646"/><path d="M255.005782276127,233.99910364217646L252.75357125447994,229.3813867324462"/><path d="M262.9642910315693,239.5717114656452L258.3465741218391,241.82392248729224L253.81027123160703,244.23591751890186L249.36090914718096,246.80475791606736"/><path d="M249.36090914718096,246.80475791606736L247.4363000467583,251.5683325984889"/><path d="M247.4363000467583,251.5683325984889L242.608459316372,253.3255229201275"/><path d="M253.81027123160703,244.23591751890186L248.98243050122073,242.47872719726323L244.09620570312777,240.89109652014122L240.52727273459936,237.19535824334343"/><path d="M240.52727273459936,237.19535824334343L235.43959149658656,236.4803312754534"/><path d="M235.43959149658656,236.4803312754534L232.5666368560987,232.22100086115856"/><path d="M272.97477089158997,241.88281284322696L270.7225598699428,237.26509593349672L268.3105648383332,232.72879304326466L265.7417244411678,228.27943095883865L263.0191684147708,223.92243054254686L262.66078191933536,218.7972648804119L262.12374804114427,213.68772883903665L257.6743859567182,211.11888844187123"/><path d="M257.6743859567182,211.11888844187123L252.58670471870533,211.83391540976123"/><path d="M252.58670471870533,211.83391540976123L248.651012895689,208.5314778526408"/><path d="M262.12374804114427,213.68772883903665L265.14360104303825,209.53125776474917"/><path d="M265.14360104303825,209.53125776474917L264.964298569098,204.39670670674258"/><path d="M264.964298569098,204.39670670674258L268.6600368458957,200.82777373821418"/><path d="M262.12374804114427,213.68772883903665L258.5548150726157,209.99199056223893L254.859076795818,206.4230575937105L251.04103589855634,202.98527812852157"/><path d="M251.04103589855634,202.98527812852157L245.9158702364214,202.62689163308613"/><path d="M245.9158702364214,202.62689163308613L242.7527980988313,198.57834391855457"/><path d="M254.859076795818,206.4230575937105L255.03837926975825,201.28850653570396L255.03837926975825,196.15082574137298L257.45037430136784,191.61452285114092"/><path d="M257.45037430136784,191.61452285114092L256.55822539399793,186.55489497238182"/><path d="M256.55822539399793,186.55489497238182L259.72129753158805,182.50634725785028"/><path d="M301.71379634594234,266.86526652845845L306.6000211440352,265.2776358513364L311.4278618744215,263.5204455296978L316.19143655684303,261.59583642927515L320.8849415093217,259.50615338979395L321.953125410153,254.48074324748296L322.845274317523,249.42111536872392L319.27634134899455,245.7253770919262"/><path d="M319.27634134899455,245.7253770919262L314.18866011098174,245.01035012403614"/><path d="M314.18866011098174,245.01035012403614L311.3157054704939,240.75101970974137"/><path d="M322.845274317523,249.42111536872392L326.89382203205446,246.2580432311338"/><path d="M326.89382203205446,246.2580432311338L328.136739508805,241.2729735134242"/><path d="M328.136739508805,241.2729735134242L332.6730423990372,238.86097848181458"/><path d="M322.845274317523,249.42111536872392L320.4332792859134,244.88481247849182L317.8644388887479,240.4354503940658L315.14188286235094,236.07844997777397"/><path d="M315.14188286235094,236.07844997777397L310.31404213196464,234.32125965613534"/><path d="M310.31404213196464,234.32125965613534L308.38943303154196,229.55768497371386"/><path d="M317.8644388887479,240.4354503940658L319.45206956587,235.54922559597293L320.86820631505105,230.61056984242455L324.43713928357954,226.9148315656268"/><path d="M324.43713928357954,226.9148315656268L324.9741731617707,221.80529552425156"/><path d="M324.9741731617707,221.80529552425156L329.13064423605823,218.78544252235756"/><path d="M320.8849415093217,259.50615338979395L325.77116630741466,261.09378406691604L330.70982206096295,262.5099208160971L334.7583697754945,259.34684867850706"/><path d="M334.7583697754945,259.34684867850706L336.00128725224505,254.36177896079747"/><path d="M336.00128725224505,254.36177896079747L340.5375901424771,251.94978392918784"/><path d="M330.70982206096295,262.5099208160971L333.4323780873599,266.86692123238896"/><path d="M333.4323780873599,266.86692123238896L338.26021881774614,268.62411155402754"/><path d="M338.26021881774614,268.62411155402754L340.1848279181689,273.38768623644916"/><path d="M330.70982206096295,262.5099208160971L335.4733967433845,260.58531171567444L340.1669016958632,258.4956286761933L344.7846186055935,256.2434176545462"/><path d="M344.7846186055935,256.2434176545462L347.03682962724054,251.62570074481596"/><path d="M347.03682962724054,251.62570074481596L351.9754853807888,250.20956399563477"/><path d="M340.1669016958632,258.4956286761933L344.8604066483419,260.58531171567444L349.6239813307634,262.5099208160971L352.92641888788387,266.4456126391135"/><path d="M352.92641888788387,266.4456126391135L357.95182903019486,267.5137965399448"/><path d="M357.95182903019486,267.5137965399448L360.5206694273603,271.96315862437075"/><path d="M320.8849415093217,259.50615338979395L323.2969365409313,254.96985049956186L325.5491475625784,250.35213358983162L327.6388306020596,245.658628637353L329.56343970248224,240.8950539549314L331.320630024121,236.06721322454513L332.90826070124297,231.18098842645222L329.88840769934893,227.02451735216468"/><path d="M329.88840769934893,227.02451735216468L324.94975194580064,225.60838060298354"/><path d="M324.94975194580064,225.60838060298354L322.6975409241535,220.99066369325325"/><path d="M332.90826070124297,231.18098842645222L337.357622785669,228.61214802928671"/><path d="M337.357622785669,228.61214802928671L339.2822318860916,223.84857334686518"/><path d="M339.2822318860916,223.84857334686518L344.11007261647796,222.09138302522658"/><path d="M332.90826070124297,231.18098842645222L331.15107037960433,226.35314769606592L329.22646127918165,221.58957301364438L327.13677823970045,216.89606806116566"/><path d="M327.13677823970045,216.89606806116566L322.6004753494684,214.48407302955604"/><path d="M322.6004753494684,214.48407302955604L321.35755787271785,209.49900331184648"/><path d="M329.22646127918165,221.58957301364438L331.47867230082875,216.97185610391412L333.5683553403099,212.27835115143546L337.61690305484143,209.11527901384537"/><path d="M337.61690305484143,209.11527901384537L338.85982053159205,204.1302092961357"/><path d="M338.85982053159205,204.1302092961357L343.39612342182403,201.71821426452607"/><path d="M329.56343970248224,240.8950539549314L334.3912804328686,239.1378636332928L339.1548551152901,237.21325453287014L343.8483600677688,235.1235714933889L348.466076977499,232.87136047174184L353.6006280355056,233.05066294568206L358.7383088298365,233.05066294568206L361.7581618317306,228.89419187139453"/><path d="M361.7581618317306,228.89419187139453L361.57885935779035,223.75964081338802"/><path d="M361.57885935779035,223.75964081338802L365.2745976345881,220.19070784485956"/><path d="M358.7383088298365,233.05066294568206L362.5563497270982,236.48844241087102"/><path d="M362.5563497270982,236.48844241087102L367.68151538923314,236.84682890630646"/><path d="M367.68151538923314,236.84682890630646L370.84458752682326,240.89537662083802"/><path d="M358.7383088298365,233.05066294568206L362.78685654436805,229.887590808092L366.7225483673844,226.5851532509716L370.5405892646461,223.14737378578266"/><path d="M370.5405892646461,223.14737378578266L371.43273817201606,218.08774590702356"/><path d="M371.43273817201606,218.08774590702356L375.78973858830784,215.3651898806266"/><path d="M366.7225483673844,226.5851532509716L371.81022960539724,227.30018021886158L376.9197656467724,227.83721409705277L381.1790960610673,230.71016873754056"/><path d="M381.1790960610673,230.71016873754056L386.3042617232023,230.35178224210514"/><path d="M386.3042617232023,230.35178224210514L390,233.92071521063357"/><path d="M301.71379634594234,266.86526652845845L300.9987693780523,261.7775852904457L300.10662047068234,256.71795741168665L299.0384365698511,251.69254726937564L297.7955190931005,246.70747755166607L296.37938234391936,241.76882179811778L294.7917516667973,236.88259700002487L293.03456134515875,232.0547562696386L291.1099522447361,227.29118158721707L289.02026920525486,222.59767663473838L286.7680581836078,217.9799597250082L284.35606315199817,213.4436568347761L281.78722275483267,208.9942947503501L276.6776867134575,208.4572608721589L271.55252105132257,208.0988743767235L268.2500834942021,212.03456619973983"/><path d="M268.2500834942021,212.03456619973983L268.07078102026185,217.16911725774636"/><path d="M268.07078102026185,217.16911725774636L264.1350891972455,220.47155481486686"/><path d="M271.55252105132257,208.0988743767235L267.98358808279414,204.4031360999257"/><path d="M267.98358808279414,204.4031360999257L262.8959068447814,203.6881091320357"/><path d="M262.8959068447814,203.6881091320357L260.0229522042936,199.42877871774087"/><path d="M271.55252105132257,208.0988743767235L267.29319063702775,210.9718290172113L263.13671956274027,213.99168201910535L259.08817184820873,217.15475415669547"/><path d="M259.08817184820873,217.15475415669547L257.8452543714581,222.13982387440504"/><path d="M257.8452543714581,222.13982387440504L253.30895148122607,224.55181890601466"/><path d="M263.13671956274027,213.99168201910535L258.1113094204293,212.92349811827407L253.0516815416702,212.03134921090407L249.00313382713867,208.868277073314"/><path d="M249.00313382713867,208.868277073314L243.8654530328077,208.868277073314"/><path d="M243.8654530328077,208.868277073314L240.42767356761874,205.05023617605232"/><path d="M281.78722275483267,208.9942947503501L282.85540665566396,203.9688846080391L283.7475555630339,198.90925672928006L280.1786225945055,195.2135184524823"/><path d="M280.1786225945055,195.2135184524823L275.0909413564927,194.49849148459228"/><path d="M275.0909413564927,194.49849148459228L272.2179867160049,190.23916107029746"/><path d="M283.7475555630339,198.90925672928006L287.79610327756546,195.74618459168997"/><path d="M287.79610327756546,195.74618459168997L289.03902075431597,190.76111487398038"/><path d="M289.03902075431597,190.76111487398038L293.57532364454806,188.34911984237073"/><path d="M283.7475555630339,198.90925672928006L281.33556053142433,194.37295383904802L278.76672013425883,189.923591754622L276.0441641078619,185.56659133833017"/><path d="M276.0441641078619,185.56659133833017L271.21632337747565,183.8094010166916"/><path d="M271.21632337747565,183.8094010166916L269.2917142770529,179.04582633427006"/><path d="M278.76672013425883,189.923591754622L280.35435081138087,185.03736695652904L281.7704875605621,180.09871120298075L285.3394205290905,176.40297292618297"/><path d="M285.3394205290905,176.40297292618297L285.87645440728164,171.29343688480776"/><path d="M285.87645440728164,171.29343688480776L290.0329254815692,168.27358388291375"/><path d="M281.78722275483267,208.9942947503501L277.02364807241116,207.06968564992746L272.19580734202486,205.31249532828883L267.3095825439319,203.72486465116677L262.37092679038363,202.3087279019856L257.38585707267407,201.06581042523504L252.36044693036303,199.99762652440378L248.54240603310143,203.4354059895927"/><path d="M248.54240603310143,203.4354059895927L247.65025712573149,208.49503386835173"/><path d="M247.65025712573149,208.49503386835173L243.29325670943962,211.21758989474873"/><path d="M252.36044693036303,199.99762652440378L249.34059392846902,195.84115545011628"/><path d="M249.34059392846902,195.84115545011628L244.40193817492073,194.42501870093508"/><path d="M244.40193817492073,194.42501870093508L242.14972715327363,189.80730179120485"/><path d="M252.36044693036303,199.99762652440378L247.7427300206328,202.24983754605088L243.20642713040073,204.66183257766048L238.7570650459747,207.23067297482595"/><path d="M238.7570650459747,207.23067297482595L236.83245594555203,211.99424765724748"/><path d="M236.83245594555203,211.99424765724748L232.00461521516573,213.75143797888606"/><path d="M243.20642713040073,204.66183257766048L238.37858640001446,202.90464225602184L233.49236160192154,201.3170115788998L229.9234286333931,197.62127330210203"/><path d="M229.9234286333931,197.62127330210203L224.83574739538025,196.90624633421203"/><path d="M224.83574739538025,196.90624633421203L221.96279275489243,192.6469159199172"/><path d="M262.37092679038363,202.3087279019856L260.1187157687366,197.69101099225537L257.70672073712694,193.15470810202328L255.13788033996144,188.70534601759724L252.41532431356453,184.34834560130543L252.05693781812906,179.2231799391705L251.51990393993793,174.1136438977953L247.0705418555119,171.54480350062977"/><path d="M247.0705418555119,171.54480350062977L241.9828606174991,172.2598304685198"/><path d="M241.9828606174991,172.2598304685198L238.04716879448267,168.95739291139935"/><path d="M251.51990393993793,174.1136438977953L254.53975694183194,169.95717282350776"/><path d="M254.53975694183194,169.95717282350776L254.36045446789169,164.8226217655012"/><path d="M254.36045446789169,164.8226217655012L258.0561927446895,161.25368879697274"/><path d="M251.51990393993793,174.1136438977953L247.95097097140945,170.41790562099752L244.25523269461172,166.8489726524691L240.43719179735007,163.41119318728013"/><path d="M240.43719179735007,163.41119318728013L235.31202613521515,163.05280669184467"/><path d="M235.31202613521515,163.05280669184467L232.14895399762503,159.00425897731316"/><path d="M244.25523269461172,166.8489726524691L244.43453516855197,161.71442159446252L244.43453516855197,156.57674080013155L246.8465302001616,152.0404379098995"/><path d="M246.8465302001616,152.0404379098995L245.95438129279162,146.98081003114038"/><path d="M245.95438129279162,146.98081003114038L249.1174534303817,142.93226231660884"/><path d="M291.1099522447361,227.29118158721707L293.36216326638305,222.6734646774868L295.45184630586425,217.97995972500814L297.37645540628705,213.2163850425866L299.13364572792557,208.38854431220034L300.72127640504766,203.50231951410743L302.13741315422885,198.56366376055908L303.38033063097936,193.5785940428495L304.44851453181064,188.55318390053853L307.7509520889311,184.61749207752214L310.9140242265211,180.56894436299066L313.9338772284152,176.41247328870315L316.80683186890303,172.15314287440833L315.04964154726446,167.32530214402206L313.1250324468418,162.56172746160053L308.1399627291321,161.31880998485"/><path d="M308.1399627291321,161.31880998485L303.4464577766534,163.40849302433116"/><path d="M303.4464577766534,163.40849302433116L298.7529528241747,161.31880998485"/><path d="M313.1250324468418,162.56172746160053L314.88222276848035,157.7338867312142"/><path d="M314.88222276848035,157.7338867312142L313.2945920913583,152.8476619331213"/><path d="M313.2945920913583,152.8476619331213L315.8634324885238,148.39829984869522"/><path d="M313.1250324468418,162.56172746160053L308.67567036241576,159.99288706443502L304.13936747218355,157.5808920328254L299.5216505624534,155.3286810111783"/><path d="M299.5216505624534,155.3286810111783L294.4962404201424,156.3968649120096"/><path d="M294.4962404201424,156.3968649120096L290.3397693458548,153.37701191011556"/><path d="M304.13936747218355,157.5808920328254L302.89644999543304,152.59582231511575L301.48031324625185,147.65716656156744L302.5484971470832,142.63175641925645"/><path d="M302.5484971470832,142.63175641925645L300.29628612543604,138.01403950952616"/><path d="M300.29628612543604,138.01403950952616L302.2208952258588,133.2504648271046"/><path d="M316.80683186890303,172.15314287440833L321.7919015866127,170.91022539765777L326.73055734016094,169.4940886484766L328.48774766179963,164.66624791809028"/><path d="M328.48774766179963,164.66624791809028L326.90011698467754,159.78002311999734"/><path d="M326.90011698467754,159.78002311999734L329.46895738184304,155.33066103557132"/><path d="M326.73055734016094,169.4940886484766L331.34827424989123,171.7462996701237"/><path d="M331.34827424989123,171.7462996701237L336.3736843922022,170.67811576929242"/><path d="M336.3736843922022,170.67811576929242L340.5301554664897,173.69796877118645"/><path d="M326.73055734016094,169.4940886484766L329.750410342055,165.33761757418907L332.62336498254285,161.07828715989424L335.34592100893974,156.72128674360243"/><path d="M335.34592100893974,156.72128674360243L334.8088871307486,151.6117507022272"/><path d="M334.8088871307486,151.6117507022272L338.24666659593754,147.79370980496554"/><path d="M332.62336498254285,161.07828715989424L337.7110462205556,160.36326019200425L342.7706740993147,159.47111128463428L347.65689889740764,161.0587419617563"/><path d="M347.65689889740764,161.0587419617563L352.4847396277939,159.30155164011774"/><path d="M352.4847396277939,159.30155164011774L357.021042518026,161.71354667172733"/><path d="M316.80683186890303,172.15314287440833L316.4484453734676,167.0279772122734L315.91141149527647,161.9184411708982L315.19638452738644,156.83075993288543L314.3042356200165,151.77113205412638L313.23605171918524,146.7457219118154L311.9931342424346,141.76065219410575L307.2295595600131,139.83604309368306"/><path d="M307.2295595600131,139.83604309368306L302.29090380646477,141.25217984286425"/><path d="M302.29090380646477,141.25217984286425L297.93390339017293,138.52962381646734"/><path d="M311.9931342424346,141.76065219410575L314.40512927404427,137.2243493038737"/><path d="M314.40512927404427,137.2243493038737L313.5129803666743,132.1647214251146"/><path d="M313.5129803666743,132.1647214251146L316.6760525042644,128.1161737105831"/><path d="M311.9931342424346,141.76065219410575L307.9445865279031,138.59758005651565L303.78811545361555,135.57772705462162L299.5287850393207,132.7047724141338"/><path d="M299.5287850393207,132.7047724141338L294.4036193771858,133.06315890956924"/><path d="M294.4036193771858,133.06315890956924L290.7078811003881,129.4942259410408"/><path d="M303.78811545361555,135.57772705462162L303.25108157542445,130.4681910132464L302.5360546075344,125.38050977523363L304.293244929173,120.55266904484729"/><path d="M304.293244929173,120.55266904484729L302.70561425205096,115.66644424675438"/><path d="M302.70561425205096,115.66644424675438L305.27445464921647,111.21708216232832"/><path d="M314.3042356200165,151.77113205412638L317.46730775760653,147.72258433959485L320.4871607595006,143.5661132653073L323.36011539998844,139.30678285101246L326.08267142638533,134.94978243472067L330.5320335108114,132.38094203755514L334.8890339271033,129.65838601115823L335.2474204225387,124.53322034902331"/><path d="M335.2474204225387,124.53322034902331L332.37446578205083,120.27388993472849"/><path d="M332.37446578205083,120.27388993472849L333.6173832588014,115.28882021701887"/><path d="M334.8890339271033,129.65838601115823L339.9486618058623,130.55053491852817"/><path d="M339.9486618058623,130.55053491852817L344.4849646960944,128.13853988691858"/><path d="M344.4849646960944,128.13853988691858L349.3128054264807,129.89573020855715"/><path d="M334.8890339271033,129.65838601115823L336.6462242487419,124.83054528077191L338.2338549258639,119.94432048267898L339.64999167504516,115.00566472913066"/><path d="M339.64999167504516,115.00566472913066L337.72538257462236,110.24209004670908"/><path d="M337.72538257462236,110.24209004670908L339.97759359626946,105.6243731369788"/><path d="M338.2338549258639,119.94432048267898L342.9273598783426,117.85463744319779L347.54507678807283,115.6024264215507L352.6796278460794,115.78172889549097"/><path d="M352.6796278460794,115.78172889549097L356.836098920367,112.76187589359691"/><path d="M356.836098920367,112.76187589359691L361.86150906267807,113.83005979442818"/><path d="M277.05737015157024,299.5854492293658L274.03751714967626,295.4289781550783L270.87444501208614,291.3804304405468L267.57200745496567,287.44473861753045L264.13422798977683,283.62669772026885L260.56529502124835,279.93095944347107L256.8695567444506,276.3620264749426L253.05151584718897,272.9242470097537L249.11582402417267,269.6218094526333L245.0672763096412,266.4587373150432L240.91080523535365,263.4388843131492L236.65147482105886,260.5659296726614L232.29447440476702,257.8433736462644L227.84511232034106,255.2745332490989L223.308809430109,252.86253821748937L218.69109252037876,250.61032719584227L213.99758756790007,248.5206441563611L209.23401288547853,246.59603505593842L204.40617215509226,244.83884473429978L199.51994735699935,243.25121405717778L194.58129160345106,241.8350773079966L189.59622188574147,240.59215983124605L184.5708117434305,239.5239759304147L179.51118386467147,238.63182702304476L174.4235026266587,237.9168000551548L170.8545696581303,241.61253833195255L167.4167901929413,245.43057922921417L164.11435263582086,249.36627105223056L160.95128049823077,253.41481876676204L162.36741724741194,258.35347452031033L163.95504792453397,263.2396993184033L168.84127272262694,264.82732999552536"/><path d="M168.84127272262694,264.82732999552536L173.66911345301324,263.07013967388673"/><path d="M173.66911345301324,263.07013967388673L178.20541634324528,265.4821347054963"/><path d="M163.95504792453397,263.2396993184033L161.8653648850528,267.9332042708819"/><path d="M161.8653648850528,267.9332042708819L163.1082823618034,272.9182739885916"/><path d="M163.1082823618034,272.9182739885916L160.2353277213155,277.1776044028864"/><path d="M163.95504792453397,263.2396993184033L168.2143783388288,266.1126539588911L172.5713787551206,268.83520998528803L177.02074083954668,271.40405038245353"/><path d="M177.02074083954668,271.40405038245353L182.10842207755942,270.6890234145635"/><path d="M182.10842207755942,270.6890234145635L186.04411390057575,273.99146097168403"/><path d="M172.5713787551206,268.83520998528803L173.4635276624906,273.89483786404713L174.53171156332186,278.92024800635807L173.11557481414067,283.8589037599064"/><path d="M173.11557481414067,283.8589037599064L175.0401839145634,288.622478442328"/><path d="M175.0401839145634,288.622478442328L172.7879728929163,293.2401953520582"/><path d="M160.95128049823077,253.41481876676204L155.89165261947173,254.30696767413195L150.86624247716074,255.37515157496327L148.77655943767957,260.06865652744204"/><path d="M148.77655943767957,260.06865652744204L150.01947691443013,265.0537262451516"/><path d="M150.01947691443013,265.0537262451516L147.14652227394225,269.3130566594464"/><path d="M150.86624247716074,255.37515157496327L146.41688039273473,252.8063111777978"/><path d="M146.41688039273473,252.8063111777978L141.3291991547219,253.52133814568782"/><path d="M141.3291991547219,253.52133814568782L137.39350733170556,250.21890058856732"/><path d="M150.86624247716074,255.37515157496327L147.5638049200403,259.3108433979796L144.4007327824502,263.35939111251116L141.38087978055614,267.5158621867987"/><path d="M141.38087978055614,267.5158621867987L141.5601822544964,272.6504132448052"/><path d="M141.5601822544964,272.6504132448052L137.8644439776986,276.21934621333367"/><path d="M144.4007327824502,263.35939111251116L139.2755671203153,263.7177776079466L134.16603107894005,264.2548114861377L129.40245639651852,262.330202385715"/><path d="M129.40245639651852,262.330202385715L124.46380064297017,263.74633913489623"/><path d="M124.46380064297017,263.74633913489623L120.10680022667833,261.0237831084993"/><path d="M160.95128049823077,253.41481876676204L160.95128049823077,258.552499561093L161.13058297217103,263.6870506190995L161.48896946760647,268.81221628123444L162.02600334579765,273.9217523226097L162.74103031368762,279.0094335606224L163.6331792210576,284.06906143938147L168.25089613078782,286.32127246102857"/><path d="M168.25089613078782,286.32127246102857L173.2763062730988,285.2530885601973"/><path d="M173.2763062730988,285.2530885601973L177.43277734738632,288.2729415620913"/><path d="M163.6331792210576,284.06906143938147L160.91062319466067,288.4260618556733"/><path d="M160.91062319466067,288.4260618556733L161.4476570728518,293.5355978970485"/><path d="M161.4476570728518,293.5355978970485L158.0098776076629,297.3536387943102"/><path d="M163.6331792210576,284.06906143938147L167.4512201183192,287.5068409045704L171.38691194133554,290.80927846169084L175.43545965586708,293.97235059928096"/><path d="M175.43545965586708,293.97235059928096L180.57314045019808,293.97235059928096"/><path d="M180.57314045019808,293.97235059928096L184.01091991538698,297.79039149654267"/><path d="M171.38691194133554,290.80927846169084L171.5662144152758,295.94382951969743L171.92460091071126,301.06899518183235L169.83491787123006,305.76250013431104"/><path d="M169.83491787123006,305.76250013431104L171.07783534798062,310.74756985202066"/><path d="M171.07783534798062,310.74756985202066L168.20488070749278,315.0069002663155"/><path d="M162.02600334579765,273.9217523226097L158.5882238806087,277.7397932198713L155.28578632348825,281.67548504288766L152.12271418589816,285.7240327574191L149.10286118400413,289.8805038317067L144.48514427427386,292.1327148533538L139.94884138404183,294.5447098849634L139.2338144161518,299.6323911229762"/><path d="M139.2338144161518,299.6323911229762L141.80265481331728,304.0817532074023"/><path d="M141.80265481331728,304.0817532074023L140.2150241361952,308.9679780054952"/><path d="M139.94884138404183,294.5447098849634L134.96377166633218,293.30179240821286"/><path d="M134.96377166633218,293.30179240821286L130.2702667138535,295.391475447694"/><path d="M130.2702667138535,295.391475447694L125.57676176137481,293.30179240821286"/><path d="M139.94884138404183,294.5447098849634L137.85915834456065,299.2382148374421L135.93454924413794,304.0017895198636L134.17735892249934,308.8296302502499"/><path d="M134.17735892249934,308.8296302502499L135.76498959962137,313.7158550483429"/><path d="M135.76498959962137,313.7158550483429L133.1961492024559,318.1652171327689"/><path d="M135.93454924413794,304.0017895198636L131.10670851375164,305.75897984150225L126.34313383133008,307.68358894192494L121.23359778995486,307.1465550637338"/><path d="M121.23359778995486,307.1465550637338L116.87659737366302,309.86911109013073"/><path d="M116.87659737366302,309.86911109013073L111.93794162011469,308.4529743409496"/><path d="M174.4235026266587,237.9168000551548L171.12106506953825,233.9811082321385L167.68328560434932,230.1630673348768L164.1143526358209,226.46732905807906L160.41861435902314,222.89839608955066L155.3589864802641,223.79054499692063L150.3335763379531,224.85872889775186L148.2438932984719,229.55223385023055"/><path d="M148.2438932984719,229.55223385023055L149.48681077522247,234.53730356794017"/><path d="M149.48681077522247,234.53730356794017L146.61385613473465,238.79663398223497"/><path d="M150.3335763379531,224.85872889775186L145.8842142535271,222.28988850058641"/><path d="M145.8842142535271,222.28988850058641L140.79653301551429,223.0049154684764"/><path d="M140.79653301551429,223.0049154684764L136.86084119249796,219.70247791135597"/><path d="M150.3335763379531,224.85872889775186L147.03113878083266,228.7944207207682L143.86806664324257,232.84296843529972L140.84821364134854,236.99943950958726"/><path d="M140.84821364134854,236.99943950958726L141.02751611528882,242.1339905675938"/><path d="M141.02751611528882,242.1339905675938L137.331777838491,245.70292353612226"/><path d="M143.86806664324257,232.84296843529972L138.74290098110765,233.20135493073516L133.63336493973245,233.73838880892632L128.86979025731088,231.8137797085036"/><path d="M128.86979025731088,231.8137797085036L123.93113450376255,233.22991645768485"/><path d="M123.93113450376255,233.22991645768485L119.57413408747071,230.50736043128788"/><path d="M160.41861435902314,222.89839608955066L160.0602278635877,217.77323042741577L159.52319398539657,212.66369438604056L155.07383190097053,210.09485398887506"/><path d="M155.07383190097053,210.09485398887506L149.98615066295773,210.80988095676506"/><path d="M149.98615066295773,210.80988095676506L146.05045883994137,207.50744339964461"/><path d="M159.52319398539657,212.66369438604056L162.54304698729055,208.50722331175305"/><path d="M162.54304698729055,208.50722331175305L162.36374451335033,203.37267225374646"/><path d="M162.36374451335033,203.37267225374646L166.05948279014808,199.80373928521803"/><path d="M159.52319398539657,212.66369438604056L155.95426101686812,208.9679561092428L152.25852274007036,205.39902314071435L148.44048184280868,201.9612436755254"/><path d="M148.44048184280868,201.9612436755254L143.31531618067376,201.60285718008998"/><path d="M143.31531618067376,201.60285718008998L140.15224404308367,197.55430946555842"/><path d="M152.25852274007036,205.39902314071435L152.43782521401062,200.26447208270778L152.43782521401062,195.1267912883768L154.84982024562024,190.59048839814474"/><path d="M154.84982024562024,190.59048839814474L153.95767133825026,185.5308605193857"/><path d="M153.95767133825026,185.5308605193857L157.12074347584036,181.48231280485416"/><path d="M160.41861435902314,222.89839608955066L155.30907831764796,222.3613622113595L150.18391265551304,222.00297571592404L145.04936159750648,221.82367324198378L139.91168080317553,221.82367324198378L134.777129745169,222.00297571592404L129.65196408303407,222.3613622113595L126.92940805663714,226.71836262765132"/><path d="M126.92940805663714,226.71836262765132L127.46644193482831,231.82789866902652"/><path d="M127.46644193482831,231.82789866902652L124.02866246963936,235.64593956628818"/><path d="M129.65196408303407,222.3613622113595L125.60341636850256,219.19829007376939"/><path d="M125.60341636850256,219.19829007376939L120.46573557417159,219.19829007376939"/><path d="M120.46573557417159,219.19829007376939L117.02795610898264,215.3802491765077"/><path d="M129.65196408303407,222.3613622113595L125.83392318577243,225.7991416765484L122.13818490897467,229.36807464507686L118.56925194044625,233.06381292187461"/><path d="M118.56925194044625,233.06381292187461L118.03221806225508,238.17334896324982"/><path d="M118.03221806225508,238.17334896324982L113.87574698796755,241.19320196514386"/><path d="M122.13818490897467,229.36807464507686L117.01301924683978,229.00968814964142L111.87846818883321,228.8303856757012L107.42910610440718,226.26154527853572"/><path d="M107.42910610440718,226.26154527853572L102.3414248663944,226.97657224642575"/><path d="M102.3414248663944,226.97657224642575L98.40573304337805,223.67413468930528"/><path d="M139.91168080317553,221.82367324198378L136.4739013379866,218.00563234472213L132.90496836945815,214.3098940679244L129.2092300926604,210.74096109939595L125.39118919539874,207.30318163420705L123.63399887376012,202.47534090382075L121.70938977333742,197.71176622139922L116.72432005562781,196.46884874464868"/><path d="M116.72432005562781,196.46884874464868L112.03081510314911,198.55853178412988"/><path d="M112.03081510314911,198.55853178412988L107.33731015067042,196.46884874464868"/><path d="M121.70938977333742,197.71176622139922L123.46658009497604,192.88392549101292"/><path d="M123.46658009497604,192.88392549101292L121.87894941785399,187.99770069291998"/><path d="M121.87894941785399,187.99770069291998L124.44778981501948,183.54833860849394"/><path d="M121.70938977333742,197.71176622139922L117.26002768891139,195.14292582423374L112.72372479867933,192.73093079262412L108.10600788894908,190.47871977097705"/><path d="M108.10600788894908,190.47871977097705L103.08059774663808,191.54690367180834"/><path d="M103.08059774663808,191.54690367180834L98.92412667235051,188.5270506699143"/><path d="M112.72372479867933,192.73093079262412L111.48080732192876,187.7458610749145L110.06467057274759,182.80720532136618L111.13285447357887,177.7817951790552"/><path d="M111.13285447357887,177.7817951790552L108.8806434519318,173.1640782693249"/><path d="M108.8806434519318,173.1640782693249L110.80525255235449,168.40050358690334"/><path d="M174.4235026266587,237.9168000551548L169.97414054223267,240.4856404523203L165.6171401259409,243.20819647871718L161.35780971164607,246.08115111920503L157.20133863735856,249.10100412109907L153.15279092282705,252.2640762586891L149.21709909981072,255.56651381580957L145.3990582025491,259.0042932809986L141.70331992575134,262.57322624952695L138.1343869572229,266.26896452632474L134.69660749203396,270.08700542358633L131.39416993491352,274.02269724660266L128.2310977973234,278.0712449611342L129.6472345465046,283.0099007146825L131.23486522362663,287.8961255127754L136.12109002171954,289.4837561898975"/><path d="M136.12109002171954,289.4837561898975L140.94893075210584,287.7265658682589"/><path d="M140.94893075210584,287.7265658682589L145.4852336423379,290.1385608998685"/><path d="M131.23486522362663,287.8961255127754L129.14518218414543,292.5896304652541"/><path d="M129.14518218414543,292.5896304652541L130.388099660896,297.5747001829637"/><path d="M130.388099660896,297.5747001829637L127.51514502040817,301.83403059725856"/><path d="M131.23486522362663,287.8961255127754L135.49419563792142,290.7690801532633L139.85119605421323,293.49163617966025L144.30055813863927,296.0604765768257"/><path d="M144.30055813863927,296.0604765768257L149.38823937665205,295.34544960893567"/><path d="M149.38823937665205,295.34544960893567L153.32393119966838,298.64788716605614"/><path d="M139.85119605421323,293.49163617966025L140.7433449615832,298.5512640584193L141.81152886241443,303.5766742007303L140.3953921132333,308.5153299542786"/><path d="M140.3953921132333,308.5153299542786L142.32000121365598,313.27890463670013"/><path d="M142.32000121365598,313.27890463670013L140.06779019200889,317.8966215464304"/><path d="M128.2310977973234,278.0712449611342L123.17146991856433,278.96339386850417L118.14605977625334,280.03157776933546L116.05637673677217,284.7250827218141"/><path d="M116.05637673677217,284.7250827218141L117.29929421352273,289.7101524395237"/><path d="M117.29929421352273,289.7101524395237L114.4263395730349,293.96948285381853"/><path d="M118.14605977625334,280.03157776933546L113.69669769182732,277.46273737216995"/><path d="M113.69669769182732,277.46273737216995L108.60901645381453,278.17776434005987"/><path d="M108.60901645381453,278.17776434005987L104.67332463079819,274.87532678293945"/><path d="M118.14605977625334,280.03157776933546L114.84362221913291,283.9672695923517L111.6805500815428,288.01581730688326L108.66069707964877,292.1722883811708"/><path d="M108.66069707964877,292.1722883811708L108.83999955358904,297.3068394391774"/><path d="M108.83999955358904,297.3068394391774L105.14426127679127,300.8757724077058"/><path d="M111.6805500815428,288.01581730688326L106.55538441940789,288.3742038023187L101.44584837803266,288.9112376805098L96.68227369561112,286.9866285800872"/><path d="M96.68227369561112,286.9866285800872L91.74361794206277,288.40276532926833"/><path d="M91.74361794206277,288.40276532926833L87.38661752577097,285.6802093028714"/><path d="M128.2310977973234,278.0712449611342L128.2310977973234,283.20892575546515L128.41040027126365,288.34347681347174L128.7687867666991,293.4686424756066L129.30582064489028,298.5781785169818L130.02084761278027,303.66585975499453L130.91299652015022,308.72548763375363L135.53071342988045,310.97769865540073"/><path d="M135.53071342988045,310.97769865540073L140.55612357219144,309.90951475456944"/><path d="M140.55612357219144,309.90951475456944L144.71259464647898,312.9293677564635"/><path d="M130.91299652015022,308.72548763375363L128.19044049375327,313.0824880500454"/><path d="M128.19044049375327,313.0824880500454L128.72747437194445,318.1920240914207"/><path d="M128.72747437194445,318.1920240914207L125.2896949067555,322.01006498868236"/><path d="M130.91299652015022,308.72548763375363L134.7310374174118,312.1632670989426L138.66672924042817,315.465704656063L142.7152769549597,318.6287767936531"/><path d="M142.7152769549597,318.6287767936531L147.85295774929068,318.6287767936531"/><path d="M147.85295774929068,318.6287767936531L151.29073721447958,322.44681769091477"/><path d="M138.66672924042817,315.465704656063L138.84603171436842,320.6002557140696L139.20441820980386,325.7254213762045L137.11473517032266,330.4189263286832"/><path d="M137.11473517032266,330.4189263286832L138.35765264707322,335.40399604639276"/><path d="M138.35765264707322,335.40399604639276L135.4846980065854,339.6633264606876"/><path d="M129.30582064489028,298.5781785169818L125.86804117970131,302.39621941424343L122.56560362258087,306.3319112372598L119.40253148499077,310.38045895179135L116.38267848309675,314.5369300260789L111.7649615733665,316.789141047726L107.22865868313443,319.2011360793356L106.5136317152444,324.28881731734833"/><path d="M106.5136317152444,324.28881731734833L109.08247211240989,328.7381794017744"/><path d="M109.08247211240989,328.7381794017744L107.49484143528784,333.62440419986734"/><path d="M107.22865868313443,319.2011360793356L102.2435889654248,317.958218602585"/><path d="M102.2435889654248,317.958218602585L97.55008401294612,320.0479016420662"/><path d="M97.55008401294612,320.0479016420662L92.85657906046742,317.95821860258496"/><path d="M107.22865868313443,319.2011360793356L105.13897564365325,323.8946410318142L103.21436654323057,328.65821571423584L101.45717622159194,333.4860564446221"/><path d="M101.45717622159194,333.4860564446221L103.044806898714,338.3722812427151"/><path d="M103.044806898714,338.3722812427151L100.4759665015485,342.8216433271411"/><path d="M103.21436654323057,328.65821571423584L98.38652581284425,330.4154060358744L93.6229511304227,332.34001513629715L88.51341508904748,331.80298125810594"/><path d="M88.51341508904748,331.80298125810594L84.15641467275562,334.5255372845029"/><path d="M84.15641467275562,334.5255372845029L79.21775891920727,333.1094005353217"/><path d="M141.70331992575134,262.57322624952695L136.57815426361645,262.21483975409154L131.4436032056099,262.03553728015123L126.30592241127891,262.03553728015123L121.17137135327236,262.21483975409154L116.04620569113746,262.57322624952695L110.93666964976227,263.1102601277181L105.84898841174946,263.82528709560813L100.78936053299043,264.7174360029781L95.9031357348975,263.12980532585595L90.96447998134919,261.7136685766749L85.9794102636396,260.4707510999243L80.95400012132859,259.402567199093L77.13595922406695,262.840346664282L73.44022094726917,266.40927963281035L74.15524791515918,271.49696087082316"/><path d="M74.15524791515918,271.49696087082316L77.85098619195696,275.06589383935165"/><path d="M77.85098619195696,275.06589383935165L77.6716837180167,280.2004448973582"/><path d="M73.44022094726917,266.40927963281035L68.3056698892626,266.58858210675066"/><path d="M68.3056698892626,266.58858210675066L64.36997806624626,269.8910196638711"/><path d="M64.36997806624626,269.8910196638711L59.28229682823347,269.17599269598105"/><path d="M73.44022094726917,266.40927963281035L72.72519397937916,271.49696087082316L72.188160101188,276.60649691219845L71.82977360575255,281.73166257433337"/><path d="M71.82977360575255,281.73166257433337L74.70272824624038,285.99099298862814"/><path d="M74.70272824624038,285.99099298862814L73.4598107694898,290.9760627063378"/><path d="M72.188160101188,276.60649691219845L68.03168902690045,279.62634991409243L63.98314131236893,282.78942205168255L58.92351343360985,283.68157095905246"/><path d="M58.92351343360985,283.68157095905246L55.485733968420874,287.4996118563142"/><path d="M55.485733968420874,287.4996118563142L50.34805317408987,287.4996118563142"/><path d="M80.95400012132859,259.402567199093L77.93414711943457,255.2460961248055L74.77107498184446,251.19754841027392L69.6365239238379,251.3768508842142"/><path d="M69.6365239238379,251.3768508842142L65.70083210082154,254.67928844133465"/><path d="M65.70083210082154,254.67928844133465L60.613150862808766,253.96426147344465"/><path d="M74.77107498184446,251.19754841027392L75.12946147727992,246.072382748139"/><path d="M75.12946147727992,246.072382748139L72.25650683679208,241.81305233384427"/><path d="M72.25650683679208,241.81305233384427L73.49942431354263,236.82798261613465"/><path d="M74.77107498184446,251.19754841027392L69.78600526413483,249.95463093352336L64.76059512182385,248.88644703269208L59.70096724306477,247.9942981253221"/><path d="M59.70096724306477,247.9942981253221L55.1646643528327,250.40629315693172"/><path d="M55.1646643528327,250.40629315693172L50.33682362244638,248.64910283529312"/><path d="M64.76059512182385,248.88644703269208L62.19175472465835,244.43708494826603L59.469198698261415,240.0800845319742L59.11081220282596,234.95491886983928"/><path d="M59.11081220282596,234.95491886983928L55.67303273763702,231.13687797257765"/><path d="M55.67303273763702,231.13687797257765L56.21006661582818,226.0273419312024"/><path d="M80.95400012132859,259.402567199093L76.33628321159834,261.6547782207401L71.79998032136629,264.06677325234966L67.35061823694024,266.6356136495152L62.99361782064843,269.35816967591205L58.734287406353594,272.23112431640004L54.57781633206605,275.250977318294L54.57781633206605,280.38865811262497"/><path d="M54.57781633206605,280.38865811262497L57.74088846965617,284.4372058271565"/><path d="M57.74088846965617,284.4372058271565L56.84873956228619,289.4968337059156"/><path d="M54.57781633206605,275.250977318294L49.46828029069084,274.71394344010287"/><path d="M49.46828029069084,274.71394344010287L45.11127987439903,277.43649946649975"/><path d="M45.11127987439903,277.43649946649975L40.17262412085071,276.0203627173186"/><path d="M54.57781633206605,275.250977318294L53.161679582884865,280.18963307184225L51.918762106134324,285.1747027895519L50.850578205303044,290.2001129318629"/><path d="M50.850578205303044,290.2001129318629L53.10278922695014,294.81782984159315"/><path d="M53.10278922695014,294.81782984159315L51.17818012652743,299.5814045240147"/><path d="M51.918762106134324,285.1747027895519L47.38245921590225,287.5866978211616L42.9330971314762,290.155538218327L37.79854607346964,290.3348406922673"/><path d="M37.79854607346964,290.3348406922673L33.86285425045329,293.6372782493877"/><path d="M33.86285425045329,293.6372782493877L28.77517301244047,292.9222512814977"/><path d="M62.99361782064843,269.35816967591205L58.05496206710011,267.942032926731L53.069892349390486,266.69911544998035L48.0444822070795,265.6309315491491L42.98485432832042,264.73878264177915L38.936306613788894,261.575710504189L34.77983553950134,258.55585750229494L29.89361074140841,260.1434881794171"/><path d="M29.89361074140841,260.1434881794171L27.020656100920576,264.4028185937119"/><path d="M27.020656100920576,264.4028185937119L21.932974862907752,265.1178455616019"/><path d="M34.77983553950134,258.55585750229494L33.71165163867006,253.53044735998395"/><path d="M33.71165163867006,253.53044735998395L29.775959815653717,250.22800980286354"/><path d="M29.775959815653717,250.22800980286354L29.59665734171346,245.0934587448569"/><path d="M34.77983553950134,258.55585750229494L29.64528448149477,258.73515997623525L24.520118819359855,259.09354647167066L19.410582777984615,259.6305803498618"/><path d="M19.410582777984615,259.6305803498618L15.714844501186835,263.1995133183903"/><path d="M15.714844501186835,263.1995133183903L10.589678839051883,262.8411268229548"/><path d="M24.520118819359855,259.09354647167066L20.824380542562082,255.52461350314218L17.006339645300425,252.08683403795325L15.249149323661822,247.25899330756695"/><path d="M15.249149323661822,247.25899330756695L10.89214890736997,244.53643728116998"/><path d="M10.89214890736997,244.53643728116998L10,239.47680940241088"/><path d="M213.99758756790007,248.5206441563611L212.409956890778,243.63441935826816L210.65276656913943,238.80657862788186L208.72815746871674,234.04300394546033L206.63847442923554,229.3494989929817L204.3862634075885,224.7317820832514L201.97426837597888,220.19547919301937L199.4054279788134,215.7461171085933L196.68287195241646,211.3891166923015L193.80991731192867,207.12978627800675L190.79006431003464,202.9733152037192L187.62699217244455,198.9247674891877L184.32455461532413,194.9890756661714L180.88677515013518,191.17103476890975L177.31784218160672,187.47529649211202L173.62210390480897,183.90636352358356L169.8040630075473,180.4685840583946L168.0468726859087,175.6407433280083L166.12226358548602,170.8771686455868L164.03258054600485,166.18366369310814L161.78036952435775,161.56594678337788L159.36837449274816,157.02964389314585L156.79953409558266,152.5802818087198L154.07697806918574,148.22328139242802L151.2040234286979,143.9639509781332L146.06947237069136,143.78464850419297L140.93179157636038,143.78464850419297L135.79724051835382,143.9639509781332L130.6720748562189,144.32233747356867L127.94951882982197,148.67933788986048L125.38067843265648,153.12869997428652L127.47036147213767,157.8222049267652"/><path d="M127.47036147213767,157.8222049267652L132.00666436236975,160.23419995837486"/><path d="M132.00666436236975,160.23419995837486L133.24958183912034,165.2192696760845"/><path d="M125.38067843265648,153.12869997428652L120.49445363456354,154.71633065140855"/><path d="M120.49445363456354,154.71633065140855L117.62149899407571,158.97566106570338"/><path d="M117.62149899407571,158.97566106570338L112.5338177560629,159.69068803359343"/><path d="M125.38067843265648,153.12869997428652L126.09570540054652,158.2163812122993L126.98785430791648,163.2760090910584L128.05603820874776,168.3014192333694"/><path d="M128.05603820874776,168.3014192333694L131.99173003176412,171.6038567904898"/><path d="M131.99173003176412,171.6038567904898L132.17103250570437,176.73840784849637"/><path d="M126.98785430791648,163.2760090910584L123.82478217032636,167.3245568055899L120.80492916843232,171.48102787987747L116.18721225870205,173.73323890152454"/><path d="M116.18721225870205,173.73323890152454L113.93500123705496,178.35095581125483"/><path d="M113.93500123705496,178.35095581125483L108.9963454835066,179.76709256043603"/><path d="M130.6720748562189,144.32233747356867L126.6235271416874,141.15926533597855L122.46705606739987,138.1394123340845L117.58083126930691,139.72704301120658"/><path d="M117.58083126930691,139.72704301120658L114.70787662881906,143.9863734255014"/><path d="M114.70787662881906,143.9863734255014L109.62019539080626,144.7014003933914"/><path d="M122.46705606739987,138.1394123340845L121.3988721665686,133.11400219177352"/><path d="M121.3988721665686,133.11400219177352L117.46318034355224,129.81156463465308"/><path d="M117.46318034355224,129.81156463465308L117.28387786961198,124.6770135766465"/><path d="M122.46705606739987,138.1394123340845L117.3325050093933,138.31871480802477L112.20733934725838,138.6771013034602L107.09780330588316,139.2141351816514"/><path d="M107.09780330588316,139.2141351816514L103.40206502908538,142.78306815017982"/><path d="M103.40206502908538,142.78306815017982L98.27689936695043,142.42468165474438"/><path d="M112.20733934725838,138.6771013034602L108.51160107046059,135.1081683349318L104.69356017319895,131.67038886974285L102.93636985156033,126.84254813935654"/><path d="M102.93636985156033,126.84254813935654L98.5793694352685,124.11999211295958"/><path d="M98.5793694352685,124.11999211295958L97.68722052789852,119.06036423420048"/><path d="M130.6720748562189,144.32233747356867L126.85403395895726,147.7601169387576L123.15829568215949,151.32904990728602L119.58936271363105,155.0247881840838L116.15158324844211,158.84282908134546L112.84914569132167,162.7785209043618L109.68607355373157,166.82706861889335L111.10221030291271,171.76572437244167"/><path d="M111.10221030291271,171.76572437244167L115.25868137720028,174.78557737433567"/><path d="M115.25868137720028,174.78557737433567L115.79571525539144,179.8951134157109"/><path d="M109.68607355373157,166.82706861889335L104.6264456749725,167.7192175262633"/><path d="M104.6264456749725,167.7192175262633L101.18866620978355,171.53725842352497"/><path d="M101.18866620978355,171.53725842352497L96.05098541545256,171.53725842352497"/><path d="M109.68607355373157,166.82706861889335L109.68607355373157,171.96474941322433L109.86537602767181,177.0993004712309L110.22376252310725,182.2244661333658"/><path d="M110.22376252310725,182.2244661333658L113.66154198829622,186.04250703062743"/><path d="M113.66154198829622,186.04250703062743L113.12450811010505,191.1520430720027"/><path d="M109.86537602767181,177.0993004712309L106.16963775087405,180.66823343975932L102.60070478234559,184.3639717165571L97.71447998425265,185.95160239367914"/><path d="M97.71447998425265,185.95160239367914L94.84152534376479,190.21093280797396"/><path d="M94.84152534376479,190.21093280797396L89.75384410575197,190.92595977586396"/><path d="M116.15158324844211,158.84282908134546L111.01390245411115,158.84282908134546L105.87935139610455,159.0221315552857L100.75418573396963,159.38051805072118L95.64464969259441,159.91755192891236L90.88107501017286,157.99294282848962L86.05323427978657,156.23575250685101L81.79390386549174,159.10870714733883"/><path d="M81.79390386549174,159.10870714733883L80.20627318836969,163.99493194543183"/><path d="M80.20627318836969,163.99493194543183L75.51276823589099,166.084614984913"/><path d="M86.05323427978657,156.23575250685101L83.64123924817693,151.69944961661892"/><path d="M83.64123924817693,151.69944961661892L78.94773429569821,149.60976657713775"/><path d="M78.94773429569821,149.60976657713775L77.36010361857616,144.72354177904478"/><path d="M86.05323427978657,156.23575250685101L81.16700948169364,157.82338318397308L76.33916875130733,159.58057350561168L71.57559406888575,161.50518260603437"/><path d="M71.57559406888575,161.50518260603437L69.00675367172025,165.95454469046044"/><path d="M69.00675367172025,165.95454469046044L63.98134352940923,167.02272859129172"/><path d="M76.33916875130733,159.58057350561168L71.80286586107522,157.16857847400203L67.18514895134494,154.91636745235496L64.16529594945088,150.75989637806742"/><path d="M64.16529594945088,150.75989637806742L59.226640195902526,149.34375962888623"/><path d="M59.226640195902526,149.34375962888623L56.97442917425544,144.72604271915594"/><path d="M151.2040234286979,143.9639509781332L151.9190503965879,138.87626974012042L152.45608427477904,133.7667336987452L152.8144707702145,128.6415680366103L152.99377324415474,123.50701697860373L148.94522552962323,120.3439448410136L144.7887544553357,117.32409183911957L139.90252965724275,118.91172251624164"/><path d="M139.90252965724275,118.91172251624164L137.02957501675488,123.17105293053646"/><path d="M137.02957501675488,123.17105293053646L131.94189377874207,123.88607989842646"/><path d="M144.7887544553357,117.32409183911957L143.7205705545044,112.29868169680859"/><path d="M143.7205705545044,112.29868169680859L139.78487873148805,108.99624413968816"/><path d="M139.78487873148805,108.99624413968816L139.6055762575478,103.86169308168158"/><path d="M144.7887544553357,117.32409183911957L139.6542033973291,117.50339431305984L134.5290377351942,117.86178080849528L129.41950169381897,118.39881468668645"/><path d="M129.41950169381897,118.39881468668645L125.72376341702119,121.9677476552149"/><path d="M125.72376341702119,121.9677476552149L120.59859775488626,121.60936115977944"/><path d="M134.5290377351942,117.86178080849528L130.8332994583964,114.29284783996687L127.01525856113476,110.85506837477791L125.25806823949615,106.02722764439159"/><path d="M125.25806823949615,106.02722764439159L120.9010678232043,103.30467161799463"/><path d="M120.9010678232043,103.30467161799463L120.00891891583433,98.24504373923556"/><path d="M152.99377324415474,123.50701697860373L156.5627062126832,119.81127870180593L160.00048567787215,115.9932378045443L158.93230177704083,110.9678276622333"/><path d="M158.93230177704083,110.9678276622333L154.99660995402448,107.66539010511286"/><path d="M154.99660995402448,107.66539010511286L154.81730748008422,102.5308390471063"/><path d="M160.00048567787215,115.9932378045443L165.11002171924736,115.45620392635313"/><path d="M165.11002171924736,115.45620392635313L168.80575999604514,111.8872709578247"/><path d="M168.80575999604514,111.8872709578247L173.93092565818006,112.24565745326015"/><path d="M160.00048567787215,115.9932378045443L160.35887217330756,110.86807214240937L160.53817464724784,105.73352108440281L160.53817464724784,100.59584029007183"/><path d="M160.53817464724784,100.59584029007183L157.37510250965772,96.54729257554031"/><path d="M157.37510250965772,96.54729257554031L158.26725141702767,91.48766469678124"/><path d="M160.53817464724784,105.73352108440281L164.47386647026417,102.43108352728237L168.29190736752582,98.99330406209343L173.27697708523544,97.75038658534285"/><path d="M173.27697708523544,97.75038658534285L176.4400492228256,93.70183887081129"/><path d="M176.4400492228256,93.70183887081129L181.56521488496054,93.34345237537583"/><path d="M152.99377324415474,123.50701697860373L149.97392024226073,119.35054590431616L146.81084810467064,115.30199818978464L143.50841054755017,111.3663063667683L140.07063108236125,107.54826546950663L136.50169811383282,103.85252719270886L132.80595983703503,100.28359422418043L127.74633195827599,101.17574313155039"/><path d="M127.74633195827599,101.17574313155039L124.30855249308703,104.99378402881206"/><path d="M124.30855249308703,104.99378402881206L119.17087169875603,104.99378402881206"/><path d="M132.80595983703503,100.28359422418043L132.44757334159962,95.15842856204551"/><path d="M132.44757334159962,95.15842856204551L129.00979387641064,91.34038766478386"/><path d="M129.00979387641064,91.34038766478386L129.5468277546018,86.23085162340861"/><path d="M132.80595983703503,100.28359422418043L127.69642379565981,99.74656034598927L122.57125813352489,99.3881738505538L117.43670707551833,99.20887137661357"/><path d="M117.43670707551833,99.20887137661357L113.28023600123078,102.22872437850758"/><path d="M113.28023600123078,102.22872437850758L108.25482585891976,101.16054047767629"/><path d="M122.57125813352489,99.3881738505538L119.40818599593477,95.33962613602228L116.1057484388143,91.40393431300593L115.03756453798303,86.3785241706949"/><path d="M115.03756453798303,86.3785241706949L111.10187271496667,83.07608661357443"/><path d="M111.10187271496667,83.07608661357443L110.92257024102643,77.94153555556787"/><path d="M140.07063108236125,107.54826546950663L140.60766496055243,102.43872942813144L140.96605145598784,97.31356376599652L141.14535392992812,92.17901270798995L141.14535392992812,87.04133191365898L143.55734896153774,82.50502902342691L145.8095599831848,77.88731211369667L143.39756495157522,73.35100922346456"/><path d="M143.39756495157522,73.35100922346456L138.70405999909647,71.26132618398337"/><path d="M138.70405999909647,71.26132618398337L137.11642932197444,66.3751013858904"/><path d="M145.8095599831848,77.88731211369667L150.57313466560635,75.96270301327397"/><path d="M150.57313466560635,75.96270301327397L153.14197506277188,71.51334092884791"/><path d="M153.14197506277188,71.51334092884791L158.1673852050829,70.44515702801665"/><path d="M145.8095599831848,77.88731211369667L144.74137608235353,72.86190197138569L143.49845860560296,67.87683225367606L142.08232185642174,62.93817650012774"/><path d="M142.08232185642174,62.93817650012774L137.9258507821342,59.91832349823372"/><path d="M137.9258507821342,59.91832349823372L137.38881690394305,54.80878745685848"/><path d="M143.49845860560296,67.87683225367606L146.37141324609078,63.61750183938124L149.09396927248775,59.26050142308939L153.54333135691377,56.69166102592388"/><path d="M153.54333135691377,56.69166102592388L155.46794045733645,51.928086343502315"/><path d="M155.46794045733645,51.928086343502315L160.2957811877228,50.17089602186367"/><path d="M151.2040234286979,143.9639509781332L146.31779863060498,142.37632030101113L141.37914287705667,140.96018355182994L136.39407315934704,139.7172660750794L131.36866301703606,138.64908217424815L126.30903513827701,137.75693326687818L121.22135390026419,137.04190629898818L116.111817858889,136.504872420797L110.98665219675408,136.14648592536156L105.85210113874754,135.9671834514213L100.71442034441657,135.9671834514213L95.57986928641002,136.14648592536156L90.4547036242751,136.504872420797L87.73214759787818,140.8618728370888L85.16330720071268,145.31123492151488L87.25299024019387,150.0047398739936"/><path d="M87.25299024019387,150.0047398739936L91.78929313042595,152.41673490560325"/><path d="M91.78929313042595,152.41673490560325L93.03221060717651,157.40180462331284"/><path d="M85.16330720071268,145.31123492151488L80.27708240261974,146.89886559863695"/><path d="M80.27708240261974,146.89886559863695L77.4041277621319,151.15819601293177"/><path d="M77.4041277621319,151.15819601293177L72.31644652411909,151.87322298082174"/><path d="M85.16330720071268,145.31123492151488L85.87833416860268,150.39891615952766L86.77048307597265,155.45854403828676L87.83866697680392,160.48395418059775"/><path d="M87.83866697680392,160.48395418059775L91.77435879982028,163.7863917377182"/><path d="M91.77435879982028,163.7863917377182L91.95366127376053,168.92094279572476"/><path d="M86.77048307597265,155.45854403828676L83.60741093838253,159.50709175281827L80.58755793648851,163.66356282710584L75.96984102675823,165.9157738487529"/><path d="M75.96984102675823,165.9157738487529L73.71763000511115,170.5334907584832"/><path d="M73.71763000511115,170.5334907584832L68.77897425156279,171.9496275076644"/><path d="M90.4547036242751,136.504872420797L86.40615590974357,133.3418002832069L82.24968483545602,130.32194728131287L77.36346003736308,131.9095779584349"/><path d="M77.36346003736308,131.9095779584349L74.49050539687526,136.16890837272973"/><path d="M74.49050539687526,136.16890837272973L69.40282415886244,136.8839353406198"/><path d="M82.24968483545602,130.32194728131287L81.18150093462475,125.29653713900188"/><path d="M81.18150093462475,125.29653713900188L77.2458091116084,121.99409958188144"/><path d="M77.2458091116084,121.99409958188144L77.06650663766816,116.85954852387488"/><path d="M82.24968483545602,130.32194728131287L77.11513377744947,130.50124975525313L71.98996811531455,130.8596362506886L66.88043207393935,131.39667012887972"/><path d="M66.88043207393935,131.39667012887972L63.18469379714157,134.96560309740818"/><path d="M63.18469379714157,134.96560309740818L58.05952813500665,134.60721660197274"/><path d="M71.98996811531455,130.8596362506886L68.29422983851677,127.29070328216015L64.47618894125512,123.85292381697121L62.7189986196165,119.0250830865849"/><path d="M62.7189986196165,119.0250830865849L58.361998203324696,116.30252706018791"/><path d="M58.361998203324696,116.30252706018791L57.46984929595473,111.24289918142884"/><path d="M90.4547036242751,136.504872420797L86.63666272701346,139.94265188598595L82.94092445021568,143.5115848545144L79.37199148168723,147.20732313131217L75.9342120164983,151.02536402857382L72.63177445937785,154.96105585159017L69.46870232178775,159.00960356612168L70.88483907096892,163.94825931967"/><path d="M70.88483907096892,163.94825931967L75.04131014525647,166.96811232156404"/><path d="M75.04131014525647,166.96811232156404L75.57834402344764,172.07764836293927"/><path d="M69.46870232178775,159.00960356612168L64.40907444302866,159.90175247349168"/><path d="M64.40907444302866,159.90175247349168L60.97129497783971,163.7197933707533"/><path d="M60.97129497783971,163.7197933707533L55.83361418350871,163.7197933707533"/><path d="M69.46870232178775,159.00960356612168L69.46870232178775,164.14728436045266L69.64800479572799,169.28183541845922L70.00639129116344,174.4070010805941"/><path d="M70.00639129116344,174.4070010805941L73.44417075635239,178.22504197785582"/><path d="M73.44417075635239,178.22504197785582L72.90713687816123,183.33457801923103"/><path d="M69.64800479572799,169.28183541845922L65.95226651893022,172.85076838698765L62.38333355040177,176.54650666378544L57.49710875230881,178.1341373409075"/><path d="M57.49710875230881,178.1341373409075L54.62415411182098,182.39346775520232"/><path d="M54.62415411182098,182.39346775520232L49.53647287380815,183.10849472309232"/><path d="M75.9342120164983,151.02536402857382L70.79653122216733,151.02536402857382L65.66198016416075,151.2046665025141L60.536814502025855,151.56305299794954L55.42727846065064,152.10008687614067L50.66370377822907,150.17547777571798L45.83586304784276,148.4182874540794L41.57653263354793,151.29124209456722"/><path d="M41.57653263354793,151.29124209456722L39.98890195642588,156.1774668926602"/><path d="M39.98890195642588,156.1774668926602L35.295397003947166,158.2671499321414"/><path d="M45.83586304784276,148.4182874540794L43.423868016233115,143.88198456384728"/><path d="M43.423868016233115,143.88198456384728L38.7303630637544,141.79230152436608"/><path d="M38.7303630637544,141.79230152436608L37.14273238663236,136.9060767262731"/><path d="M45.83586304784276,148.4182874540794L40.949638249749825,150.00591813120144L36.12179751936351,151.76310845284004L31.35822283694194,153.68771755326276"/><path d="M31.35822283694194,153.68771755326276L28.78938243977644,158.13707963768883"/><path d="M28.78938243977644,158.13707963768883L23.763972297465415,159.20526353852006"/><path d="M36.12179751936351,151.76310845284004L31.585494629131404,149.35111342123042L26.967777719401123,147.09890239958332L23.947924717507064,142.94243132529576"/><path d="M23.947924717507064,142.94243132529576L19.00926896395871,141.5262945761146"/><path d="M19.00926896395871,141.5262945761146L16.757057942311626,136.9085776663843"/><path d="M110.98665219675408,136.14648592536156L107.82358005916397,132.09793821083002L104.52114250204353,128.1622463878137L101.0833630368546,124.34420549055203L97.51443006832616,120.64846721375426L93.8186917915284,117.0795342452258L90.00065089426674,113.64175478003688L86.0649590712504,110.33931722291643L82.01641135671888,107.17624508532631L79.92672831723769,102.48274013284761L77.67451729559062,97.86502322311735L75.26252226398097,93.32872033288527L72.69368186681547,88.87935824845924L67.58414582544022,88.34232437026807L62.45898016330531,87.98393787483262L59.156542606184836,91.91962969784896"/><path d="M59.156542606184836,91.91962969784896L58.977240132244575,97.05418075585554"/><path d="M58.977240132244575,97.05418075585554L55.04154830922823,100.35661831297601"/><path d="M62.45898016330531,87.98393787483262L58.89004719477686,84.28819959803485"/><path d="M58.89004719477686,84.28819959803485L53.80236595676404,83.57317263014484"/><path d="M53.80236595676404,83.57317263014484L50.9294113162762,79.31384221585"/><path d="M62.45898016330531,87.98393787483262L58.19964974901048,90.85689251532044L54.043178674722924,93.87674551721447L49.99463096019136,97.0398176548046"/><path d="M49.99463096019136,97.0398176548046L48.75171348344079,102.02488737251421"/><path d="M48.75171348344079,102.02488737251421L44.21541059320868,104.43688240412385"/><path d="M54.043178674722924,93.87674551721447L49.0177685324119,92.80856161638319L43.958140653652826,91.91641270901323L39.909592939121254,88.75334057142311"/><path d="M39.909592939121254,88.75334057142311L34.77191214479025,88.75334057142311"/><path d="M34.77191214479025,88.75334057142311L31.33413267960128,84.93529967416141"/><path d="M72.69368186681547,88.87935824845924L73.76186576764674,83.85394810614824L74.65401467501671,78.79432022738916L71.08508170648827,75.0985819505914"/><path d="M71.08508170648827,75.0985819505914L65.99740046847545,74.3835549827014"/><path d="M65.99740046847545,74.3835549827014L63.124445827987614,70.12422456840656"/><path d="M74.65401467501671,78.79432022738916L78.70256238954826,75.63124808979904"/><path d="M78.70256238954826,75.63124808979904L79.94547986629885,70.64617837208942"/><path d="M79.94547986629885,70.64617837208942L84.48178275653096,68.23418334047979"/><path d="M74.65401467501671,78.79432022738916L72.24201964340706,74.25801733715707L69.67317924624156,69.808655252731L66.9506232198446,65.4516548364392"/><path d="M66.9506232198446,65.4516548364392L62.12278248945828,63.69446451480056"/><path d="M62.12278248945828,63.69446451480056L60.19817338903559,58.930889832378995"/><path d="M69.67317924624156,69.808655252731L71.26080992336362,64.92243045463805L72.6769466725448,59.9837747010897L76.24587964107329,56.288036424291924"/><path d="M76.24587964107329,56.288036424291924L76.78291351926444,51.17850038291668"/><path d="M76.78291351926444,51.17850038291668L80.939384593552,48.15864738102262"/><path d="M72.69368186681547,88.87935824845924L67.9301071843939,86.95474914803654L63.10226645400758,85.19755882639792L58.21604165591465,83.60992814927587L53.27738590236633,82.1937914000947L48.29231618465671,80.95087392334415L43.266906042345724,79.88269002251289L39.44886514508407,83.32046948770181"/><path d="M39.44886514508407,83.32046948770181L38.5567162377141,88.3800973664609"/><path d="M38.5567162377141,88.3800973664609L34.199715821422245,91.10265339285786"/><path d="M43.266906042345724,79.88269002251289L40.2470530404517,75.72621894822532"/><path d="M40.2470530404517,75.72621894822532L35.30839728690335,74.31008219904415"/><path d="M35.30839728690335,74.31008219904415L33.056186265256265,69.69236528931387"/><path d="M43.266906042345724,79.88269002251289L38.64918913261544,82.13490104415996L34.11288624238334,84.5468960757696L29.663524157957287,87.1157364729351"/><path d="M29.663524157957287,87.1157364729351L27.738915057534584,91.87931115535667"/><path d="M27.738915057534584,91.87931115535667L22.911074327148267,93.6365014769953"/><path d="M34.11288624238334,84.5468960757696L29.28504551199702,82.78970575413096L24.39882071390405,81.20207507700893L20.82988774537558,77.50633680021114"/><path d="M20.82988774537558,77.50633680021114L15.742206507362752,76.79130983232113"/><path d="M15.742206507362752,76.79130983232113L12.869251866874919,72.53197941802631"/><path d="M53.27738590236633,82.1937914000947L51.02517488071925,77.5760744903644L48.61317984910961,73.03977160013231L46.04433945194411,68.59040951570626L43.32178342554714,64.2334090994144L42.96339693011169,59.108243437279455L42.42636305192053,53.99870739590421L37.977000967494476,51.42986699873871"/><path d="M37.977000967494476,51.42986699873871L32.889319729481656,52.144893966628715"/><path d="M32.889319729481656,52.144893966628715L28.95362790646527,48.84245640950824"/><path d="M42.42636305192053,53.99870739590421L45.44621605381458,49.84223632161666"/><path d="M45.44621605381458,49.84223632161666L45.266913579874334,44.70768526361006"/><path d="M45.266913579874334,44.70768526361006L48.96265185667211,41.13875229508159"/><path d="M42.42636305192053,53.99870739590421L38.85743008339205,50.302969119106436L35.16169180659428,46.734036150577964L31.343650909332585,43.29625668538902"/><path d="M31.343650909332585,43.29625668538902L26.21848524719763,42.9378701899536"/><path d="M26.21848524719763,42.9378701899536L23.05541310960751,38.88932247542208"/><path d="M35.16169180659428,46.734036150577964L35.34099428053453,41.59948509257136L35.34099428053453,36.46180429824035L37.75298931214417,31.92550140800825"/><path d="M37.75298931214417,31.92550140800825L36.8608404047742,26.86587352924917"/><path d="M36.8608404047742,26.86587352924917L40.02391254236432,22.817325814717574"/></g></svg>