<svg style="stroke-width: 0.5px; fill: none; width: 180.80113mm; height: 113.00112999999999mm;" width="160.001mm" height="100.001mm" viewBox="0 0 160.001 100.001" xmlns:inkscape="http://www.inkscape.org/namespaces/inkscape" xmlns="http://www.w3.org/2000/svg"><g inkscape:groupmode="layer" inkscape:label="% Background"><rect width="100%" height="100%" fill="white"></rect></g><g class="red" inkscape:groupmode="layer" inkscape:label="1 red" id="layer1"><path d="M 36.488438710852456 50 L 36.488438710852456 50 L 36.488438710852456 50 L 36.488438710852456 50 L 36.488438710852456 50 L 36.488438710852456 50 L 36.488438710852456 50 L 36.488438710852456 50 L 36.488438710852456 50 L 36.488438710852456 50 L 36.488438710852456 50 L 36.488438710852456 50 L 36.488438710852456 50 L 36.488438710852456 50 L 36.488438710852456 50 M 39.00908281879425 50 L 39.00908281879425 50 L 38.655925636016946 50.69660620013146 L 37.95997213234906 50.91462306513372 L 37.431401562746714 50.84620714075242 L 36.99324428680859 50.884401182444854 L 36.34738546408449 50.8693275449319 L 35.743776696345265 50.390637026413366 L 35.743776696345265 49.60936297358664 L 36.34738546408449 49.1306724550681 L 36.99324428680858 49.11559881755515 L 37.431401562746714 49.15379285924758 L 37.95997213234906 49.08537693486629 L 38.655925636016946 49.303393799868545 L 39.00908281879425 50 M 41.52972692673603 50 L 41.52972692673603 50 L 40.82341256118143 51.39321240026292 L 39.43150555384566 51.829246130267435 L 38.37436441464098 51.69241428150485 L 37.49804986276472 51.768802364889694 L 36.20633221731652 51.7386550898638 L 34.99911468183807 50.78127405282674 L 34.99911468183807 49.21872594717327 L 36.20633221731652 48.2613449101362 L 37.49804986276472 48.23119763511031 L 38.37436441464098 48.307585718495154 L 39.43150555384565 48.17075386973257 L 40.82341256118143 48.60678759973709 L 41.52972692673603 50 M 44.050371034677816 50 L 44.050371034677816 50 L 42.99089948634591 52.08981860039438 L 40.903038975342255 52.74386919540115 L 39.31732726653524 52.53862142225727 L 38.00285543872084 52.65320354733454 L 36.065278970548555 52.607982634795704 L 34.25445266733088 51.1719110792401 L 34.25445266733088 48.82808892075991 L 36.065278970548555 47.39201736520431 L 38.00285543872084 47.346796452665465 L 39.31732726653524 47.461378577742735 L 40.903038975342255 47.256130804598854 L 42.99089948634591 47.91018139960563 L 44.050371034677816 50 M 46.57101514261961 50 L 46.57101514261961 50 L 45.15838641151039 52.786424800525836 L 42.37457239683886 53.658492260534864 L 40.2602901184295 53.384828563009684 L 38.50766101467698 53.53760472977938 L 35.92422572378059 53.4773101797276 L 33.50979065282369 51.56254810565347 L 33.50979065282368 48.43745189434654 L 35.92422572378059 46.52268982027241 L 38.50766101467698 46.46239527022062 L 40.2602901184295 46.615171436990316 L 42.37457239683886 46.341507739465136 L 45.15838641151039 47.21357519947417 L 46.57101514261961 50 M 49.09165925056139 50 L 49.09165925056139 50 L 47.32587333667487 53.48303100065729 L 43.84610581833545 54.57311532566858 L 41.20325297032376 54.23103570376212 L 39.0124665906331 54.422005912224236 L 35.78317247701262 54.34663772465949 L 32.76512863831649 51.95318513206683 L 32.76512863831649 48.04681486793317 L 35.78317247701262 45.65336227534051 L 39.0124665906331 45.57799408777577 L 41.20325297032376 45.76896429623789 L 43.84610581833545 45.42688467433142 L 47.32587333667487 46.516968999342716 L 49.09165925056139 50 M 51.612303358503176 50 L 51.612303358503176 50 L 49.49336026183936 54.179637200788754 L 45.317639239832054 55.4877383908023 L 42.14621582221802 55.07724284451454 L 39.51727216658924 55.30640709466908 L 35.642119230244646 55.215965269591386 L 32.0204666238093 52.3438221584802 L 32.0204666238093 47.656177841519806 L 35.64211923024465 44.784034730408614 L 39.51727216658924 44.69359290533093 L 42.14621582221802 44.92275715548547 L 45.317639239832054 44.5122616091977 L 49.49336026183936 45.82036279921126 L 51.612303358503176 50 M 54.13294746644497 50 L 54.13294746644497 50 L 51.66084718700384 54.8762434009202 L 46.78917266132866 56.402361455936024 L 43.08917867411228 55.923449985266956 L 40.02207774254536 56.19080827711392 L 35.501065983476686 56.085292814523285 L 31.27580460930211 52.734459184893566 L 31.275804609302103 47.26554081510645 L 35.501065983476686 43.914707185476715 L 40.02207774254536 43.809191722886084 L 43.08917867411228 44.07655001473305 L 46.78917266132865 43.59763854406399 L 51.66084718700384 45.1237565990798 L 54.13294746644497 50 M 56.65359157438675 50 L 56.65359157438675 50 L 53.82833411216832 55.572849601051665 L 48.260706082825266 57.31698452106974 L 44.03214152600654 56.76965712601938 L 40.52688331850149 57.07520945955877 L 35.36001273670871 56.954620359455184 L 30.531142594794918 53.125096211306925 L 30.531142594794915 46.87490378869308 L 35.36001273670872 43.045379640544816 L 40.52688331850149 42.92479054044123 L 44.03214152600654 43.230342873980625 L 48.26070608282525 42.683015478930265 L 53.82833411216832 44.42715039894834 L 56.65359157438675 50 M 59.17423568232854 50 L 59.17423568232854 50 L 55.9958210373328 56.26945580118313 L 49.73223950432185 58.23160758620345 L 44.9751043779008 57.6158642667718 L 41.03168889445762 57.95961064200361 L 35.21895948994075 57.82394790438708 L 29.786480580287723 53.5157332377203 L 29.786480580287723 46.48426676227972 L 35.21895948994075 42.17605209561292 L 41.031688894457616 42.04038935799639 L 44.9751043779008 42.384135733228206 L 49.73223950432185 41.76839241379655 L 55.9958210373328 43.73054419881688 L 59.17423568232854 50 M 61.69487979027033 50 L 61.69487979027033 50 L 58.16330796249729 56.96606200131458 L 51.20377292581846 59.14623065133717 L 45.91806722979506 58.46207140752423 L 41.53649447041375 58.844011824448465 L 35.07790624317278 58.69327544931899 L 29.041818565780524 53.906370264133656 L 29.041818565780524 46.093629735866344 L 35.077906243172784 41.30672455068102 L 41.53649447041374 41.15598817555154 L 45.91806722979506 41.53792859247578 L 51.20377292581845 40.85376934866284 L 58.16330796249729 43.033937998685424 L 61.69487979027033 50 M 64.21552389821211 50 L 64.21552389821211 50 L 60.330794887661774 57.66266820144604 L 52.675306347315065 60.06085371647089 L 46.861030081689314 59.30827854827665 L 42.04130004636988 59.728413006893305 L 34.93685299640481 59.56260299425089 L 28.29715655127334 54.29700729054703 L 28.297156551273336 45.702992709452985 L 34.93685299640481 40.43739700574912 L 42.04130004636988 40.271586993106695 L 46.861030081689314 40.69172145172336 L 52.67530634731505 39.93914628352912 L 60.330794887661774 42.33733179855396 L 64.21552389821211 50 M 66.7361680061539 50 L 66.7361680061539 50 L 62.49828181282626 58.3592744015775 L 54.14683976881165 60.975476781604605 L 47.80399293358357 60.154485689029066 L 42.54610562232601 60.61281418933815 L 34.79579974963684 60.43193053918279 L 27.552494536766144 54.687644316960395 L 27.552494536766137 45.31235568303962 L 34.79579974963685 39.56806946081723 L 42.546105622326 39.387185810661855 L 47.80399293358359 39.845514310970934 L 54.14683976881165 39.0245232183954 L 62.49828181282626 41.64072559842251 L 66.7361680061539 49.99999999999999 M 69.25681211409568 50 L 69.25681211409568 50 L 64.66576873799075 59.05588060170896 L 55.61837319030826 61.890099846738316 L 48.74695578547783 61.00069282978149 L 43.05091119828214 61.497215371783 L 34.654746502868875 61.301258084114686 L 26.80783252225895 55.07828134337376 L 26.80783252225895 44.921718656626254 L 34.654746502868875 38.69874191588533 L 43.05091119828213 38.502784628217 L 48.74695578547783 38.999307170218515 L 55.61837319030825 38.109900153261684 L 64.66576873799075 40.94411939829105 L 69.25681211409568 49.99999999999999 M 71.77745622203747 50 L 71.77745622203747 50 L 66.83325566315521 59.75248680184042 L 57.089906611804864 62.804722911872034 L 49.6899186373721 61.84689997053391 L 43.55571677423826 62.38161655422785 L 34.51369325610091 62.17058562904657 L 26.06317050775176 55.468918369787126 L 26.063170507751757 44.53108163021289 L 34.513693256100915 37.82941437095343 L 43.55571677423826 37.61838344577216 L 49.6899186373721 38.153100029466096 L 57.08990661180485 37.19527708812797 L 66.83325566315523 40.247513198159595 L 71.77745622203747 49.99999999999999 M 74.29810032997926 50 L 74.29810032997926 50 L 69.0007425883197 60.44909300197187 L 58.56144003330145 63.71934597700575 L 50.63288148926635 62.69310711128634 L 44.0605223501944 63.266017736672694 L 34.37264000933294 63.03991317397847 L 25.318508493244565 55.859555396200484 L 25.318508493244565 44.140444603799516 L 34.37264000933295 36.96008682602154 L 44.0605223501944 36.73398226332731 L 50.63288148926636 37.30689288871367 L 58.56144003330145 36.280654022994256 L 69.00074258831971 39.55090699802814 L 74.29810032997926 49.99999999999999 M 76.81874443792105 50 L 76.81874443792105 50 L 71.16822951348419 61.14569920210333 L 60.03297345479806 64.63396904213948 L 51.57584434116062 63.53931425203876 L 44.56532792615052 64.15041891911754 L 34.231586762564966 63.90924071891037 L 24.573846478737373 56.25019242261386 L 24.57384647873737 43.74980757738616 L 34.23158676256498 36.09075928108963 L 44.56532792615052 35.84958108088246 L 51.57584434116062 36.46068574796125 L 60.03297345479805 35.36603095786053 L 71.16822951348419 38.85430079789668 L 76.81874443792105 49.99999999999999" stroke-linecap="round" stroke-linejoin="round" style="stroke: red;"></path></g><g class="orange" inkscape:groupmode="layer" inkscape:label="2 orange" id="layer2"><path d="M 79.33938854586283 50 L 79.33938854586283 50 L 73.33571643864867 61.84230540223479 L 61.50450687629466 65.54859210727318 L 52.518807193054876 64.38552139279118 L 45.07013350210666 65.03482010156239 L 34.090533515797006 64.77856826384227 L 23.829184464230178 56.64082944902722 L 23.829184464230178 43.35917055097279 L 34.090533515797006 35.22143173615774 L 45.07013350210665 34.965179898437626 L 52.518807193054876 35.614478607208824 L 61.50450687629465 34.45140789272682 L 73.33571643864867 38.15769459776522 L 79.33938854586283 49.99999999999999 M 81.86003265380462 50 L 81.86003265380462 50 L 75.50320336381316 62.538911602366255 L 62.97604029779126 66.4632151724069 L 53.46177004494914 65.23172853354359 L 45.57493907806279 65.91922128400724 L 33.94948026902904 65.64789580877417 L 23.084522449722986 57.03146647544059 L 23.08452244972298 42.968533524559426 L 33.94948026902904 34.352104191225834 L 45.574939078062776 34.08077871599277 L 53.46177004494914 34.768271466456405 L 62.97604029779126 33.536784827593095 L 75.50320336381316 37.46108839763376 L 81.86003265380462 49.99999999999999 M 84.38067676174641 50 L 84.38067676174641 50 L 77.67069028897764 63.235517802497704 L 64.44757371928786 67.37783823754063 L 54.4047328968434 66.07793567429601 L 46.07974465401891 66.80362246645208 L 33.808427022261064 66.51722335370606 L 22.33986043521579 57.422103501853954 L 22.33986043521579 42.57789649814606 L 33.80842702226108 33.48277664629394 L 46.07974465401891 33.19637753354793 L 54.4047328968434 33.922064325703985 L 64.44757371928785 32.622161762459385 L 77.67069028897764 36.7644821975023 L 84.38067676174641 49.99999999999999 M 86.90132086968819 50 L 86.90132086968819 50 L 79.83817721414212 63.93212400262916 L 65.91910714078446 68.29246130267434 L 55.34769574873766 66.92414281504844 L 46.584550229975044 67.68802364889692 L 33.6673737754931 67.38655089863798 L 21.5951984207086 57.81274052826731 L 21.5951984207086 42.18725947173269 L 33.667373775493104 32.61344910136204 L 46.58455022997503 32.311976351103084 L 55.34769574873766 33.07585718495156 L 65.91910714078445 31.707538697325667 L 79.83817721414212 36.06787599737085 L 86.90132086968819 49.99999999999999 M 89.42196497762998 50 L 89.42196497762998 50 L 82.0056641393066 64.62873020276062 L 67.39064056228105 69.20708436780805 L 56.290658600631915 67.77034995580087 L 47.08935580593117 68.57242483134176 L 33.52632052872514 68.25587844356986 L 20.850536406201407 58.203377554680685 L 20.850536406201403 41.79662244531933 L 33.52632052872514 31.74412155643014 L 47.08935580593116 31.427575168658233 L 56.29065860063192 32.22965004419914 L 67.39064056228105 30.792915632191953 L 82.00566413930662 35.371269797239385 L 89.42196497762998 49.99999999999999 M 91.94260908557177 50 L 91.94260908557177 50 L 84.17315106447109 65.32533640289208 L 68.86217398377765 70.12170743294178 L 57.23362145252617 68.6165570965533 L 47.5941613818873 69.45682601378661 L 33.38526728195717 69.12520598850176 L 20.105874391694215 58.59401458109405 L 20.10587439169421 41.40598541890596 L 33.38526728195717 30.874794011498242 L 47.5941613818873 30.543173986213393 L 57.23362145252618 31.383442903446714 L 68.86217398377765 29.878292567058235 L 84.17315106447109 34.67466359710793 L 91.94260908557177 49.99999999999999 M 94.46325319351355 50 L 94.46325319351355 50 L 86.34063798963557 66.02194260302355 L 70.33370740527425 71.03633049807547 L 58.176584304420444 69.46276423730572 L 48.09896695784342 70.34122719623147 L 33.244214035189195 69.99453353343367 L 19.361212377187023 58.984651607507416 L 19.361212377187012 41.0153483924926 L 33.2442140351892 30.00546646656635 L 48.09896695784342 29.658772803768542 L 58.176584304420444 30.537235762694298 L 70.33370740527425 28.96366950192452 L 86.34063798963558 33.97805739697647 L 94.46325319351355 49.99999999999999 M 96.98389730145534 50 L 96.98389730145534 50 L 88.50812491480006 66.718548803155 L 71.80524082677086 71.9509535632092 L 59.11954715631469 70.30897137805815 L 48.60377253379956 71.2256283786763 L 33.10316078842123 70.86386107836555 L 18.616550362679828 59.37528863392078 L 18.616550362679817 40.62471136607923 L 33.103160788421235 29.13613892163445 L 48.60377253379955 28.774371621323702 L 59.1195471563147 29.691028621941868 L 71.80524082677084 28.049046436790803 L 88.50812491480006 33.28145119684501 L 96.98389730145534 49.99999999999999 M 99.50454140939713 50 L 99.50454140939713 50 L 90.67561183996453 67.41515500328646 L 73.27677424826746 72.86557662834292 L 60.06251000820896 71.15517851881054 L 49.10857810975569 72.11002956112114 L 32.96210754165326 71.73318862329745 L 17.871888348172636 59.76592566033414 L 17.871888348172625 40.23407433966586 L 32.96210754165327 28.26681137670255 L 49.10857810975568 27.88997043887885 L 60.06251000820896 28.84482148118945 L 73.27677424826744 27.134423371657082 L 90.67561183996455 32.58484499671356 L 99.50454140939713 49.99999999999999 M 102.02518551733891 50 L 102.02518551733891 50 L 92.84309876512903 68.1117612034179 L 74.74830766976406 73.78019969347665 L 61.00547286010322 72.00138565956297 L 49.613383685711824 72.994430743566 L 32.82105429488529 72.60251616822936 L 17.12722633366544 60.15656268674751 L 17.127226333665433 39.8434373132525 L 32.82105429488529 27.39748383177065 L 49.61338368571181 27.005569256434008 L 61.00547286010322 27.998614340437026 L 74.74830766976405 26.219800306523368 L 92.84309876512903 31.888238796582097 L 102.02518551733891 49.99999999999999 M 104.5458296252807 50 L 104.5458296252807 50 L 95.0105856902935 68.80836740354937 L 76.21984109126065 74.69482275861034 L 61.948435711997476 72.8475928003154 L 50.11818926166794 73.87883192601083 L 32.680001048117326 73.47184371316126 L 16.38256431915825 60.54719971316088 L 16.382564319158245 39.452800286839135 L 32.68000104811733 26.52815628683875 L 50.118189261667936 26.12116807398916 L 61.948435711997476 27.152407199684603 L 76.21984109126065 25.305177241389657 L 95.0105856902935 31.191632596450642 L 104.5458296252807 49.99999999999999 M 107.0664737332225 50 L 107.0664737332225 50 L 97.17807261545798 69.50497360368084 L 77.69137451275725 75.60944582374407 L 62.891398563891734 73.69379994106782 L 50.62299483762408 74.7632331084557 L 32.53894780134936 74.34117125809314 L 15.637902304651062 60.937836739574244 L 15.637902304651051 39.06216326042577 L 32.538947801349366 25.65882874190686 L 50.62299483762406 25.236766891544313 L 62.89139856389175 26.306200058932184 L 77.69137451275725 24.390554176255936 L 97.17807261545799 30.495026396319183 L 107.0664737332225 49.99999999999999 M 109.58711784116427 50 L 109.58711784116427 50 L 99.34555954062247 70.20157980381228 L 79.16290793425385 76.52406888887779 L 63.83436141578599 74.54000708182025 L 51.1278004135802 75.64763429090056 L 32.397894554581384 75.21049880302505 L 14.893240290143865 61.32847376598761 L 14.893240290143847 38.671526234012404 L 32.3978945545814 24.789501196974957 L 51.1278004135802 24.352365709099466 L 63.83436141578599 25.45999291817976 L 79.16290793425384 23.475931111122218 L 99.34555954062247 29.79842019618772 L 109.58711784116427 49.99999999999999 M 112.10776194910606 50 L 112.10776194910606 50 L 101.51304646578694 70.89818600394375 L 80.63444135575045 77.43869195401149 L 64.77732426768026 75.38621422257268 L 51.63260598953633 76.53203547334539 L 32.25684130781342 76.07982634795695 L 14.14857827563667 61.71911079240097 L 14.14857827563667 38.28088920759904 L 32.25684130781343 23.920173652043058 L 51.63260598953633 23.467964526654622 L 64.77732426768026 24.61378577742734 L 80.63444135575044 22.561308045988504 L 101.51304646578696 29.101813996056265 L 112.10776194910606 49.99999999999999 M 114.62840605704785 50 L 114.62840605704785 50 L 103.68053339095144 71.59479220407519 L 82.10597477724706 78.35331501914521 L 65.72028711957451 76.23242136332507 L 52.13741156549246 77.41643665579022 L 32.11578806104545 76.94915389288883 L 13.403916261129474 62.10974781881434 L 13.403916261129464 37.89025218118567 L 32.115788061045464 23.05084610711116 L 52.13741156549245 22.58356334420977 L 65.72028711957452 23.767578636674912 L 82.10597477724704 21.646684980854786 L 103.68053339095144 28.40520779592481 L 114.62840605704785 49.99999999999999 M 117.14905016498963 50 L 117.14905016498963 50 L 105.8480203161159 72.29139840420666 L 83.57750819874366 79.26793808427894 L 66.66324997146879 77.07862850407753 L 52.64221714144859 78.30083783823508 L 31.974734814277483 77.81848143782074 L 12.659254246622286 62.50038484522771 L 12.659254246622277 37.49961515477231 L 31.97473481427749 22.18151856217926 L 52.64221714144858 21.699162161764928 L 66.66324997146879 22.921371495922493 L 83.57750819874364 20.73206191572107 L 105.8480203161159 27.70860159579335 L 117.14905016498963 49.99999999999999" stroke-linecap="round" stroke-linejoin="round" style="stroke: orange;"></path></g><g class="yellow" inkscape:groupmode="layer" inkscape:label="3 yellow" id="layer3"><path d="M 119.66969427293142 50 L 119.66969427293142 50 L 108.01550724128039 72.98800460433813 L 85.04904162024025 80.18256114941266 L 67.60621282336304 77.92483564482993 L 53.147022717404724 79.18523902067992 L 31.833681567509515 78.68780898275264 L 11.91459223211509 62.89102187164107 L 11.914592232115082 37.10897812835894 L 31.833681567509522 21.31219101724736 L 53.14702271740472 20.814760979320084 L 67.60621282336304 22.07516435517007 L 85.04904162024025 19.81743885058735 L 108.01550724128043 27.01199539566189 L 119.66969427293142 49.99999999999999 M 122.19033838087321 50 L 122.19033838087321 50 L 110.18299416644489 73.68461080446957 L 86.52057504173686 81.09718421454636 L 68.5491756752573 78.77104278558235 L 53.65182829336086 80.06964020312478 L 31.692628320741548 79.55713652768455 L 11.169930217607895 63.28165889805444 L 11.169930217607895 36.718341101945576 L 31.692628320741562 20.442863472315473 L 53.651828293360836 19.930359796875244 L 68.5491756752573 21.22895721441765 L 86.52057504173685 18.902815785453633 L 110.1829941664449 26.31538919553044 L 122.19033838087321 49.99999999999999 M 124.71098248881499 50 L 124.71098248881499 50 L 112.35048109160937 74.38121700460104 L 87.99210846323345 82.01180727968008 L 69.49213852715155 79.61724992633478 L 54.15663386931698 80.95404138556961 L 31.55157507397358 80.42646407261643 L 10.425268203100709 63.67229592446781 L 10.425268203100698 36.32770407553221 L 31.55157507397359 19.573535927383574 L 54.15663386931697 19.04595861443039 L 69.49213852715157 20.382750073665225 L 87.99210846323344 17.988192720319923 L 112.35048109160937 25.61878299539898 L 124.71098248881499 49.999999999999986 M 127.23162659675678 50 L 127.23162659675678 50 L 114.51796801677385 75.07782320473248 L 89.46364188473005 82.92643034481381 L 70.43510137904582 80.4634570670872 L 54.66143944527311 81.83844256801447 L 31.41052182720561 81.29579161754833 L 9.680606188593512 64.06293295088116 L 9.680606188593503 35.937067049118845 L 31.41052182720562 18.704208382451675 L 54.661439445273096 18.161557431985546 L 70.43510137904582 19.536542932912806 L 89.46364188473005 17.073569655186198 L 114.51796801677385 24.922176795267518 L 127.23162659675678 49.999999999999986 M 129.75227070469856 50 L 129.75227070469856 50 L 116.68545494193832 75.77442940486395 L 90.93517530622664 83.84105340994753 L 71.37806423094007 81.30966420783963 L 55.16624502122924 82.7228437504593 L 31.269468580437643 82.16511916248024 L 8.935944174086325 64.45356997729453 L 8.935944174086316 35.54643002270548 L 31.269468580437657 17.834880837519776 L 55.16624502122923 17.277156249540703 L 71.37806423094008 18.690335792160383 L 90.93517530622664 16.158946590052484 L 116.68545494193836 24.22557059513606 L 129.75227070469856 49.999999999999986 M 132.27291481264035 50 L 132.27291481264035 50 L 118.85294186710281 76.47103560499542 L 92.40670872772326 84.75567647508123 L 72.32102708283433 82.15587134859206 L 55.67105059718536 83.60724493290414 L 31.128415333669682 83.03444670741212 L 8.191282159579119 64.84420700370791 L 8.191282159579119 35.15579299629211 L 31.12841533366969 16.965553292587877 L 55.67105059718536 16.392755067095855 L 72.32102708283433 17.844128651407964 L 92.40670872772324 15.244323524918773 L 118.85294186710281 23.528964395004607 L 132.27291481264035 49.999999999999986 M 134.79355892058214 50 L 134.79355892058214 50 L 121.02042879226731 77.16764180512686 L 93.87824214921984 85.67029954021496 L 73.2639899347286 83.00207848934446 L 56.17585617314149 84.491646115349 L 30.98736208690171 83.90377425234402 L 7.446620145071942 65.23484403012127 L 7.446620145071924 34.76515596987875 L 30.98736208690172 16.09622574765598 L 56.17585617314148 15.508353884651006 L 73.2639899347286 16.997921510655537 L 93.87824214921983 14.329700459785052 L 121.02042879226731 22.832358194873144 L 134.79355892058214 49.999999999999986 M 137.31420302852393 50 L 137.31420302852393 50 L 123.18791571743178 77.86424800525833 L 95.34977557071646 86.58492260534865 L 74.20695278662285 83.84828563009688 L 56.680661749097624 85.37604729779383 L 30.84630884013374 84.77310179727593 L 6.701958130564737 65.62548105653464 L 6.701958130564737 34.37451894346538 L 30.846308840133755 15.226898202724081 L 56.68066174909762 14.623952702206163 L 74.20695278662286 16.151714369903118 L 95.34977557071645 13.415077394651336 L 123.18791571743178 22.13575199474169 L 137.31420302852393 49.999999999999986 M 139.83484713646573 50 L 139.83484713646573 50 L 125.35540264259626 78.56085420538977 L 96.82130899221306 87.49954567048238 L 75.14991563851711 84.69449277084931 L 57.18546732505376 86.2604484802387 L 30.70525559336577 85.64242934220783 L 5.95729611605755 66.016118082948 L 5.957296116057541 33.98388191705202 L 30.705255593365784 14.357570657792182 L 57.185467325053736 13.739551519761317 L 75.14991563851711 15.305507229150694 L 96.82130899221303 12.500454329517616 L 125.35540264259627 21.43914579461023 L 139.83484713646573 49.999999999999986 M 142.35549124440752 50 L 142.35549124440752 50 L 127.52288956776076 79.25746040552124 L 98.29284241370965 88.4141687356161 L 76.09287849041137 85.54069991160173 L 57.69027290100989 87.14484966268353 L 30.56420234659781 86.51175688713971 L 5.212634101550354 66.40675510936137 L 5.212634101550345 33.59324489063866 L 30.564202346597817 13.488243112860282 L 57.69027290100987 12.855150337316466 L 76.09287849041138 14.459300088398274 L 98.29284241370964 11.585831264383906 L 127.52288956776077 20.742539594478774 L 142.35549124440752 49.999999999999986 M 144.87613535234928 50 L 144.87613535234928 50 L 129.69037649292522 79.95406660565268 L 99.76437583520627 89.32879180074983 L 77.03584134230564 86.38690705235416 L 58.19507847696601 88.02925084512839 L 30.42314909982984 87.38108443207162 L 4.467972087043167 66.79739213577473 L 4.467972087043148 33.202607864225286 L 30.423149099829846 12.618915567928383 L 58.195078476966 11.970749154871623 L 77.03584134230564 13.613092947645852 L 99.76437583520624 10.671208199250188 L 129.69037649292525 20.045933394347312 L 144.87613535234928 49.999999999999986 M 147.39677946029107 50 L 147.39677946029107 50 L 131.85786341808972 80.65067280578415 L 101.23590925670285 90.24341486588355 L 77.97880419419988 87.23311419310659 L 58.699884052922144 88.91365202757322 L 30.282095853061875 88.25041197700352 L 3.723310072535971 67.18802916218809 L 3.723310072535962 32.81197083781193 L 30.282095853061875 11.749588022996484 L 58.69988405292213 11.086347972426783 L 77.97880419419991 12.766885806893427 L 101.23590925670284 9.756585134116467 L 131.85786341808972 19.349327194215853 L 147.39677946029107 49.999999999999986 M 149.91742356823286 50 L 149.91742356823286 50 L 134.0253503432542 81.34727900591562 L 102.70744267819944 91.15803793101725 L 78.92176704609416 88.07932133385899 L 59.20468962887827 89.79805321001805 L 30.141042606293905 89.11973952193543 L 2.978648058028775 67.57866618860146 L 2.9786480580287655 32.421333811398554 L 30.141042606293915 10.880260478064589 L 59.204689628878256 10.201946789981932 L 78.92176704609416 11.920678666141004 L 102.70744267819943 8.841962068982747 L 134.0253503432542 18.652720994084397 L 149.91742356823286 49.999999999999986 M 152.43806767617465 50 L 152.43806767617465 50 L 136.19283726841866 82.0438852060471 L 104.17897609969606 92.07266099615097 L 79.86472989798841 88.92552847461141 L 59.7094952048344 90.68245439246292 L 29.999989359525937 89.9890670668673 L 2.2339860435215884 67.96930321501483 L 2.2339860435215693 32.03069678498519 L 29.999989359525944 10.01093293313269 L 59.70949520483438 9.317545607537086 L 79.86472989798843 11.074471525388585 L 104.17897609969604 7.927339003849037 L 136.1928372684187 17.956114793952942 L 152.43806767617465 49.999999999999986 M 154.95871178411645 50 L 154.95871178411645 50 L 138.36032419358315 82.74049140617853 L 105.65050952119266 92.9872840612847 L 80.80769274988268 89.77173561536384 L 60.21430078079052 91.56685557490778 L 29.858936112757966 90.85839461179921 L 1.4893240290143923 68.3599402414282 L 1.4893240290143828 31.640059758571827 L 29.858936112757974 9.14160538820079 L 60.214300780790516 8.433144425092237 L 80.80769274988269 10.228264384636162 L 105.65050952119263 7.012715938715321 L 138.36032419358318 17.259508593821486 L 154.95871178411645 49.999999999999986 M 157.47935589205824 50 L 157.47935589205824 50 L 140.52781111874765 83.43709760631 L 107.12204294268925 93.9019071264184 L 81.75065560177693 90.61794275611626 L 60.71910635674666 92.45125675735261 L 29.717882865989996 91.72772215673112 L 0.7446620145071962 68.75057726784155 L 0.7446620145071771 31.249422732158454 L 29.717882865990013 8.272277843268895 L 60.719106356746636 7.548743242647396 L 81.75065560177694 9.38205724388374 L 107.12204294268923 6.098092873581605 L 140.52781111874765 16.562902393690027 L 157.47935589205824 49.999999999999986 M 160 50 L 160 50 L 142.69529804391215 84.13370380644145 L 108.59357636418584 94.81653019155212 L 82.69361845367119 91.46414989686869 L 61.22391193270279 93.33565793979744 L 29.576829619222025 92.59704970166302 L 9.552135255117517e-15 69.14121429425492 L 0 30.858785705745095 L 29.576829619222046 7.4029502983369975 L 61.22391193270277 6.664342060202542 L 82.6936184536712 8.535850103131315 L 108.59357636418584 5.183469808447889 L 142.69529804391215 15.866296193558567 L 160 49.999999999999986" stroke-linecap="round" stroke-linejoin="round" style="stroke: yellow;"></path></g></svg>