<?xml version="1.0" encoding="UTF-8" standalone="no"?>
<svg
   style="stroke-width: 0.5px; fill: none; width: 180.80113mm; height: 113.00112999999999mm;"
   width="160.001mm"
   height="100.001mm"
   viewBox="0 0 160.001 100.001"
   version="1.1"
   id="svg837"
   sodipodi:docname="art_seed348588_2022-01-15T06.51.27.102Z.svg"
   inkscape:version="1.1 (c4e8f9e, 2021-05-24)"
   xmlns:inkscape="http://www.inkscape.org/namespaces/inkscape"
   xmlns:sodipodi="http://sodipodi.sourceforge.net/DTD/sodipodi-0.dtd"
   xmlns="http://www.w3.org/2000/svg"
   xmlns:svg="http://www.w3.org/2000/svg">
  <defs
     id="defs841" />
  <sodipodi:namedview
     id="namedview839"
     pagecolor="#ffffff"
     bordercolor="#666666"
     borderopacity="1.0"
     inkscape:pageshadow="2"
     inkscape:pageopacity="0.0"
     inkscape:pagecheckerboard="0"
     inkscape:document-units="mm"
     showgrid="false"
     inkscape:zoom="1.6536293"
     inkscape:cx="302.06286"
     inkscape:cy="189.28063"
     inkscape:window-width="1794"
     inkscape:window-height="1326"
     inkscape:window-x="0"
     inkscape:window-y="25"
     inkscape:window-maximized="0"
     inkscape:current-layer="layer3" />
  <g
     inkscape:groupmode="layer"
     inkscape:label="% Background"
     id="g826">
    <rect
       width="100%"
       height="100%"
       fill="white"
       id="rect824" />
  </g>
  <g
     class="red"
     inkscape:groupmode="layer"
     inkscape:label="1 red"
     id="layer1">
    <path
       d="M 42.38342857864377 49.99999999999999 L 42.38342857864377 49.99999999999999 L 42.38342857864377 49.99999999999999 L 42.38342857864377 49.99999999999999 L 42.38342857864377 49.99999999999999 L 42.38342857864377 49.99999999999999 L 42.38342857864377 49.99999999999999 L 42.38342857864377 49.99999999999999 L 42.38342857864377 49.99999999999999 L 42.38342857864377 49.99999999999999 L 42.38342857864377 49.99999999999999 L 42.38342857864377 49.99999999999999 L 42.38342857864377 49.99999999999999 L 42.38342857864377 49.99999999999999 L 42.38342857864377 49.99999999999999 M 41.51846064846737 49.99999999999999 L 41.51846064846737 49.99999999999999 L 42.212837404482734 49.45649665498467 L 43.264074424192934 50.022713381664445 L 43.34811244666341 50.82123463311177 L 43.05738052846109 50.50366774620001 L 43.68917540838094 49.60950396999994 L 44.783766770916344 49.621565218835684 L 44.783766770916344 50.37843478116431 L 43.68917540838094 50.39049603000005 L 43.05738052846109 49.496332253799984 L 43.34811244666341 49.17876536688822 L 43.264074424192934 49.97728661833554 L 42.212837404482734 50.543503345015324 L 41.51846064846737 49.99999999999999 M 40.65349271829096 49.99999999999999 L 40.65349271829096 49.99999999999999 L 42.0422462303217 48.91299330996934 L 44.144720269742095 50.045426763328905 L 44.31279631468305 51.64246926622355 L 43.731332478278404 51.007335492400024 L 44.99492223811811 49.219007939999884 L 47.18410496318892 49.24313043767137 L 47.18410496318892 50.75686956232862 L 44.99492223811811 50.7809920600001 L 43.731332478278404 48.99266450759997 L 44.31279631468305 48.35753073377644 L 44.144720269742095 49.95457323667109 L 42.0422462303217 51.087006690030655 L 40.65349271829096 49.99999999999999 M 39.78852478811456 49.99999999999999 L 39.78852478811456 49.99999999999999 L 41.87165505616067 48.369489964954006 L 45.025366115291256 50.06814014499336 L 45.277480182702696 52.46370389933532 L 44.405284428095726 51.51100323860004 L 46.300669067855274 48.82851190999983 L 49.5844431554615 48.86469565650706 L 49.5844431554615 51.135304343492926 L 46.30066906785527 51.17148809000016 L 44.405284428095726 48.48899676139995 L 45.277480182702696 47.536296100664664 L 45.025366115291256 49.931859855006635 L 41.87165505616066 51.63051003504598 L 39.78852478811456 49.99999999999999 M 38.92355685793816 49.99999999999999 L 38.92355685793816 49.99999999999999 L 41.70106388199964 47.82598661993868 L 45.90601196084042 50.09085352665781 L 46.24216405072234 53.2849385324471 L 45.079236377913034 52.01467098480005 L 47.606415897592434 48.438015879999774 L 51.98478134773407 48.48626087534275 L 51.98478134773407 51.51373912465724 L 47.606415897592434 51.56198412000021 L 45.079236377913034 47.985329015199945 L 46.24216405072234 46.71506146755289 L 45.90601196084042 49.90914647334218 L 41.70106388199963 52.17401338006131 L 38.92355685793816 49.99999999999999 M 38.058588927761754 49.99999999999999 L 38.058588927761754 49.99999999999999 L 41.5304727078386 47.28248327492335 L 46.78665780638958 50.11356690832226 L 47.20684791874198 54.10617316555888 L 45.753188327730356 52.518338731000064 L 48.9121627273296 48.04751984999972 L 54.38511954000665 48.10782609417844 L 54.38511954000665 51.89217390582155 L 48.9121627273296 51.95248015000027 L 45.753188327730356 47.48166126899993 L 47.20684791874198 45.893826834441114 L 46.78665780638958 49.88643309167773 L 41.5304727078386 52.71751672507664 L 38.058588927761754 49.99999999999999 M 37.19362099758535 49.99999999999999 L 37.19362099758535 49.99999999999999 L 41.359881533677566 46.73897992990803 L 47.66730365193874 50.13628028998671 L 48.17153178676161 54.92740779867066 L 46.42714027754768 53.02200647720008 L 50.21790955706677 47.657023819999665 L 56.78545773227923 47.729391313014126 L 56.78545773227923 52.27060868698587 L 50.21790955706677 52.34297618000032 L 46.42714027754768 46.97799352279992 L 48.171531786761626 45.072592201329336 L 47.66730365193874 49.86371971001328 L 41.35988153367756 53.261020070091966 L 37.19362099758535 50 M 36.32865306740894 49.99999999999999 L 36.32865306740894 49.99999999999999 L 41.18929035951653 46.195476584892695 L 48.547949497487906 50.15899367165117 L 49.13621565478125 55.748642431782436 L 47.10109222736499 53.525674223400095 L 51.523656386803935 47.266527789999614 L 59.1857959245518 47.35095653184982 L 59.1857959245518 52.649043468150175 L 51.523656386803935 52.73347221000037 L 47.10109222736499 46.474325776599905 L 49.13621565478126 44.251357568217564 L 48.547949497487906 49.841006328348826 L 41.18929035951653 53.8045234151073 L 36.32865306740894 50 M 35.46368513723254 49.99999999999999 L 35.46368513723254 49.99999999999999 L 41.018699185355494 45.651973239877364 L 49.42859534303707 50.18170705331562 L 50.1008995228009 56.56987706489421 L 47.77504417718231 54.029341969600104 L 52.8294032165411 46.876031759999556 L 61.586134116824375 46.9725217506855 L 61.586134116824375 53.027478249314484 L 52.829403216541095 53.12396824000043 L 47.77504417718231 45.97065803039989 L 50.1008995228009 43.430122935105786 L 49.42859534303707 49.818292946684366 L 41.01869918535549 54.34802676012262 L 35.46368513723254 50 M 34.59871720705614 49.99999999999999 L 34.59871720705614 49.99999999999999 L 40.84810801119446 45.10846989486204 L 50.30924118858621 50.20442043498007 L 51.06558339082054 57.391111698005986 L 48.44899612699962 54.53300971580011 L 54.13515004627828 46.485535729999505 L 63.98647230909695 46.59408696952119 L 63.98647230909695 53.40591303047879 L 54.13515004627826 53.51446427000048 L 48.44899612699962 45.46699028419987 L 51.06558339082054 42.60888830199401 L 50.30924118858623 49.795579565019914 L 40.84810801119445 54.89153010513795 L 34.59871720705614 50 M 33.733749276879735 49.99999999999999 L 33.733749276879735 49.99999999999999 L 40.67751683703343 44.56496654984671 L 51.18988703413539 50.227133816644525 L 52.03026725884018 58.212346331117764 L 49.12294807681694 55.036677462000135 L 55.44089687601543 46.09503969999945 L 66.38681050136952 46.21565218835688 L 66.38681050136952 53.78434781164311 L 55.44089687601543 53.90496030000054 L 49.12294807681694 44.963322537999865 L 52.03026725884018 41.787653668882236 L 51.18988703413539 49.77286618335546 L 40.67751683703342 55.43503345015328 L 33.733749276879735 50 M 32.86878134670333 49.99999999999999 L 32.86878134670333 49.99999999999999 L 40.50692566287239 44.02146320483138 L 52.07053287968454 50.24984719830898 L 52.99495112685983 59.033580964229536 L 49.796900026634255 55.540345208200144 L 56.746643705752604 45.704543669999396 L 68.7871486936421 45.837217407192576 L 68.78714869364211 54.16278259280742 L 56.746643705752604 54.29545633000059 L 49.796900026634255 44.45965479179985 L 52.99495112685983 40.96641903577046 L 52.07053287968455 49.75015280169101 L 40.50692566287238 55.97853679516861 L 32.86878134670333 50 M 32.003813416526924 49.99999999999999 L 32.003813416526924 49.99999999999999 L 40.33633448871136 43.47795985981605 L 52.9511787252337 50.27256057997343 L 53.959634994879465 59.854815597341315 L 50.47085197645157 56.044012954400166 L 58.05239053548977 45.314047639999345 L 71.18748688591468 45.45878262602826 L 71.18748688591468 54.541217373971726 L 58.05239053548977 54.68595236000065 L 50.47085197645157 43.955987045599834 L 53.959634994879465 40.145184402658685 L 52.95117872523371 49.727439420026556 L 40.33633448871135 56.52204014018393 L 32.003813416526924 50 M 31.138845486350522 49.99999999999999 L 31.138845486350522 49.99999999999999 L 40.16574331455032 42.93445651480072 L 53.831824570782864 50.29527396163788 L 54.924318862899106 60.67605023045309 L 51.14480392626889 56.54768070060017 L 59.35813736522694 44.923551609999286 L 73.58782507818725 45.08034784486395 L 73.58782507818727 54.919652155136035 L 59.35813736522694 55.0764483900007 L 51.14480392626889 43.452319299399825 L 54.924318862899106 39.3239497695469 L 53.83182457078287 49.704726038362104 L 40.16574331455031 57.06554348519927 L 31.138845486350522 50 M 30.273877556174117 49.99999999999999 L 30.273877556174117 49.99999999999999 L 39.99515214038929 42.39095316978539 L 54.712470416332025 50.317987343302335 L 55.88900273091875 61.497284863564865 L 51.81875587608621 57.05134844680019 L 60.663884194964105 44.533055579999235 L 75.98816327045984 44.701913063699635 L 75.98816327045984 55.29808693630035 L 60.6638841949641 55.46694442000076 L 51.81875587608621 42.94865155319981 L 55.88900273091875 38.50271513643513 L 54.71247041633203 49.682012656697644 L 39.99515214038928 57.609046830214595 L 30.273877556174117 50 M 29.408909625997715 49.99999999999999 L 29.408909625997715 49.99999999999999 L 39.824560966228255 41.84744982477007 L 55.593116261881185 50.34070072496679 L 56.85368659893838 62.31851949667664 L 52.49270782590352 57.5550161930002 L 61.96963102470127 44.14255954999918 L 78.3885014627324 44.323478282535326 L 78.38850146273242 55.67652171746466 L 61.969631024701265 55.85744045000081 L 52.49270782590352 42.4449838069998 L 56.85368659893838 37.68148050332336 L 55.59311626188119 49.6592992750332 L 39.82456096622824 58.152550175229926 L 29.408909625997715 50 M 28.54394169582131 49.99999999999999 L 28.54394169582131 49.99999999999999 L 39.653969792067215 41.30394647975474 L 56.473762107430346 50.36341410663124 L 57.81837046695804 63.13975412978842 L 53.166659775720845 58.05868393920021 L 63.27537785443844 43.752063519999126 L 80.78883965500498 43.94504350137101 L 80.78883965500498 56.054956498628975 L 63.27537785443843 56.24793648000086 L 53.166659775720845 41.941316060799785 L 57.81837046695804 36.86024587021157 L 56.47376210743036 49.63658589336874 L 39.65396979206721 58.69605352024525 L 28.54394169582131 50"
       stroke-linecap="round"
       stroke-linejoin="round"
       style="stroke: red;"
       id="path828" />
  </g>
  <g
     class="orange"
     inkscape:groupmode="layer"
     inkscape:label="2 orange"
     id="layer2">
    <path
       d="M 27.678973765644905 49.99999999999999 L 27.678973765644905 49.99999999999999 L 39.48337861790619 40.760443134739404 L 57.35440795297951 50.38612748829569 L 58.78305433497767 63.96098876290019 L 53.84061172553816 58.56235168540022 L 64.5811246841756 43.36156748999907 L 83.18917784727756 43.5666087202067 L 83.18917784727756 56.433391279793284 L 64.58112468417559 56.63843251000092 L 53.84061172553816 41.43764831459977 L 58.78305433497767 36.0390112370998 L 57.35440795297952 49.61387251170429 L 39.483378617906176 59.23955686526058 L 27.678973765644905 50 M 26.814005835468503 49.99999999999999 L 26.814005835468503 49.99999999999999 L 39.31278744374515 40.21693978972408 L 58.23505379852867 50.408840869960144 L 59.74773820299731 64.78222339601197 L 54.51456367535547 59.066019431600246 L 65.88687151391278 42.97107145999902 L 85.58951603955013 43.18817393904239 L 85.58951603955013 56.8118260609576 L 65.88687151391275 57.028928540000976 L 54.51456367535548 40.93398056839976 L 59.74773820299731 35.217776603988014 L 58.23505379852868 49.59115913003983 L 39.31278744374514 59.783060210275906 L 26.814005835468503 50.00000000000001 M 25.949037905292098 49.99999999999999 L 25.949037905292098 49.99999999999999 L 39.14219626958411 39.67343644470875 L 59.115699644077836 50.4315542516246 L 60.71242207101695 65.60345802912374 L 55.18851562517279 59.569687177800255 L 67.19261834364994 42.58057542999896 L 87.9898542318227 42.80973915787808 L 87.98985423182272 57.19026084212191 L 67.19261834364993 57.41942457000103 L 55.18851562517279 40.430312822199745 L 60.71242207101696 34.39654197087624 L 59.11569964407784 49.56844574837538 L 39.142196269584105 60.326563555291244 L 25.949037905292098 50.00000000000001 M 25.084069975115696 49.99999999999999 L 25.084069975115696 49.99999999999999 L 38.97160509542308 39.129933099693424 L 59.996345489627 50.45426763328905 L 61.677105939036586 66.42469266223551 L 55.86246757499011 60.07335492400028 L 68.4983651733871 42.19007939999891 L 90.39019242409529 42.43130437671377 L 90.39019242409529 57.568695623286224 L 68.4983651733871 57.80992060000108 L 55.86246757499011 39.92664507599973 L 61.6771059390366 33.57530733776447 L 59.996345489627004 49.54573236671092 L 38.97160509542307 60.87006690030657 L 25.084069975115696 50.00000000000001 M 24.21910204493929 49.99999999999999 L 24.21910204493929 49.99999999999999 L 38.80101392126205 38.58642975467809 L 60.87699133517616 50.47698101495351 L 62.641789807056234 67.2459272953473 L 56.53641952480742 60.57702267020028 L 69.80411200312427 41.79958336999885 L 92.79053061636785 42.05286959554945 L 92.79053061636787 57.94713040445053 L 69.80411200312426 58.200416630001136 L 56.53641952480742 39.42297732979972 L 62.641789807056234 32.754072704652685 L 60.876991335176164 49.52301898504648 L 38.80101392126203 61.4135702453219 L 24.21910204493929 50.00000000000001 M 23.35413411476289 49.99999999999999 L 23.35413411476289 49.99999999999999 L 38.630422747101015 38.04292640966277 L 61.75763718072532 50.49969439661796 L 63.606473675075875 68.06716192845909 L 57.21037147462474 61.0806904164003 L 71.10985883286143 41.40908733999879 L 95.19086880864042 41.674434814385144 L 95.19086880864043 58.325565185614835 L 71.10985883286143 58.59091266000119 L 57.21037147462474 38.919309583599706 L 63.606473675075875 31.932838071540914 L 61.757637180725325 49.50030560338202 L 38.630422747100994 61.957073590337224 L 23.35413411476289 50.00000000000001 M 22.489166184586484 49.99999999999999 L 22.489166184586484 49.99999999999999 L 38.45983157293998 37.499423064647445 L 62.63828302627448 50.522407778282414 L 64.57115754309551 68.88839656157086 L 57.884323424442066 61.58435816260031 L 72.41560566259861 41.01859130999874 L 97.591207000913 41.296000033220835 L 97.59120700091302 58.70399996677915 L 72.4156056625986 58.981408690001246 L 57.884323424442066 38.41564183739969 L 64.57115754309551 31.11160343842914 L 62.638283026274486 49.47759222171757 L 38.45983157293996 62.500576935352555 L 22.489166184586484 50.00000000000001 M 21.62419825441008 49.99999999999999 L 21.62419825441008 49.99999999999999 L 38.28924039877895 36.95591971963211 L 63.51892887182364 50.545121159946866 L 65.53584141111516 69.70963119468263 L 58.558275374259374 62.08802590880033 L 73.72135249233577 40.62809527999869 L 99.99154519318559 40.91756525205652 L 99.99154519318559 59.08243474794346 L 73.72135249233577 59.3719047200013 L 58.558275374259374 37.91197409119968 L 65.53584141111516 30.290368805317364 L 63.518928871823654 49.45487884005311 L 38.28924039877893 63.04408028036788 L 21.62419825441008 50.00000000000001 M 20.759230324233677 49.99999999999999 L 20.759230324233677 49.99999999999999 L 38.118649224617904 36.41241637461678 L 64.3995747173728 50.56783454161131 L 66.50052527913479 70.5308658277944 L 59.232227324076696 62.591693655000334 L 75.02709932207293 40.23759924999863 L 102.39188338545816 40.539130470892204 L 102.39188338545816 59.460869529107775 L 75.02709932207293 59.762400750001355 L 59.232227324076696 37.408306344999666 L 66.5005252791348 29.46913417220559 L 64.39957471737281 49.43216545838866 L 38.11864922461789 63.58758362538321 L 20.759230324233677 50.00000000000001 M 19.89426239405727 49.99999999999999 L 19.89426239405727 49.99999999999999 L 37.94805805045687 35.868913029601444 L 65.28022056292195 50.590547923275764 L 67.46520914715444 71.35210046090617 L 59.906179273894004 63.09536140120036 L 76.3328461518101 39.84710321999857 L 104.79222157773074 40.1606956897279 L 104.79222157773076 59.839304310272084 L 76.33284615181009 60.152896780001406 L 59.90617927389402 36.90463859879965 L 67.46520914715444 28.647899539093814 L 65.28022056292197 49.40945207672421 L 37.94805805045686 64.13108697039854 L 19.89426239405727 50.00000000000001 M 19.02929446388087 49.99999999999999 L 19.02929446388087 49.99999999999999 L 37.77746687629583 35.32540968458612 L 66.16086640847112 50.613261304940224 L 68.42989301517409 72.17333509401796 L 60.58013122371133 63.599029147400366 L 77.63859298154728 39.45660718999852 L 107.19255977000333 39.782260908563586 L 107.19255977000333 60.2177390914364 L 77.63859298154726 60.54339281000146 L 60.58013122371133 36.40097085259964 L 68.42989301517409 27.82666490598203 L 66.16086640847112 49.386738695059755 L 37.777466876295826 64.67459031541387 L 19.02929446388087 50.00000000000001 M 18.164326533704465 49.99999999999999 L 18.164326533704465 49.99999999999999 L 37.6068757021348 34.781906339570796 L 67.04151225402028 50.635974686604676 L 69.39457688319372 72.99456972712974 L 61.25408317352864 64.10269689360038 L 78.94433981128444 39.06611115999847 L 109.59289796227588 39.40382612739928 L 109.59289796227588 60.59617387260071 L 78.94433981128442 60.933888840001515 L 61.25408317352865 35.897303106399626 L 69.39457688319372 27.00543027287026 L 67.0415122540203 49.364025313395295 L 37.60687570213479 65.21809366042919 L 18.164326533704465 50.00000000000001 M 17.299358603528063 49.99999999999999 L 17.299358603528063 49.99999999999999 L 37.43628452797377 34.23840299455546 L 67.92215809956944 50.65868806826913 L 70.35926075121337 73.81580436024151 L 61.92803512334596 64.60636463980039 L 80.25008664102161 38.67561512999842 L 111.99323615454846 39.02539134623497 L 111.99323615454846 60.974608653765024 L 80.25008664102158 61.32438487000157 L 61.92803512334596 35.39363536019961 L 70.35926075121337 26.18419563975848 L 67.92215809956946 49.34131193173084 L 37.43628452797375 65.76159700544453 L 17.299358603528063 50.00000000000001 M 16.434390673351658 49.99999999999999 L 16.434390673351658 49.99999999999999 L 37.265693353812736 33.69489964954014 L 68.8028039451186 50.68140144993358 L 71.323944619233 74.63703899335329 L 62.60198707316328 65.11003238600041 L 81.55583347075877 38.285119099998354 L 114.39357434682104 38.64695656507065 L 114.39357434682105 61.35304343492933 L 81.55583347075876 61.714880900001624 L 62.60198707316328 34.8899676139996 L 71.323944619233 25.362961006646707 L 68.80280394511863 49.31859855006639 L 37.265693353812715 66.30510035045985 L 16.434390673351658 50.00000000000001 M 15.569422743175254 49.99999999999999 L 15.569422743175254 49.99999999999999 L 37.0951021796517 33.15139630452481 L 69.68344979066778 50.704114831598034 L 72.28862848725265 75.45827362646506 L 63.275939022980594 65.61370013220042 L 82.86158030049594 37.8946230699983 L 116.79391253909361 38.268521783906344 L 116.79391253909363 61.73147821609365 L 82.86158030049592 62.105376930001675 L 63.275939022980594 34.38629986779959 L 72.28862848725265 24.541726373534928 L 69.68344979066778 49.295885168401945 L 37.09510217965168 66.84860369547519 L 15.569422743175254 50.00000000000001 M 14.70445481299885 49.99999999999999 L 14.70445481299885 49.99999999999999 L 36.924511005490665 32.607892959509485 L 70.56409563621692 50.726828213262486 L 73.25331235527229 76.27950825957684 L 63.94989097279792 66.11736787840043 L 84.1673271302331 37.50412703999825 L 119.1942507313662 37.890087002742035 L 119.1942507313662 62.10991299725795 L 84.16732713023309 62.49587296000173 L 63.94989097279792 33.88263212159957 L 73.2533123552723 23.720491740423157 L 70.56409563621695 49.273171786737485 L 36.92451100549064 67.39210704049052 L 14.70445481299885 50.00000000000001"
       stroke-linecap="round"
       stroke-linejoin="round"
       style="stroke: orange;"
       id="path831" />
  </g>
  <g
     class="yellow"
     inkscape:groupmode="layer"
     inkscape:label="3 yellow"
     id="layer3">
    <path
       d="M 13.839486882822445 49.99999999999999 L 13.839486882822445 49.99999999999999 L 36.75391983132964 32.064389614494154 L 71.4447414817661 50.74954159492694 L 74.21799622329192 77.10074289268863 L 64.62384292261524 66.62103562460044 L 85.47307395997028 37.113631009998194 L 121.59458892363875 37.51165222157772 L 121.59458892363878 62.48834777842227 L 85.47307395997026 62.88636899000179 L 64.62384292261524 33.37896437539956 L 74.21799622329193 22.899257107311378 L 71.4447414817661 49.25045840507303 L 36.75391983132961 67.93561038550584 L 13.839486882822445 50.00000000000001 M 12.974518952646042 49.99999999999999 L 12.974518952646042 49.99999999999999 L 36.5833286571686 31.520886269478822 L 72.32538732731525 50.77225497659139 L 75.18268009131157 77.92197752580039 L 65.29779487243255 67.12470337080046 L 86.77882078970744 36.723134979998136 L 123.99492711591134 37.133217440413404 L 123.99492711591137 62.866782559586575 L 86.77882078970742 63.27686502000183 L 65.29779487243255 32.875296629199546 L 75.18268009131157 22.0780224741996 L 72.32538732731527 49.22774502340858 L 36.58332865716858 68.47911373052116 L 12.974518952646042 50.00000000000001 M 12.109551022469638 49.99999999999999 L 12.109551022469638 49.99999999999999 L 36.41273748300756 30.97738292446349 L 73.20603317286441 50.794968358255844 L 76.14736395933122 78.74321215891217 L 65.97174682224986 67.62837111700047 L 88.0845676194446 36.332638949998085 L 126.39526530818391 36.754782659249095 L 126.39526530818392 63.245217340750884 L 88.08456761944458 63.667361050001894 L 65.97174682224987 32.37162888299954 L 76.14736395933122 21.256787841087828 L 73.20603317286442 49.20503164174413 L 36.41273748300753 69.0226170755365 L 12.109551022469638 50.00000000000001 M 11.244583092293235 49.99999999999999 L 11.244583092293235 49.99999999999999 L 36.24214630884653 30.433879579448163 L 74.08667901841358 50.817681739920296 L 77.11204782735085 79.56444679202394 L 66.64569877206718 68.1320388632005 L 89.39031444918179 35.942142919998034 L 128.79560350045648 36.376347878084786 L 128.79560350045648 63.6236521219152 L 89.39031444918174 64.05785708000195 L 66.64569877206719 31.867961136799522 L 77.11204782735085 20.43555320797605 L 74.08667901841359 49.18231826007967 L 36.2421463088465 69.56612042055183 L 11.244583092293235 50.00000000000001 M 10.379615162116831 49.99999999999999 L 10.379615162116831 49.99999999999999 L 36.07155513468549 29.890376234432836 L 74.96732486396274 50.840395121584756 L 78.0767316953705 80.38568142513573 L 67.3196507218845 68.6357066094005 L 90.69606127891893 35.55164688999798 L 131.19594169272904 35.99791309692047 L 131.1959416927291 64.00208690307952 L 90.69606127891892 64.448353110002 L 67.3196507218845 31.364293390599506 L 78.0767316953705 19.614318574864278 L 74.96732486396274 49.159604878415216 L 36.07155513468547 70.10962376556716 L 10.379615162116831 50.00000000000001 M 9.514647231940428 49.99999999999999 L 9.514647231940428 49.99999999999999 L 35.90096396052446 29.346872889417508 L 75.8479707095119 50.86310850324921 L 79.04141556339013 81.2069160582475 L 67.99360267170181 69.13937435560052 L 92.00180810865609 35.16115085999792 L 133.59627988500165 35.619478315756155 L 133.59627988500165 64.38052168424383 L 92.00180810865608 64.83884914000205 L 67.99360267170181 30.860625644399494 L 79.04141556339015 18.793083941752492 L 75.84797070951191 49.13689149675076 L 35.900963960524436 70.65312711058249 L 9.514647231940428 50.00000000000001 M 8.649679301764024 49.99999999999999 L 8.649679301764024 49.99999999999999 L 35.730372786363425 28.803369544402177 L 76.72861655506105 50.88582188491365 L 80.00609943140978 82.02815069135927 L 68.66755462151913 69.64304210180052 L 93.30755493839327 34.770654829997866 L 135.9966180772742 35.24104353459185 L 135.9966180772742 64.75895646540813 L 93.30755493839325 65.22934517000212 L 68.66755462151913 30.356957898199482 L 80.00609943140978 17.97184930864072 L 76.72861655506108 49.11417811508631 L 35.730372786363404 71.19663045559781 L 8.649679301764024 50.00000000000001 M 7.78471137158762 49.99999999999999 L 7.78471137158762 49.99999999999999 L 35.55978161220239 28.259866199386853 L 77.60926240061022 50.908535266578106 L 80.97078329942941 82.84938532447104 L 69.34150657133645 70.14670984800054 L 94.61330176813044 34.380158799997815 L 138.39695626954682 34.86260875342754 L 138.39695626954682 65.13739124657245 L 94.61330176813041 65.61984120000217 L 69.34150657133645 29.85329015199947 L 80.97078329942943 17.150614675528942 L 77.60926240061023 49.09146473342186 L 35.55978161220237 71.74013380061314 L 7.78471137158762 50.00000000000001 M 6.919743441411216 49.99999999999999 L 6.919743441411216 49.99999999999999 L 35.389190438041354 27.71636285437152 L 78.48990824615937 50.931248648242565 L 81.93546716744906 83.67061995758283 L 70.01545852115376 70.65037759420056 L 95.9190485978676 33.989662769997764 L 140.79729446181938 34.48417397226323 L 140.79729446181938 65.51582602773675 L 95.91904859786759 66.01033723000222 L 70.01545852115376 29.349622405799455 L 81.93546716744906 16.32938004241717 L 78.48990824615939 49.068751351757406 L 35.389190438041325 72.28363714562848 L 6.919743441411216 50.000000000000014 M 6.054775511234812 49.99999999999999 L 6.054775511234812 49.99999999999999 L 35.21859926388032 27.172859509356194 L 79.37055409170854 50.95396202990702 L 82.90015103546871 84.4918545906946 L 70.68941047097107 71.15404534040059 L 97.22479542760477 33.5991667399977 L 143.19763265409193 34.10573919109892 L 143.197632654092 65.89426080890107 L 97.22479542760475 66.40083326000227 L 70.68941047097108 28.845954659599442 L 82.90015103546871 15.508145409305389 L 79.37055409170856 49.046037970092954 L 35.21859926388029 72.8271404906438 L 6.054775511234812 50.000000000000014 M 5.189807581058409 49.99999999999999 L 5.189807581058409 49.99999999999999 L 35.04800808971929 26.629356164340866 L 80.25119993725771 50.97667541157146 L 83.86483490348833 85.31308922380637 L 71.36336242078839 71.65771308660058 L 98.53054225734193 33.20867070999765 L 145.59797084636455 33.727304409934604 L 145.59797084636455 66.27269559006538 L 98.53054225734192 66.79132929000232 L 71.3633624207884 28.34228691339943 L 83.86483490348836 14.686910776193619 L 80.25119993725772 49.023324588428494 L 35.04800808971926 73.37064383565912 L 5.189807581058409 50.000000000000014 M 4.324839650882005 49.99999999999999 L 4.324839650882005 49.99999999999999 L 34.87741691555826 26.085852819325538 L 81.13184578280686 50.999388793235916 L 84.82951877150798 86.13432385691816 L 72.03731437060571 72.1613808328006 L 99.83628908707911 32.8181746799976 L 147.9983090386371 33.3488696287703 L 147.9983090386371 66.65113037122968 L 99.8362890870791 67.18182532000239 L 72.03731437060571 27.83861916719942 L 84.82951877150798 13.865676143081838 L 81.13184578280689 49.00061120676404 L 34.87741691555822 73.91414718067446 L 4.324839650882005 50.000000000000014 M 3.4598717207056007 49.99999999999999 L 3.4598717207056007 49.99999999999999 L 34.70682574139722 25.542349474310207 L 82.01249162835603 51.022102174900375 L 85.79420263952763 86.95555849002994 L 72.71126632042302 72.66504857900061 L 101.14203591681625 32.427678649997546 L 150.39864723090966 32.970434847605986 L 150.39864723090972 67.029565152394 L 101.14203591681625 67.57232135000244 L 72.71126632042304 27.3349514209994 L 85.79420263952763 13.044441509970062 L 82.01249162835603 48.97789782509959 L 34.70682574139718 74.45765052568979 L 3.4598717207056007 50.000000000000014 M 2.594903790529197 49.99999999999999 L 2.594903790529197 49.99999999999999 L 34.53623456723619 24.998846129294883 L 82.89313747390518 51.04481555656483 L 86.75888650754726 87.7767931231417 L 73.38521827024034 73.16871632520063 L 102.44778274655344 32.03718261999749 L 152.79898542318222 32.59200006644167 L 152.79898542318227 67.40799993355832 L 102.44778274655343 67.96281738000249 L 73.38521827024036 26.831283674799387 L 86.75888650754727 12.223206876858285 L 82.89313747390521 48.95518444343514 L 34.53623456723615 75.00115387070511 L 2.594903790529197 50.000000000000014 M 1.7299358603527932 49.99999999999999 L 1.7299358603527932 49.99999999999999 L 34.36564339307515 24.455342784279555 L 83.77378331945435 51.06752893822928 L 87.72357037556691 88.59802775625349 L 74.05917022005767 73.67238407140064 L 103.75352957629059 31.646686589997437 L 155.19932361545483 32.213565285277355 L 155.19932361545483 67.78643471472262 L 103.75352957629057 68.35331341000253 L 74.05917022005767 26.32761592859938 L 87.72357037556691 11.401972243746508 L 83.77378331945437 48.932471061770684 L 34.36564339307511 75.54465721572045 L 1.7299358603527932 50.000000000000014 M 0.8649679301763895 49.99999999999999 L 0.8649679301763895 49.99999999999999 L 34.19505221891412 23.911839439264227 L 84.6544291650035 51.09024231989373 L 88.68825424358656 89.41926238936526 L 74.73312216987497 74.17605181760067 L 105.05927640602776 31.25619055999738 L 157.5996618077274 31.83513050411305 L 157.5996618077274 68.16486949588693 L 105.05927640602776 68.7438094400026 L 74.73312216987497 25.823948182399363 L 88.68825424358656 10.580737610634733 L 84.65442916500353 48.90975768010623 L 34.195052218914086 76.08816056073577 L 0.8649679301763895 50.000000000000014 M -1.4210854715202004e-14 49.99999999999999 L -1.4210854715202004e-14 49.99999999999999 L 34.02446104475308 23.368336094248896 L 85.53507501055266 51.112955701558185 L 89.65293811160619 90.24049702247704 L 75.4070741196923 74.67971956380066 L 106.36502323576492 30.865694529997327 L 159.99999999999994 31.456695722948737 L 160 68.54330427705125 L 106.36502323576491 69.13430547000266 L 75.40707411969231 25.32028043619935 L 89.6529381116062 9.759502977522956 L 85.53507501055269 48.88704429844178 L 34.024461044753046 76.6316639057511 L -1.4210854715202004e-14 50.000000000000014"
       stroke-linecap="round"
       stroke-linejoin="round"
       style="stroke: yellow;"
       id="path834" />
  </g>
  <plotdata
     layer="-2"
     node="0"
     last_path="0"
     node_after_path="0"
     last_known_x="0"
     last_known_y="0"
     paused_x="0"
     paused_y="0"
     randseed="0"
     row="0"
     id="1642259099"
     application="axidraw" />
</svg>
